<?xml version="1.0" encoding="utf-8"?>
<!-- Generator: Adobe Illustrator 25.2.1, SVG Export Plug-In . SVG Version: 6.00 Build 0)  -->
<svg version="1.1" id="Layer_1" xmlns="http://www.w3.org/2000/svg" xmlns:xlink="http://www.w3.org/1999/xlink" x="0px" y="0px"
	 viewBox="0 0 300 300" style="enable-background:new 0 0 300 300;" xml:space="preserve">
<style type="text/css">
	.st0{clip-path:url(#SVGID_2_);}
	.st1{clip-path:url(#SVGID_4_);fill:#28A428;}
	.st2{clip-path:url(#SVGID_4_);fill:#322E3D;}
	.st3{clip-path:url(#SVGID_4_);fill:#FF8D29;}
	.st4{clip-path:url(#SVGID_4_);fill:#F0760C;}
	.st5{clip-path:url(#SVGID_4_);fill:#9C500B;}
	.st6{clip-path:url(#SVGID_4_);fill:#452107;}
	.st7{clip-path:url(#SVGID_4_);fill:#E86519;}
	.st8{clip-path:url(#SVGID_4_);fill:#E785EA;}
</style>
<g id="Artwork_11_1_">
	<g>
		<defs>
			<rect id="SVGID_1_" x="70.08" y="29.65" width="180.54" height="255.93"/>
		</defs>
		<clipPath id="SVGID_2_">
			<use xlink:href="#SVGID_1_"  style="overflow:visible;"/>
		</clipPath>
		<g class="st0">
			<defs>
				<rect id="SVGID_3_" x="70.08" y="29.65" width="180.54" height="255.93"/>
			</defs>
			<clipPath id="SVGID_4_">
				<use xlink:href="#SVGID_3_"  style="overflow:visible;"/>
			</clipPath>
			<path class="st1" d="M70.1,215.62c0.58-1.01,13.41-25.41,34.42-32.14c19.83-6.36,39.72,2.98,57.84,11.48
				c1.3,0.61,2.59,1.22,3.88,1.81c5.62,2.61,10.77,3,15.31,1.17c4.74-1.91,8.32-5.95,10.97-10.32c-5.92-7.47-8.43-16.64-8.52-23.44
				c-0.08-6.55,2.78-18.85,12.18-14.83c5.55,2.37,5.71,10.07,5.56,15.19c-0.17,5.44-0.99,11.2-2.97,16.3c-0.8,2.05-1.79,4.28-3,6.49
				c4.14,4.67,9.85,8.44,17.43,10.01c9.68,2.02,17.72-0.02,23.89-6.04c9.09-8.88,11.81-24.52,9.81-35.37
				c-3.15-17.09-21.89-18-23.11-18.16c-0.94-0.12-1.08,0.08-1.07-0.66c0.01-0.74,0.59-0.84,1.33-0.84c0,0,22.41-0.36,25.96,18.92
				c2.13,11.55-1.29,28.5-11.05,38.04c-6.75,6.59-15.84,8.93-26.3,6.75c-7.88-1.64-13.88-5.46-18.31-10.22
				c-2.85,4.5-6.7,8.63-11.79,10.68c-5.26,2.12-11.13,1.71-17.44-1.22c-1.29-0.6-2.59-1.21-3.89-1.82
				c-17.65-8.28-35.9-16.84-54.73-10.8c-20.03,6.42-31.73,27.83-32.65,28.96C73.53,215.93,69.73,216.26,70.1,215.62 M193.1,152.9
				c-0.48,0-0.99,0.06-1.54,0.19c-3.03,0.71-4.95,5.05-4.88,11.06c0.07,6.06,2.23,14.16,7.26,20.93c0.92-1.78,1.69-3.55,2.33-5.21
				c2.73-7.05,4.16-20.81,0.1-25.49C195.51,153.39,194.43,152.9,193.1,152.9"/>
			<path class="st2" d="M222.97,137.83l-32.76-7.15l0.39-1.79l32.76,7.15c0.49,0.11,0.81,0.6,0.7,1.09
				C223.95,137.62,223.46,137.94,222.97,137.83"/>
			<path class="st3" d="M175.65,258.13l-3.84,2.2c0,0-13.47-19.98-19.83-29.02c-2.27-3.23-3.66-6.19-4.56-8.79
				c-1.64-4.69-1.71-8.23-2.58-10.06c-1.34-2.85-5.51-8.21-11.37-17.25c-1.05-1.61-2.07-3.3-3.04-4.98
				c-3.13-5.42-5.75-10.77-7.02-13.47c-0.54-1.15-0.84-1.81-0.84-1.81s0.28-6.17,0.52-10.91c0.05-1.08,0.11-2.09,0.15-2.93
				c0.08-1.36,0.14-2.29,0.17-2.4c0.02-0.08,0.38-0.2,0.98-0.36c0.33-0.08,0.72-0.17,1.17-0.28c4.05-0.91,12.41-2.37,12.41-2.37
				s1.61,2.91,3.43,7.19c0.94,2.22,1.93,4.8,2.79,7.54c2.07,6.62,5.89,18.93,8.26,26.99c0.5,1.72,0.94,3.25,1.29,4.49
				c1.07,3.88,7.29,10.29,9.71,18.41c0.2,0.69,0.56,1.84,1.03,3.33C167.61,233.53,175.65,258.13,175.65,258.13"/>
			<path class="st4" d="M150.16,213.73c-0.05,0-0.1-0.01-0.15-0.03l-3.4-1.67c-0.17-0.08-0.23-0.28-0.15-0.45
				c0.08-0.17,0.28-0.23,0.45-0.15l3.4,1.67c0.17,0.08,0.23,0.28,0.15,0.45C150.41,213.66,150.29,213.73,150.16,213.73"/>
			<path class="st4" d="M153.68,212.05c-0.18,0-0.33-0.15-0.33-0.33v-4.19c0-0.18,0.15-0.33,0.33-0.33s0.33,0.15,0.33,0.33v4.19
				C154.02,211.9,153.87,212.05,153.68,212.05"/>
			<path class="st3" d="M187.88,125.21l-0.27,3.78c0,0-16.17,0.03-25-0.2c-8.19-0.21-15.05-1.92-23.64-5.12
				c-1.26-0.47-2.56-0.97-3.9-1.51c-2.57-1.02-5.05-2.2-7.31-3.41c-6.99-3.69-12.03-7.56-12.03-7.56s10.23-5.06,10.96-5.24
				c0.5-0.12,2.91-0.01,4.37,0.07c0.67,0.03,1.14,0.07,1.14,0.07s0.76,0.45,2,1.17c4.84,2.81,16.89,9.78,18.36,10.12
				c1.85,0.43,3.34,0.3,8.77,1.57C166.75,120.23,187.88,125.21,187.88,125.21"/>
			<path class="st4" d="M138.96,123.67c-1.26-0.47-2.56-0.97-3.9-1.51c-2.57-1.02-5.05-2.2-7.31-3.41c0.18-1.7,0.61-3.6,1.38-5.36
				c1.03-2.35,1.61-5.19,1.92-7.36c0.67,0.03,1.14,0.07,1.14,0.07s0.76,0.45,2,1.17c1.13,1.42,2.74,3.9,3.49,7.18
				C138.34,117.34,138.74,120.94,138.96,123.67"/>
			<path class="st3" d="M99.58,157.54c0,0-4.1,11.33-4.1,23.49c0,12.16,5.8,96.2,5.8,96.2h4.8c0,0,6.4-30.33,6.64-39.01
				c0.32-11.56-2.51-17.44-2.18-19.34c0.33-1.9,3.64-17.44,5.17-24.8c1.53-7.37,1.86-19.73,1.86-19.73l-0.56-9.63L99.58,157.54z"/>
			<path class="st3" d="M109.88,98.53c0,0-6.36-20.51-6.36-22.4c0-1.89,0.46-3.32,0.46-8.9c0-5.58-0.04-27.29-0.04-27.29l-3.74-0.59
				c0,0-3.7,15.74-5.49,24.39c-1.9,9.2-0.56,15.16,1.12,26.33c1.67,11.17,5.36,23.34,5.36,23.34s7.25-8.82,7.59-9.49
				S109.88,98.53,109.88,98.53"/>
			<path class="st5" d="M125.32,73.22c0.22-0.91,0.29-1.94,0.19-2.29c-0.75-2.62-3.92-4.08-6.37-2.92c-1.22,0.58-1.6,1.78-2.3,2.84
				c-0.89,1.36-1.19,2.45-0.88,4.11c0.53,2.81,3.99,3.49,5.6,1.17c0.15-0.21-0.05-0.43-0.26-0.45c0.12-0.19,0.22-0.4,0.31-0.63
				c0.28,0.05,0.58,0.01,0.88-0.16c0.21-0.12,0.35-0.27,0.43-0.44c0.37,0.16,0.76,0.23,1.12,0.18c0.02,0.05,0.06,0.1,0.12,0.12
				c0.41,0.12,0.74-0.3,0.97-0.91C125.22,73.66,125.28,73.45,125.32,73.22"/>
			<path class="st5" d="M138.63,82.84c-0.11-1.5-0.44-3.02-1.28-4.29c-0.72-1.07-1.77-1.86-2.8-2.63c-1.04-0.78-2.05-1.55-3.25-2.08
				c-2.5-1.1-5.29-1.17-7.9-0.44c-2.92,0.81-5.49,3.31-6.11,6.31c-0.38,1.82-0.32,3.73-0.06,5.56c0.29,2.04,1.07,3.58,1.81,5.4
				c0.12,0.41,0.27,0.81,0.54,1.18c0.28,0.39,0.85,0.16,0.77-0.32c-0.36-2.09-1.13-3.95-1.32-5.94c0.07,0.04,0.15,0.08,0.24,0.1
				c1.16,0.27,2.24-2.01,2.64-2.73c0.34-0.61,0.9-1.46,1.27-2.31c0.25-0.37,0.5-0.75,0.72-1.14c0.51-0.53,0.98-1.12,1.15-1.68
				c0.05-0.03,0.09-0.06,0.14-0.09c0.18-0.11,0.36-0.2,0.54-0.28c1.17-0.11,2.53-0.31,3.81-0.28c0.36,0.09,0.73,0.19,1.1,0.32
				c0.18,0.06,0.33,0.02,0.44-0.06c0.26,0.07,0.54,0.15,0.8,0.21c0.41,0.18,0.78,0.43,1.09,0.76c0.12,0.13,0.29,0.17,0.46,0.14
				c0.16,0.23,0.3,0.49,0.42,0.8c0.15,0.4,0.61,0.42,0.85,0.22c0.21,0.22,0.43,0.43,0.65,0.65c0.28,0.29,0.52,0.56,0.63,0.95
				c0.08,0.26,0.1,0.48,0.21,0.74c0.06,0.12,0.17,0.19,0.28,0.22c0.01,0.04,0.03,0.05,0.09,0.03c0.01,0,0.02,0,0.03,0
				c-0.13,0.1-0.2,0.29-0.15,0.44c0,0.01,0.01,0.03,0.01,0.04c0.05,0.15,0.17,0.26,0.31,0.32c-0.08,0.63-0.27,1.26-0.59,1.88
				c-0.09,0.17,0.01,0.35,0.15,0.42c-0.25,0.38-0.55,0.74-0.46,1.18c0.02,0.09,0.09,0.17,0.18,0.22c-0.12,0.12-0.24,0.23-0.37,0.34
				c-0.36,0.29,0.03,0.97,0.47,0.8C137.94,87.08,138.76,84.62,138.63,82.84"/>
			<path class="st3" d="M137.06,85.45c-0.01,0.36-0.02,0.75-0.05,1.17c-0.12,1.68-0.46,3.76-1.2,6.26c-1.48,5-4.91,6.55-7.35,6.41
				c-3.97-0.23-6.03-4.64-7.15-7.33c-1.11-2.7-0.6-8.68-0.6-8.68s3.52-7.29,9.71-6.47c6.19,0.83,6.11,4.52,6.11,4.52
				S137.1,82.69,137.06,85.45"/>
			<path class="st3" d="M130.27,106.89l-6.22,7.56l-9.65-3.61l-3.87-8.62c0,0,3.27-1.23,5.79-3.6c2.52-2.35,4.39-15.23,4.39-15.23
				l8.35,13.34c0,0-0.41,0.77-0.88,1.73c-0.13,0.28-0.28,0.57-0.4,0.86l-0.01,0c-0.14,0.31-0.29,0.63-0.41,0.95
				c-0.16,0.4-0.44,0.94-0.51,1.42c-0.03,0.14-0.03,0.27-0.02,0.4C126.98,103,130.27,106.89,130.27,106.89"/>
			<path class="st3" d="M122.57,85.39c0,0-0.59-3.11-2.55-2.21c-1.95,0.89-1.69,4.69-0.71,5.82c0.98,1.13,1.12,1.37,1.2,1.24
				C120.59,90.1,122.57,85.39,122.57,85.39"/>
			<path class="st6" d="M127.26,86.69c-0.05-0.16-0.14-0.31-0.31-0.36c-0.48-0.16-0.61,0.45-0.59,0.79c0.02,0.3,0.21,0.58,0.54,0.53
				c0.25-0.03,0.37-0.26,0.39-0.5C127.31,87.02,127.3,86.84,127.26,86.69"/>
			<path class="st6" d="M136.28,88.29c-0.04-0.15-0.13-0.28-0.28-0.33c-0.43-0.14-0.55,0.41-0.53,0.72
				c0.02,0.27,0.19,0.52,0.49,0.48c0.23-0.03,0.34-0.24,0.35-0.45C136.33,88.58,136.32,88.43,136.28,88.29"/>
			<path class="st5" d="M128.18,84.12c-0.06-0.02-0.12-0.03-0.18-0.05c-0.79-0.2-1.64-0.29-2.41-0.03c-0.31,0.1-0.73,0.4-0.42,0.76
				c0.3,0.36,1.13,0.22,1.54,0.21c0.43,0,0.85,0.09,1.26,0.17c0.28,0.06,0.71,0.23,0.86-0.13c0.1-0.25-0.03-0.58-0.23-0.73
				C128.47,84.23,128.33,84.17,128.18,84.12"/>
			<path class="st5" d="M137.07,85.55c-0.01,0.36-0.02,0.75-0.05,1.17c-0.38-0.15-0.79-0.21-1.19-0.28
				c-0.28-0.05-0.75-0.05-0.76-0.44c0-0.26,0.24-0.53,0.48-0.6c0.15-0.04,0.31-0.05,0.47-0.03c0.06,0,0.12,0.01,0.18,0.01
				C136.49,85.43,136.78,85.48,137.07,85.55"/>
			<path class="st4" d="M127.77,99.32c-0.14,0.31-0.29,0.63-0.41,0.95c-0.16,0.4-0.44,0.94-0.51,1.42
				c-0.63-0.35-1.42-0.91-2.09-1.65c-1.27-1.39-1.68-2.95-1.04-3.29c0.38-0.2,1.37,1.03,2,1.49
				C127.09,99.25,127.69,99.29,127.77,99.32"/>
			<path class="st7" d="M132.92,91.39c-0.01-0.04-0.03-0.09-0.04-0.13c-0.14-0.37-0.32-0.72-0.46-1.09
				c-0.14-0.37-0.17-0.63-0.17-1.16c0-0.29,0.14-0.89,0.09-1c-0.2-0.42-0.6,0.54-0.65,0.7c-0.29,0.88-0.7,3.31,0.7,3.49
				C132.97,92.29,133.05,91.84,132.92,91.39"/>
			<path class="st4" d="M120,88.15c-0.08,0-0.16-0.03-0.23-0.09c-0.13-0.13-0.14-0.34-0.02-0.47c0,0,0.41-0.44,0.69-1.15
				c0.44-1.08,0.32-1.98,0.32-1.98c-0.02-0.18,0.1-0.35,0.29-0.38c0.18-0.03,0.35,0.1,0.38,0.28c0.01,0.04,0.14,1.08-0.37,2.33
				c-0.34,0.82-0.8,1.33-0.82,1.35C120.18,88.12,120.09,88.15,120,88.15"/>
			<path class="st4" d="M130.39,94.55c-0.27,0-0.86-0.06-1.65-0.52c-1.03-0.6-1.28-1.49-1.29-1.52c-0.05-0.18,0.05-0.36,0.23-0.41
				c0.18-0.05,0.36,0.05,0.41,0.23c0.01,0.03,0.21,0.67,0.99,1.13c0.82,0.48,1.37,0.43,1.37,0.43c0.18-0.02,0.35,0.11,0.37,0.29
				c0.02,0.18-0.11,0.35-0.29,0.37C130.52,94.54,130.47,94.55,130.39,94.55"/>
			<path class="st5" d="M136.17,79.19c-0.13-0.2-0.29-0.39-0.47-0.58c0.02-0.01,0.03-0.01,0.05-0.02c0.22-0.12,0.17-0.4,0-0.53
				c-1.13-0.86-3.19-1.75-4.59-1.87c-0.11-0.23-0.37-0.41-0.66-0.36c-1.45,0.25-2.93,0.27-4.28,0.9c-1.34,0.62-2.47,1.55-3.53,2.55
				c-0.57,0.54-2,1.69-2.04,2.71c-0.3,0.73,0.53,1.82,1.3,1.85c0.87,0.04,1.53-0.92,1.98-1.54c0.49-0.67,0.97-1.32,1.6-1.87
				c1.52-1.35,3.64-2.18,5.69-2.22c2.8-0.05,4.78,2.1,5.94,4.43c0.05,0.1,0.11,0.21,0.2,0.27c0.09,0.06,0.24,0.05,0.3-0.04
				c0.03-0.05,0.03-0.12,0.02-0.19C137.55,81.41,137.04,80.13,136.17,79.19"/>
			<path class="st5" d="M140.06,82.05c-0.6-1.37-1.23-3.12-2.34-4.15c-0.36-0.34-0.77-0.61-1.21-0.84
				c-0.92-2.01-2.73-3.46-4.88-4.18c-2.62-0.88-6.08-0.92-7.99,1.4c-0.2,0.25-0.02,0.68,0.33,0.57c1.12-0.33,2-1.09,3.17-1.31
				c1.14-0.21,2.38-0.09,3.52,0.21c0,0.11,0.05,0.22,0.18,0.24c0.79,0.11,1.34,0.95,1.96,1.43c0.3,0.5,0.8,0.93,1.18,1.31
				c0.72,0.71,1.3,1.76,2.22,2.2c0.2,0.1,0.46,0.01,0.6-0.15c0.08,0.05,0.17,0,0.2-0.08c0.37,0.39,0.69,0.83,0.97,1.36
				c-0.19,0.08-0.35,0.27-0.35,0.49c-0.02,0.95,0.53,1.75,0.56,2.69c0.03,0.86-0.18,1.71-0.26,2.57c0-0.01,0-0.02,0-0.02
				c-0.18-0.86-0.42-1.91-0.77-2.85c0.06-0.07,0.1-0.18,0.04-0.3c-1.38-3.1-3.99-4.41-6.98-5.68c-0.23-0.1-0.61,0.01-0.57,0.33
				c0.02,0.15,0.05,0.28,0.1,0.41c-0.2-0.01-0.41-0.02-0.65,0c-0.94,0.04-2.21,0.26-2.76,1.1c-0.05,0.07,0.03,0.17,0.11,0.15
				c0.96-0.34,2.13-0.5,3.15-0.45c1.41,0.07,2.03,1.07,3.19,1.7c1.19,0.64,2.41,0.97,3.09,2.26c0.54,1.04,0.77,2.47,1.16,3.59
				c0.12,0.35,0.48,0.39,0.71,0.24c-0.25,0.31-0.49,0.62-0.73,0.97c-0.25,0.36,0.22,0.68,0.54,0.54c0.49-0.21,0.65-0.52,0.97-0.94
				c0.44-0.58,1.08-0.99,1.48-1.6C140.65,84.26,140.5,83.07,140.06,82.05"/>
			<path class="st8" d="M113.86,100.5c0,0,1.74,5.97,6.14,7.11c4.4,1.13,7.84-3.55,7.84-3.55l4.35,2.05c0,0,3.95,12.01,1.98,19.8
				c-1.97,7.78-3.53,12.97-1.91,17.66c1.62,4.69,5.72,11.55,5.72,12.14c0,0.59-14.27,21.67-14.27,21.67h-6.25l-17.88-19.83
				c0,0,2.59-13.14,2.59-16.57s-3.18-20.93-1.51-28.54c1.26-5.74,9.21-13.89,9.21-13.89L113.86,100.5z"/>
			<path class="st3" d="M100.19,39.35c0,0-0.45-4.53-0.11-6.45c0.34-1.92,1.88-1.9,2.58-2.39c0.71-0.5,1.56-1.15,2.35-0.7
				c0.79,0.45-0.09,5.49,0.54,6.09c0.64,0.61,1.69-1.56,2.39-1.31c0.7,0.25,0.56,1.4-0.48,2.76c-1.04,1.36-2.27,3.18-3.93,4.13
				c-1.66,0.95-2.11,0.69-2.34,0.22C100.98,41.22,100.19,39.35,100.19,39.35"/>
			<path class="st3" d="M187.88,125.21c0,0,4.9,0.52,6.2,1.23c1.3,0.71,2.43,2.25,2.01,3.56c-0.18,0.57-2.26,1.3-3.35,1.59
				c-1.09,0.29-1.26,0.88-2.39,0.42c-1.13-0.46-2.75-3.02-2.75-3.02s-1.31-1.84-1.26-1.96C186.38,126.9,187.88,125.21,187.88,125.21
				"/>
			<path class="st3" d="M101.28,277.23c0,0-3.63,3.47-5.22,4.35c-1.59,0.88-4.23,1.84-4.48,2.34c-0.25,0.5-0.33,1.26,1.26,1.59
				s8.58-0.79,10.38-0.71c1.8,0.08,2.13-1.47,2.26-2.43c0.13-0.96,0.6-5.15,0.6-5.15s-1.31-1.97-1.44-1.97
				C104.52,275.26,101.28,277.23,101.28,277.23"/>
			<path class="st3" d="M181.69,269.53c0,1.84-1.84,4.66-2.9,4.38c-1.06-0.28-2.07-1.45-3.14-3.29c-1.06-1.83-3.84-10.29-3.84-10.29
				l-0.28-3.4l4.12,1.21c0,0,2.3,3.65,3.25,5.32C179.85,265.12,181.69,267.69,181.69,269.53"/>
			<path class="st4" d="M101,223.91c-0.05,0-0.11-0.01-0.16-0.04c-0.16-0.09-0.22-0.29-0.14-0.45l2.01-3.77
				c0.09-0.16,0.29-0.22,0.45-0.14c0.16,0.09,0.22,0.29,0.14,0.45l-2.01,3.77C101.24,223.85,101.12,223.91,101,223.91"/>
			<path class="st4" d="M181.69,269.53c0,1.84-1.84,4.66-2.9,4.38c-1.06-0.28-2.07-1.45-3.14-3.29c-1.06-1.83-3.84-10.29-3.84-10.29
				s-13.47-19.98-19.83-29.02c-2.27-3.23-3.66-6.19-4.56-8.79c3.52,0.64,7.99,1.12,13.34,1.07c1.19-0.01,2.42,0.01,3.71,0.07
				c3.13,9.88,11.18,34.48,11.18,34.48s2.3,3.65,3.25,5.32C179.85,265.12,181.69,267.69,181.69,269.53"/>
			<path class="st4" d="M103.35,280.02c-0.03,0-0.06,0-0.1-0.01c-0.18-0.05-0.28-0.24-0.22-0.42l0.33-1.12
				c0.05-0.18,0.24-0.28,0.42-0.22c0.18,0.05,0.28,0.24,0.22,0.42l-0.33,1.12C103.63,279.93,103.49,280.02,103.35,280.02"/>
			<path class="st4" d="M104.6,103.21c-0.03,0-0.05,0-0.08-0.01c-0.18-0.04-0.29-0.23-0.24-0.41l1.84-7.45
				c0.04-0.18,0.22-0.29,0.41-0.24c0.18,0.04,0.29,0.23,0.24,0.41l-1.84,7.45C104.89,103.11,104.75,103.21,104.6,103.21"/>
		</g>
	</g>
</g>
</svg>
