<?xml version="1.0" encoding="utf-8"?>
<!-- Generator: Adobe Illustrator 25.2.1, SVG Export Plug-In . SVG Version: 6.00 Build 0)  -->
<svg version="1.1" id="Logo" xmlns="http://www.w3.org/2000/svg" xmlns:xlink="http://www.w3.org/1999/xlink" x="0px" y="0px"
	 viewBox="0 0 35.46 35.46" style="enable-background:new 0 0 35.46 35.46;" xml:space="preserve">
<style type="text/css">
	.st0{fill:#FF8533;}
</style>
<g>
	<path class="st0" d="M17.73,3.19c4.73,0,5.29,0.02,7.16,0.1c1.73,0.08,2.67,0.37,3.29,0.61c0.83,0.32,1.42,0.71,2.04,1.33
		c0.62,0.62,1,1.21,1.33,2.04c0.24,0.62,0.53,1.56,0.61,3.29c0.09,1.87,0.1,2.43,0.1,7.16s-0.02,5.29-0.1,7.16
		c-0.08,1.73-0.37,2.67-0.61,3.29c-0.32,0.83-0.71,1.42-1.33,2.04c-0.62,0.62-1.21,1-2.04,1.33c-0.62,0.24-1.56,0.53-3.29,0.61
		c-1.87,0.09-2.43,0.1-7.16,0.1s-5.29-0.02-7.16-0.1c-1.73-0.08-2.67-0.37-3.29-0.61c-0.83-0.32-1.42-0.71-2.04-1.33
		c-0.62-0.62-1-1.21-1.33-2.04c-0.24-0.62-0.53-1.56-0.61-3.29c-0.09-1.87-0.1-2.43-0.1-7.16s0.02-5.29,0.1-7.16
		C3.38,8.84,3.67,7.9,3.91,7.27c0.32-0.83,0.71-1.42,1.33-2.04c0.62-0.62,1.21-1,2.04-1.33C7.9,3.67,8.84,3.38,10.56,3.3
		C12.43,3.21,13,3.19,17.73,3.19 M17.73,0c-4.81,0-5.42,0.02-7.31,0.11c-1.89,0.09-3.18,0.39-4.3,0.82
		C4.95,1.38,3.96,1.99,2.98,2.98C1.99,3.96,1.38,4.95,0.93,6.12c-0.44,1.13-0.74,2.42-0.82,4.3C0.02,12.31,0,12.91,0,17.73
		c0,4.81,0.02,5.42,0.11,7.31c0.09,1.89,0.39,3.18,0.82,4.3c0.45,1.17,1.06,2.15,2.04,3.14c0.99,0.99,1.97,1.59,3.14,2.04
		c1.13,0.44,2.42,0.74,4.3,0.82c1.89,0.09,2.49,0.11,7.31,0.11s5.42-0.02,7.31-0.11c1.89-0.09,3.18-0.39,4.3-0.82
		c1.17-0.45,2.15-1.06,3.14-2.04c0.99-0.99,1.59-1.97,2.04-3.14c0.44-1.13,0.74-2.42,0.82-4.3c0.09-1.89,0.11-2.49,0.11-7.31
		s-0.02-5.42-0.11-7.31c-0.09-1.89-0.39-3.18-0.82-4.3c-0.45-1.17-1.06-2.15-2.04-3.14c-0.99-0.99-1.97-1.59-3.14-2.04
		c-1.13-0.44-2.42-0.74-4.3-0.82C23.15,0.02,22.54,0,17.73,0L17.73,0z"/>
	<path class="st0" d="M17.73,8.62c-5.03,0-9.1,4.08-9.1,9.1s4.08,9.1,9.1,9.1s9.1-4.08,9.1-9.1S22.76,8.62,17.73,8.62z M17.73,23.64
		c-3.26,0-5.91-2.65-5.91-5.91c0-3.26,2.65-5.91,5.91-5.91s5.91,2.65,5.91,5.91C23.64,20.99,20.99,23.64,17.73,23.64z"/>
	<circle class="st0" cx="27.19" cy="8.27" r="2.13"/>
</g>
</svg>
