<?xml version="1.0" encoding="utf-8"?>
<!-- Generator: Adobe Illustrator 25.2.1, SVG Export Plug-In . SVG Version: 6.00 Build 0)  -->
<svg version="1.1" id="Layer_1" xmlns="http://www.w3.org/2000/svg" xmlns:xlink="http://www.w3.org/1999/xlink" x="0px" y="0px"
	 viewBox="0 0 300 300" style="enable-background:new 0 0 300 300;" xml:space="preserve">
<style type="text/css">
	.st0{clip-path:url(#SVGID_2_);}
	.st1{clip-path:url(#SVGID_4_);fill:#9C500B;}
	.st2{clip-path:url(#SVGID_4_);fill:#874000;}
	.st3{clip-path:url(#SVGID_6_);fill:#322E3D;}
	.st4{clip-path:url(#SVGID_6_);fill:#FFFFFF;}
	.st5{clip-path:url(#SVGID_8_);fill:#322E3D;}
	.st6{clip-path:url(#SVGID_8_);fill:#9C500B;}
	.st7{clip-path:url(#SVGID_8_);fill:#874000;}
	.st8{clip-path:url(#SVGID_8_);fill:#452107;}
	.st9{clip-path:url(#SVGID_8_);fill:#FFFFFF;}
	.st10{clip-path:url(#SVGID_8_);fill:#28A428;}
	.st11{clip-path:url(#SVGID_8_);fill:#022650;}
	.st12{clip-path:url(#SVGID_8_);fill:#DCD5CD;}
	.st13{clip-path:url(#SVGID_8_);fill:#FFE17F;}
	.st14{clip-path:url(#SVGID_10_);fill:#322E3D;}
	.st15{clip-path:url(#SVGID_10_);fill:#FFFFFF;}
	.st16{clip-path:url(#SVGID_12_);fill:#022650;}
	.st17{clip-path:url(#SVGID_12_);fill:#874000;}
	.st18{clip-path:url(#SVGID_12_);fill:#FFFFFF;}
</style>
<g id="Artwork_14_1_">
	<g>
		<defs>
			<rect id="SVGID_1_" x="47.67" y="37.14" width="195.01" height="266.76"/>
		</defs>
		<clipPath id="SVGID_2_">
			<use xlink:href="#SVGID_1_"  style="overflow:visible;"/>
		</clipPath>
		<g class="st0">
			<defs>
				<rect id="SVGID_3_" x="47.67" y="37.14" width="195.01" height="266.76"/>
			</defs>
			<clipPath id="SVGID_4_">
				<use xlink:href="#SVGID_3_"  style="overflow:visible;"/>
			</clipPath>
			<path class="st1" d="M154.11,180.47c0,0-14.8,40.61-24.12,45.09c-11.97,5.74-66.96-12.23-66.96-12.23l1.91-5.62
				c0,0,18.71-0.51,23.49-1.02c6.73-0.72,19.21-1.03,23.55,0.37c4.34,1.4,6.24,0.73,7.6-1.55c1.36-2.28,3.4-13.88,5.95-24.29
				c2.55-10.41,12.1-27.11,12.1-27.11s9.99,7.77,10.51,8.3C148.67,162.93,154.11,180.47,154.11,180.47"/>
			<path class="st2" d="M122.57,222.53c-0.18,0-0.34-0.11-0.41-0.28c-0.08-0.23,0.03-0.48,0.26-0.56l4.61-1.71
				c0.23-0.08,0.48,0.03,0.56,0.26c0.08,0.23-0.03,0.48-0.26,0.56l-4.61,1.71C122.67,222.52,122.62,222.53,122.57,222.53"/>
		</g>
		<g class="st0">
			<defs>
				<path id="SVGID_5_" d="M56.8,205.96c-1.31,0.42-9.94,17.1-9.08,18.78c0.86,1.68,7.5-4.12,10.59-7.21c3.1-3.09,4.71-4.2,4.71-4.2
					l1.91-5.62c0,0-5.68-1.81-7.67-1.81C57.07,205.9,56.92,205.92,56.8,205.96"/>
			</defs>
			<clipPath id="SVGID_6_">
				<use xlink:href="#SVGID_5_"  style="overflow:visible;"/>
			</clipPath>
			<path class="st3" d="M64.94,207.71c0,0-6.83-2.17-8.13-1.76c-1.31,0.42-9.94,17.1-9.08,18.78c0.86,1.68,7.49-4.12,10.59-7.21
				c3.1-3.09,4.71-4.2,4.71-4.2L64.94,207.71z"/>
			<path class="st4" d="M60.53,217.27c-0.12,0-0.24-0.05-0.33-0.15c-0.11-0.13-0.99-1.55-1.7-2.72c-0.13-0.2-0.06-0.47,0.14-0.6
				c0.2-0.13,0.47-0.06,0.6,0.14c0.58,0.94,1.53,2.48,1.64,2.62c0.14,0.19,0.11,0.46-0.08,0.61
				C60.72,217.24,60.62,217.27,60.53,217.27"/>
			<path class="st4" d="M58.09,219.58c-0.12,0-0.24-0.05-0.33-0.15c-0.11-0.13-0.99-1.55-1.71-2.72c-0.13-0.2-0.06-0.47,0.14-0.6
				c0.2-0.13,0.47-0.06,0.6,0.14c0.57,0.94,1.53,2.48,1.64,2.62c0.14,0.19,0.11,0.46-0.07,0.61
				C58.28,219.54,58.18,219.58,58.09,219.58"/>
		</g>
		<g class="st0">
			<defs>
				<rect id="SVGID_7_" x="47.67" y="37.14" width="195.01" height="266.76"/>
			</defs>
			<clipPath id="SVGID_8_">
				<use xlink:href="#SVGID_7_"  style="overflow:visible;"/>
			</clipPath>
			<path class="st5" d="M211.49,56.85c-0.9-3.69-1.78-8.38-5.8-9.79c-2.22-0.78-4.53-0.26-6.8-0.77c-2.13-0.48-4.2-0.88-6.41-0.57
				c-2.76,0.39-5.97,2.19-5.97,5.03c-1.37,0.98-2.79,2.04-3.34,3.52c-0.87,2.33-0.16,5.2,0.34,7.52c0.59,2.72,0.32,5.15,2.5,7.27
				c0.35,0.34,1.08,0,0.88-0.51c-0.75-2-1.58-3.55-1.73-5.74c-0.04-0.51-0.11-1.01-0.2-1.5c0.05-0.01,0.09-0.02,0.13-0.04
				c0.01-0.01,0.02-0.01,0.03-0.02c0.04,0.02,0.06,0.06,0.11,0.08c0.99,0.48,1.79-0.5,2.36-1.74c0.09-0.13,0.17-0.27,0.24-0.42
				c1.03-1.28,1.99-2.61,3.24-3.72c1.15-1.03,2.41-1.93,3.85-2.49c0.04-0.02,0.08-0.03,0.12-0.04c0.75-0.18,1.51-0.32,2.29-0.36
				c0.14-0.01,0.24-0.06,0.33-0.12c0.65,0.07,1.35,0.06,2.04,0.04c1.08,0.38,2.12,0.92,2.82,1.38c0.2,0.13,0.39,0.06,0.5-0.08
				c0.54,0.24,1.1,0.41,1.62,0.5c0.28,0.4,0.56,0.8,0.87,1.18c0.16,0.2,0.37,0.24,0.56,0.18c0.08,0.16,0.17,0.31,0.26,0.47
				c0.06,0.11,0.21,0.32,0.39,0.59c0.3,0.9,0.65,1.78,1.23,2.58c-0.05,0.39-0.15,0.77-0.35,1.14c-0.1,0.06-0.19,0.16-0.24,0.31
				c-0.01,0.03-0.01,0.05-0.02,0.08c-0.11,0.14-0.23,0.29-0.38,0.43c-0.57,0.54-0.4,1.3,0.08,1.72c-0.23,0.32,0.11,0.82,0.5,0.7
				c0.43-0.14,0.81-0.34,1.15-0.59C211.19,62.12,212.11,59.35,211.49,56.85"/>
			<path class="st5" d="M190.96,48.27c-0.44-2.44-1.92-4.48-4.01-5.8c-2.6-1.64-5.31-1.75-8.29-1.9c-0.36-0.02-0.73-0.04-1.07-0.18
				c-0.43-0.18-0.75-0.55-1.09-0.87c-2.77-2.58-5.92-1.2-9.21-1.58c-3.56-0.41-7.01-1.61-10.46,0.02c-0.81,0.38-1.72,0.92-2.56,1.57
				c-3.54,1.93-6.08,5.91-4.34,9.92c1.06,2.44,3.73,4.11,6.32,4.3c1.73,0.12,3.68-0.94,5.1,0.11c1.25,0.92,1.8,2.02,3.34,2.58
				c1.63,0.59,3.17,0.55,4.78-0.04c1.33-0.49,2.38-1.19,3.84-1.03c1.06,0.11,1.79,0.64,2.8,0.88c1.78,0.42,3.74,0.26,5.4-0.49
				c0.59-0.26,1.18-0.53,1.75-0.84c0.59-0.32,1.1-0.81,1.68-1.12c0.87-0.46,1.74-0.91,2.53-1.5
				C189.37,52.37,191.41,50.75,190.96,48.27"/>
			<path class="st6" d="M186.11,293.76l-5.61,1.32c-2.46-6.91-4.84-13.84-7.16-20.8c-2.5-7.48-4.73-15.1-5.81-22.92
				c-0.55-3.96-0.8-7.96-0.7-11.95c0.05-2.21,0.67-4.72,0.49-6.86c-0.36-4.16-3.25-10.65-5.09-15.7c-0.49-1.32-0.9-2.55-1.18-3.61
				c-2.97-11.57-5.6-20.28-6.77-31.4l17.68-6.69l8.21-3.1c0.02,0.08,0.48,2.63,1.03,6.75c0.64,4.79,1.42,11.7,1.77,19.25
				c0.48,10.25-0.05,21.92,0.1,28.4c0.04,1.48,0.11,2.69,0.24,3.55C183.8,233.49,186.11,293.76,186.11,293.76"/>
			<path class="st6" d="M239.15,97.35c0,0-0.8,2.23-2.88,7.03c-2.82,6.5-6.22,16.59-10.19,22.55c-2.82,4.23-7.63,8.98-12.91,5.57
				c-5.48-3.54-9.72-8.58-13.34-13.95c-0.01-0.01-0.01-0.02-0.02-0.03c-0.19-0.29-0.39-0.57-0.58-0.85
				c-0.4-0.58-0.78-1.18-1.16-1.78c-1.41-2.22-2.88-4.2-4.28-6.27c-0.5-0.75-1.01-1.51-1.5-2.29c-0.25-0.4-0.51-0.8-0.74-1.22
				c-0.1-0.16-0.19-0.33-0.29-0.5c-0.81-1.43-1.81-3.09-2.53-4.86c-0.23-0.55-0.42-1.11-0.58-1.67c-0.21-0.76-0.34-1.53-0.37-2.3
				c-0.03-1.03,0.11-2.05,0.53-3.05c0.11-0.28,0.26-0.55,0.43-0.79c0.89-1.29,2.43-2.1,3.98-2.43c0.75-0.16,1.46-0.22,2.15-0.19
				c0.32,0.01,0.65,0.04,0.95,0.09c0.11,0.02,0.24,0.03,0.35,0.06c0.07,0.02,0.13,0.03,0.2,0.04c0.26,0.06,0.52,0.14,0.78,0.24
				c0.72,0.25,1.39,0.46,2.07,0.91c2.39,1.55,4.56,4.19,5.94,6.14c0.62,0.88,1.19,1.74,1.75,2.59c2.48,3.79,3.84,5.97,5.9,9.82
				c1.02,1.9,2.03,3.8,2.98,5.74c0.46,0.95,0.74,2.01,1.38,2.88c0.6-0.78,1.21-1.55,1.74-2.36c1.89-2.89,5.3-6.51,7.32-9.31
				c1.77-2.45,6.5-8.66,8.3-11.3c0.94-1.39,1.57-2.32,1.57-2.32s1.47,1.49,1.67,2.61c0.07,0.4,1.19,1.12,1.33,1.21L239.15,97.35z"/>
			<path class="st6" d="M234.69,96.15c0,0-1.7-3.96-1.59-5.39c0.11-1.44,1.12-1.45,1.49-2.19c0.37-0.75,0.29-3.59,1.67-3.67
				c1.38-0.08,4.98,0.97,5.97,2.76c0.98,1.79,0.11,5.07-0.57,6.19c-1.16,1.91-2.51,3.51-2.51,3.51L234.69,96.15z"/>
			<path class="st7" d="M206.7,111.3c-0.87,5.02-2.49,9.16-3.56,11.52c-0.03-0.03-0.04-0.05-0.07-0.08
				c-1.16-1.33-2.22-2.75-3.23-4.19c-0.01-0.01-0.01-0.02-0.02-0.03c-0.19-0.29-0.39-0.57-0.58-0.85c-0.4-0.58-0.78-1.18-1.16-1.78
				c-1.41-2.22-2.88-4.2-4.28-6.27c-0.51-0.75-1.01-1.51-1.5-2.29c0.05-0.33,0.1-0.68,0.16-1.04c0.43-2.81,0.85-6.32,1.19-9.1
				c0.08-0.67,0.16-1.3,0.23-1.86c0.18-1.42,0.32-2.45,0.41-2.8c0.02-0.04,0.03-0.08,0.05-0.12c0.14-0.34,0.76-1.14,1.52-2.01
				c0.11,0.02,0.24,0.03,0.35,0.06c0.06,0,0.12,0.01,0.18,0.03c0.27,0.04,0.54,0.1,0.81,0.17c0.38,0.09,0.77,0.18,1.15,0.3
				l0.92,0.69c2.39,1.55,4.56,4.19,5.94,6.14c0.62,0.88,1.19,1.74,1.75,2.59C207.37,104.01,207.22,108.27,206.7,111.3"/>
			<path class="st6" d="M155.61,124.31c0,0-1.27,5.45-3.3,9.51c-2.03,4.07-7.85,11.19-7.85,11.19s16.56,12.06,17,12.06
				c0.44,0,17.35-3.05,17.35-3.05l11.55-19.68c0,0-11.04-9.51-12.93-10.02C175.55,123.8,155.61,124.31,155.61,124.31"/>
			<path class="st6" d="M208.02,64.65c-0.04,0.47-0.1,0.98-0.17,1.52c-0.3,2.17-0.93,4.85-2.13,8.03
				c-2.37,6.35-6.97,8.06-10.12,7.66c-5.13-0.65-7.42-6.57-8.62-10.16c-1.19-3.6,0-11.33,0-11.33s5.23-9.15,13.19-7.52
				c7.96,1.63,7.52,6.42,7.52,6.42S208.32,61.07,208.02,64.65"/>
			<path class="st6" d="M197.28,91.74l-8.76,9.26l-12.2-5.56l-4.25-11.54c0,0,4.36-1.31,7.84-4.15c3.49-2.82,7.08-19.38,7.08-19.38
				l9.64,18.08c0,0-0.6,0.96-1.3,2.17c-0.2,0.36-0.41,0.72-0.6,1.08h-0.01c-0.21,0.39-0.43,0.79-0.62,1.2
				c-0.24,0.51-0.65,1.18-0.79,1.8c-0.05,0.18-0.07,0.35-0.06,0.51C193.35,86.39,197.28,91.74,197.28,91.74"/>
			<path class="st6" d="M189.22,63.13c0,0-0.49-4.09-3.11-3.11c-2.61,0.98-2.62,5.94-1.45,7.49c1.18,1.55,1.34,1.88,1.45,1.72
				C186.23,69.07,189.22,63.13,189.22,63.13"/>
			<path class="st8" d="M195.19,65.24c-0.05-0.22-0.16-0.41-0.37-0.5c-0.61-0.25-0.83,0.53-0.84,0.98c-0.01,0.4,0.22,0.77,0.66,0.74
				c0.33-0.02,0.51-0.31,0.56-0.62C195.22,65.67,195.23,65.44,195.19,65.24"/>
			<path class="st8" d="M206.76,68.13c-0.04-0.2-0.14-0.37-0.33-0.45c-0.55-0.22-0.75,0.48-0.76,0.88c-0.01,0.36,0.2,0.7,0.59,0.67
				c0.3-0.02,0.46-0.28,0.5-0.56C206.79,68.52,206.8,68.31,206.76,68.13"/>
			<path class="st5" d="M208.57,60.89c-0.12-0.07-0.22-0.15-0.33-0.23c0.47-3.31-2.02-6.36-4.97-7.65
				c-3.5-1.53-8.28-1.23-11.38,0.99c-0.81,0.58-4.22,3.08-4.76,4.95c-0.2-0.08-0.43,0.09-0.39,0.34c0.1,0.71,0.51,1.52,1.14,1.9
				c0.83,0.51,1.53,0.04,2.21-0.48c1.08-0.81,1.94-1.76,2.86-2.74c0.89-0.94,2.06-1.46,3.33-1.68c1.91-0.34,3.1,1.19,4.89,1.5
				c2.12,0.37,3.54-0.13,4.97,1.97c0.59,0.87,0.95,1.76,2.07,1.96C208.7,61.81,209.05,61.16,208.57,60.89"/>
			<path class="st5" d="M196.61,61.99c-0.07-0.03-0.15-0.05-0.22-0.08c-1.01-0.33-2.1-0.52-3.13-0.26
				c-0.41,0.11-0.98,0.45-0.62,0.95c0.36,0.5,1.45,0.38,1.98,0.41c0.56,0.03,1.09,0.19,1.62,0.34c0.36,0.1,0.91,0.36,1.13-0.09
				c0.16-0.31,0.02-0.75-0.24-0.97C196.99,62.15,196.8,62.06,196.61,61.99"/>
			<path class="st5" d="M208.02,64.65c-0.04,0.47-0.1,0.98-0.17,1.52c-0.48-0.23-1-0.35-1.52-0.47c-0.36-0.09-0.97-0.13-0.95-0.64
				c0.02-0.34,0.36-0.66,0.68-0.73c0.2-0.04,0.41-0.03,0.61,0c0.08,0.01,0.16,0.03,0.24,0.03
				C207.28,64.43,207.66,64.53,208.02,64.65"/>
			<path class="st9" d="M200.62,74.77c-0.48-0.18-1.36-0.27-1.83-0.46c-0.64-0.26-1.43-1.45-2.2-1.38
				c-0.57,0.05-0.81,0.62-0.72,1.14c0.11,0.65,0.59,1.27,1.09,1.69c0.65,0.53,1.76,0.84,2.67,0.78c0.48-0.03,1.3-0.24,1.48-0.7
				C201.3,75.37,201.08,74.94,200.62,74.77"/>
			<path class="st7" d="M194.71,81.69c-0.21,0.39-0.43,0.79-0.62,1.2c-0.25,0.51-0.65,1.18-0.79,1.8c-0.78-0.51-1.76-1.31-2.57-2.33
				c-1.53-1.92-1.92-3.99-1.06-4.37c0.51-0.22,1.68,1.46,2.47,2.12C193.83,81.53,194.61,81.64,194.71,81.69"/>
			<path class="st10" d="M201.96,112.32c-0.21,1.6-1.03,3.81-2.14,6.21c-3.18,6.87-8.8,15.31-9.45,15.8
				c-0.87,0.65-14.71-1.53-21.69-3.92c-3.4-1.17-6.34-2.29-8.58-3.3c-1.03-0.46-1.91-0.91-2.62-1.33c-0.91-0.53-1.56-1.03-1.87-1.46
				c-0.64-0.9,0.54-13.54,2.69-24.33c1.53-7.62,3.55-14.32,5.77-15.3c0.51-0.23,2.43-0.63,4.57-1.03c1.68-0.32,3.5-0.65,4.86-0.89
				c1.32-0.23,2.22-0.38,2.22-0.38s1.97,14.69,11.03,14.47c0.36-0.01,0.71-0.03,1.04-0.07c3.82-0.38,5.63-2.33,6.48-4.24
				c0.02-0.04,0.03-0.08,0.05-0.12c0.31-0.74,0.48-1.47,0.57-2.1c0.16-1.02,0.1-1.78,0.09-1.87v-0.01l2.29,1.73l1.06,0.8l0.92,0.69
				C199.26,91.65,202.72,106.49,201.96,112.32"/>
			<path class="st11" d="M180.56,172.14c-2.94,6.21-9.93,4.99-11.38,4.33c-1.45-0.65-16.48-9.51-24.71-8.86
				c-1.93,0.15-3.81,0.6-5.66,1.14c-0.56,0.17-1.13,0.36-1.71,0.53c-0.85,0.26-1.71,0.49-2.58,0.52c-0.85,0.03-1.52-0.21-2.06-0.65
				c-1.6-1.28-1.94-4.24-1.8-6.13c0.29-3.94,1.57-8.19,3.76-11.49c3.11-4.68,12.67-9.89,12.67-9.89s0.77,0.73,2.01,1.82
				c0.91,0.8,2.1,1.8,3.42,2.85c3.49,2.75,7.97,5.8,11.25,6.42c12.78,2.45,16-0.38,16-0.38S180.94,171.34,180.56,172.14"/>
			<path class="st7" d="M202.12,71.85c-0.01-0.06-0.03-0.12-0.04-0.18c-0.14-0.49-0.36-0.96-0.5-1.46
				c-0.15-0.49-0.16-0.83-0.11-1.52c0.03-0.38,0.26-1.14,0.21-1.28c-0.22-0.57-0.83,0.64-0.91,0.86c-0.45,1.11-1.2,4.23,0.59,4.6
				C202.1,73.03,202.24,72.44,202.12,71.85"/>
			<path class="st7" d="M172.39,138.87c-0.36,0.37-0.7,0.77-0.9,1.24c0,0,0,0.01,0,0.01c-0.05,0.11-0.09,0.22-0.12,0.34
				c-0.03,0.12-0.01,0.23,0.03,0.32c0.08,0.29,0.45,0.45,0.71,0.29c0.06-0.04,0.1-0.09,0.16-0.13c0.02-0.01,0.03-0.02,0.05-0.03
				c0.09-0.04,0.15-0.1,0.19-0.17c0.36-0.38,0.59-0.87,0.76-1.37C173.42,138.88,172.74,138.5,172.39,138.87"/>
			<path class="st9" d="M193.78,107.14c-0.03-0.15-0.08-0.3-0.18-0.42c-0.18-0.2-0.46-0.27-0.72-0.32
				c-5.44-1.12-10.87-2.24-16.31-3.35c-0.3-0.06-0.61-0.12-0.91-0.05c-0.94,0.22-1.13,1.46-1.15,2.43
				c-0.09,3.69-0.76,7.37-1.97,10.86c-0.25,0.73-0.51,1.62-0.02,2.22c0.19,0.23,0.47,0.37,0.74,0.5c4.58,2.18,9.82,1.9,14.62,3.35
				c0.35,0.11,0.75,0.21,1.07,0.04c0.23-0.13,0.37-0.38,0.49-0.61c2.35-4.49,4.77-9.29,4.4-14.34
				C193.81,107.33,193.8,107.23,193.78,107.14"/>
			<path class="st7" d="M183.06,226.46c-7.29-2.2-15.32-6.41-20.84-9.6c-0.49-1.32-0.9-2.55-1.18-3.61
				c-2.97-11.57-5.6-20.28-6.77-31.4l17.68-6.69c2.98,0.98,6.17,2.31,9.24,3.64c0.65,4.79,1.42,11.7,1.77,19.25
				C183.43,208.3,182.9,219.97,183.06,226.46"/>
			<path class="st12" d="M185.21,107.5c-0.75,0.91-1.63,1.72-2.35,2.65c-0.38,0.49,0.13,1.3,0.73,0.9c0.17-0.11,0.33-0.24,0.49-0.36
				c-0.62,2.16-1.1,4.39-1.82,6.49c-0.51-0.15-1.04-0.3-1.55-0.16c-0.35,0.1-0.47,0.68-0.09,0.84c0.64,0.27,1.35,0.39,2.01,0.6
				c0.57,0.18,1.1,0.44,1.71,0.29c0.5-0.12,0.41-0.81-0.02-0.95c-0.26-0.09-0.53-0.16-0.8-0.24c0.5-1.43,0.88-2.92,1.36-4.37
				c0.52-1.57,0.77-3.37,1.44-4.87C186.6,107.65,185.75,106.85,185.21,107.5"/>
			<path class="st5" d="M164.61,96.87c-0.11,2.38-0.21,4.75-0.33,7.11c-0.18,3.62-0.41,7.23-0.8,10.87
				c-0.46,4.19-1.74,8.32-3.37,12.25c-1.03-0.46-1.91-0.91-2.62-1.33c0.67-1.6,1.37-3.18,1.88-4.82c1.1-3.48,1.63-7.11,1.96-10.74
				c0.31-3.41,0.76-6.96,0.54-10.38c-0.11-1.65-0.25-3.8,1.08-5.04c0.38-0.35,0.92-0.08,0.98,0.41c0.03,0.41,0.05,0.84,0.09,1.25
				C164.29,96.37,164.64,96.45,164.61,96.87"/>
			<path class="st6" d="M173.3,86.5c-0.16-0.25-0.35-0.49-0.56-0.71c-3.13-3.22-8.67-2.81-12.4-2.4c-4.25,0.46-7.99,1.19-12.21,1.87
				c-4.93,0.79-15.91,3.03-19.89,6.39c-4.77,4.03-5.19,16.58-5.68,22.34c-0.63,7.52-0.4,15.08-0.16,22.61
				c0.01,0.37,0.03,0.76,0.22,1.07c0.31,0.51,0.97,0.66,1.56,0.77c0.79,0.14,1.73,0.24,2.28-0.34c0.25-0.27,0.37-0.64,0.47-0.99
				c3.03-10.04,6.05-24.99,9.08-35.03c0.06-0.19,0.12-0.38,0.26-0.51c0.98-0.9,3.07-0.59,4.31-0.65c2.15-0.11,8.72-0.28,10.87-0.47
				c7.13-0.61,20.61-0.03,22.49-9.32C174.27,89.56,174.13,87.82,173.3,86.5"/>
			<path class="st6" d="M127,135.32c0,0,2.67,3.38,2.94,4.79c0.27,1.42-0.71,1.69-0.87,2.51c-0.16,0.82,0.65,3.54-0.65,3.98
				c-1.31,0.44-5.07,0.36-6.48-1.11c-1.42-1.47-1.43-4.87-1.07-6.12c0.62-2.15,1.51-4.04,1.51-4.04H127z"/>
			<path class="st5" d="M197.28,90.16c-0.61,3.98-2.93,9.63-11.27,8.87c-10.41-0.95-12.2-12.22-12.51-16.26
				c1.32-0.23,2.22-0.38,2.22-0.38s1.97,14.69,11.03,14.47c9.06-0.22,8.23-8.42,8.23-8.42L197.28,90.16z"/>
			<path class="st7" d="M135.61,100.88c-0.15,0-0.29-0.07-0.37-0.21l-2.4-3.91c-0.13-0.21-0.06-0.47,0.14-0.6
				c0.2-0.13,0.47-0.06,0.6,0.14l2.4,3.91c0.13,0.2,0.06,0.47-0.14,0.6C135.76,100.86,135.68,100.88,135.61,100.88"/>
			<path class="st7" d="M185.66,66.49c-0.12,0-0.23-0.05-0.32-0.14c-0.16-0.18-0.15-0.45,0.02-0.62c0.01-0.01,0.57-0.54,1-1.42
				c0.67-1.36,0.6-2.54,0.6-2.55c-0.02-0.24,0.17-0.45,0.41-0.46c0.25-0.02,0.45,0.16,0.46,0.4c0,0.06,0.09,1.41-0.69,2.99
				c-0.51,1.04-1.17,1.65-1.19,1.68C185.87,66.45,185.76,66.49,185.66,66.49"/>
			<path class="st13" d="M187.44,47.69c-1.15,0.51-1.97,1.74-2.66,2.75c-0.42,0.62-1.18,1.52-0.73,2.3c0.15,0.26,0.55,0.4,0.8,0.21
				c0.03-0.02,0.06-0.05,0.1-0.08c0.11-0.04,0.21-0.1,0.27-0.2c0.49-0.67,0.96-1.36,1.46-2.02c0.49-0.64,1.1-1.14,1.63-1.75
				C188.99,48.11,188.43,47.25,187.44,47.69"/>
		</g>
		<g class="st0">
			<defs>
				<path id="SVGID_9_" d="M180.49,295.09c0,0,0.22,7.8,1.29,8.65c1.07,0.85,20.45-1.79,21.37-3.44c0.92-1.65-6.75-4.13-11.04-4.98
					c-4.29-0.85-6.01-1.56-6.01-1.56L180.49,295.09z"/>
			</defs>
			<clipPath id="SVGID_10_">
				<use xlink:href="#SVGID_9_"  style="overflow:visible;"/>
			</clipPath>
			<path class="st14" d="M180.49,295.08c0,0,0.22,7.8,1.29,8.65c1.07,0.85,20.45-1.79,21.37-3.44c0.92-1.65-6.75-4.13-11.04-4.98
				c-4.29-0.85-6.01-1.56-6.01-1.56L180.49,295.08z"/>
			<path class="st15" d="M188.45,296.86c-0.06,0-0.12-0.01-0.18-0.04c-0.22-0.1-0.32-0.35-0.22-0.57c0.45-1.01,1.17-2.67,1.23-2.84
				c0.08-0.22,0.32-0.35,0.54-0.28c0.23,0.07,0.36,0.3,0.29,0.52c-0.04,0.16-0.72,1.69-1.27,2.95
				C188.78,296.76,188.62,296.86,188.45,296.86"/>
			<path class="st15" d="M191.73,297.56c-0.06,0-0.12-0.01-0.18-0.04c-0.22-0.1-0.32-0.35-0.22-0.57c0.45-1.01,1.17-2.66,1.23-2.84
				c0.08-0.22,0.32-0.35,0.54-0.28c0.23,0.07,0.36,0.3,0.3,0.52c-0.04,0.16-0.72,1.69-1.27,2.95
				C192.06,297.47,191.9,297.56,191.73,297.56"/>
		</g>
		<g class="st0">
			<defs>
				<rect id="SVGID_11_" x="47.67" y="37.14" width="195.01" height="266.76"/>
			</defs>
			<clipPath id="SVGID_12_">
				<use xlink:href="#SVGID_11_"  style="overflow:visible;"/>
			</clipPath>
			<path class="st16" d="M134.41,151.55c0,0-5.19,8.74-7.23,14.55c-2.04,5.81-5.16,11.55-5.01,12.71c0.16,1.3,2.22,2.25,3.18,2.87
				c1.62,1.03,3.12,2.24,4.72,3.29c6.09,4,12.81,6.71,19.98,8c1.69,0.3,4.76-14.82,7.43-17.14c2.67-2.32,5.14-6.83,5.14-6.83
				s-11.48-9.14-12.35-9.66C149.4,158.83,134.41,151.55,134.41,151.55"/>
			<path class="st16" d="M179.78,152.36c0,0,5.66,26.37,5.61,40.61c-0.01,2.28-13.48,3.7-18.78,3.12
				c-5.3-0.58-12.86-1.52-13.65-2.91c-0.36-0.62-4.82-20.93-4.82-20.93s8.23-2.1,9.54-3.26c1.31-1.16,2.18-3.2,3.2-3.27
				c1.02-0.07,5.08-0.44,7.04,0C169.88,166.16,179.78,152.36,179.78,152.36"/>
			<path class="st17" d="M179.55,234.57c-0.12,0-0.23-0.04-0.32-0.14l-2.76-2.9c-0.17-0.18-0.16-0.45,0.02-0.62s0.45-0.16,0.62,0.02
				l2.76,2.9c0.17,0.17,0.16,0.45-0.02,0.62C179.77,234.53,179.66,234.57,179.55,234.57"/>
			<path class="st17" d="M125.54,184.18c0,0,3.4-4.57,4.41-4.27c1.52,0.46,0.68,6.6,0.68,6.6L125.54,184.18z"/>
			<path class="st18" d="M152.77,188.67c-0.09,0-0.19-0.03-0.27-0.09c-0.19-0.15-0.22-0.42-0.07-0.61l7.3-9.33
				c0.15-0.19,0.42-0.22,0.61-0.07c0.19,0.15,0.22,0.42,0.07,0.61l-7.3,9.33C153.03,188.61,152.9,188.67,152.77,188.67"/>
		</g>
	</g>
</g>
</svg>
