<?xml version="1.0" encoding="utf-8"?>
<!-- Generator: Adobe Illustrator 25.2.1, SVG Export Plug-In . SVG Version: 6.00 Build 0)  -->
<svg version="1.1" id="Layer_1" xmlns="http://www.w3.org/2000/svg" xmlns:xlink="http://www.w3.org/1999/xlink" x="0px" y="0px"
	 viewBox="0 0 100.2 97.69" style="enable-background:new 0 0 100.2 97.69;" xml:space="preserve">
<style type="text/css">
	.st0{fill:#FDDFAB;}
	.st1{fill:#FF823E;}
	.st2{fill:#964920;}
	.st3{fill:#022650;}
	.st4{fill:#1D2236;}
	.st5{fill:#7D360F;}
	.st6{fill:#FFFFFF;}
	.st7{fill:#F06C24;}
	.st8{fill:#28A428;}
	.st9{fill:#105078;}
	.st10{fill:#1D6490;}
	.st11{fill:#FDB653;}
	.st12{fill:#EA96ED;}
	.st13{fill:#E86D61;}
	.st14{fill:#BD3D06;}
	.st15{fill:#FFCB82;}
</style>
<g>
	<path class="st0" d="M91.2,29.31c-0.16-0.73-0.52-1.42-0.72-2.14c-0.36-1.27-0.28-2.68-0.9-3.85c-0.9-1.68-2.94-2.31-4.32-3.61
		c-0.87-0.82-1.47-1.87-2.18-2.83c-0.74-0.99-1.61-1.69-2.69-2.26c-0.37-0.2-0.76-0.38-1.15-0.54c-0.76-0.32-1.55-0.56-2.36-0.66
		c-1.58-0.21-3.28,0.14-4.47,1.2c-0.69,0.62-1.23,1.4-1.75,2.18c-0.53,0.79-0.45,2.31-0.29,3.42c0.16,1.09,0.52,2.15,0.96,3.16
		c0.44,1.01,1.4,1.94,2.47,1.79c0.05-0.01,0.1-0.02,0.14-0.04c0.14-0.08,0.15-0.28,0.06-0.42c-0.08-0.13-0.22-0.22-0.35-0.3
		c-1.1-0.7-1.86-1.92-2-3.23c1.26,0.1,2.43,0.97,2.91,2.15c0.54,1.33,0.23,2.88,0.67,4.25c0.44,1.37,1.57,2.39,2.24,3.67
		c0.29,0.56,0.51,1.19,0.97,1.61c0.68,0.63,1.7,0.64,2.58,0.94c1.11,0.38,2.13,1.28,3.3,1.14c0.79-0.1,1.44-0.65,2.18-0.98
		c1-0.44,2.16-0.46,3.12-0.98c1.13-0.62,1.82-1.97,1.67-3.26C91.25,29.56,91.23,29.43,91.2,29.31z"/>
</g>
<g>
	<polygon class="st1" points="60.91,9.05 59.29,9.89 60.87,14.96 63.17,13.73 	"/>
</g>
<g>
	<polygon class="st1" points="29.99,92.64 32.06,92.5 32.15,89.65 29.71,89.53 	"/>
</g>
<g>
	<polygon class="st1" points="11.35,92.41 13.35,92.96 14.35,90.29 12.08,89.38 	"/>
</g>
<g>
	<polygon class="st2" points="46.31,5.67 47.16,7.44 45.96,9.88 43.93,8.67 	"/>
</g>
<g>
	<path class="st2" d="M46.29,6.82c0,0-0.19-0.87-0.18-1.23c0.01-0.36,0.2-0.44,0.66-0.61c0.46-0.17,0.7-0.29,0.89-0.4
		c0.19-0.11,0.94-0.33,1.27,0.19c0.09,0.13,0.14,0.93,0.17,1.09c0.03,0.16,0.32,0.84,0.11,1.19c-0.22,0.35-1.17,0.72-1.61,0.82
		C47.02,8,46.49,7.8,46.49,7.8L46.29,6.82z"/>
</g>
<g>
	<path class="st1" d="M60.81,9.74c0,0,0.16-0.6,0.25-0.95c0.09-0.35,0.26-0.56-0.06-1.1c-0.26-0.42-0.73-0.34-0.88-0.5
		c-0.16-0.16-0.81-0.58-1.27-0.18c-0.12,0.1-0.39,0.85-0.46,1c-0.07,0.14-0.54,0.72-0.43,1.12c0.11,0.4,0.92,1.02,1.32,1.25
		c0.51,0.29,1.08,0.25,1.08,0.25L60.81,9.74z"/>
</g>
<g>
	<polygon class="st1" points="96.59,15.3 95.16,14.15 91.26,17.71 93.32,19.32 	"/>
</g>
<g>
	<polygon class="st2" points="2.96,30.13 1.79,31.53 3.43,33.69 5.18,32.11 	"/>
</g>
<g>
	<path class="st3" d="M17.82,49.51c0,0-2.13,13.57-2.89,17.94c-0.76,4.38-4.21,21.67-3.83,22.1c0.38,0.44,3.67,1.59,4.1,1.15
		c0.43-0.44,6.3-18.41,7.16-20.81c0.86-2.41,3.99-14.31,3.99-14.31l-1.03-6.67L17.82,49.51z"/>
</g>
<g>
	<path class="st3" d="M33.7,49.13c0,0,0.43,9.79,0.38,15.15c-0.05,5.36-0.81,24.73-1.08,25.6c-0.27,0.88-3.73,0.93-4.27,0.55
		c-0.54-0.38-0.92-11.82-0.97-14.12c-0.05-2.3-3.29-20.68-3.29-20.68l-0.86-5.36L33.7,49.13z"/>
</g>
<g>
	<g>
		<path class="st4" d="M29.66,15.54c0.17-0.42,0.02-0.92-0.26-1.27c-0.14-0.19-0.33-0.35-0.41-0.58c-0.11-0.3,0-0.63-0.03-0.94
			c-0.03-0.36-0.23-0.71-0.53-0.9c-0.31-0.2-0.71-0.24-1.08-0.23c-0.37,0.02-0.74,0.09-1.12,0.09c-0.59-0.01-1.21-0.2-1.76,0.03
			c-0.45,0.19-0.75,0.62-1.17,0.87c-0.26,0.16-0.55,0.24-0.8,0.39c-0.34,0.2-0.61,0.54-0.75,0.91c-0.13,0.36-0.21,0.77-0.09,1.13
			c-0.43,0.23-0.58,0.79-0.54,1.28c0.07,1.08,0.74,2.01,1.1,3.02c0.11,0.32,0.2,0.66,0.34,0.97c0.21,0.47,0.56,0.86,0.89,1.24
			c0.08,0.09,0.25,0.18,0.3,0.06c0.02-0.04,0-0.09-0.01-0.13c-0.06-0.18-0.11-0.35-0.17-0.53c0.14-0.12,0.13-0.34,0.11-0.52
			c-0.06-0.48-0.12-0.95-0.18-1.43c-0.05-0.39-0.1-0.77-0.24-1.14c-0.21-0.55-0.61-1.05-0.58-1.63c0-0.06,0.03-0.15,0.09-0.15
			c0.32,0.52,0.99,0.71,1.59,0.71c0.61,0,1.21-0.14,1.81-0.09c0.7,0.06,1.37,0.36,2.07,0.4c0.27,0.01,0.56-0.01,0.8-0.15
			c0.24-0.13,0.43-0.39,0.43-0.66c0-0.12-0.03-0.24-0.01-0.36c0.02-0.13,0.1-0.23,0.16-0.34C29.64,15.58,29.65,15.56,29.66,15.54z"
			/>
	</g>
	<g>
		<path class="st2" d="M29.12,19.7c-0.04,0.42-0.12,0.84-0.26,1.23c-0.2,0.54-0.54,1.05-1.06,1.29c-0.37,0.17-0.78,0.17-1.19,0.15
			c-0.57-0.03-1.16-0.12-1.66-0.41c-0.8-0.45-1.28-1.3-1.66-2.14c-0.26-0.57-0.49-1.16-0.61-1.78c-0.29-1.53,0.26-3.15,1.64-3.92
			c0.77-0.43,1.68-0.56,2.56-0.49c0.25,0.02,0.5,0.06,0.71,0.2c0.23,0.15,0.38,0.41,0.51,0.66c0.59,1.18,0.9,2.49,1.01,3.81
			C29.14,18.77,29.16,19.24,29.12,19.7z"/>
	</g>
	<g>
		<path class="st2" d="M27.45,21.51l-0.02,0.83l-0.03,1.2l-0.05,1.93l-1.88,2.22l-3.1-1.31c0,0,0.97-1.93,1.03-2.73
			c0.06-0.8-0.08-4.1-0.08-4.1L27.45,21.51z"/>
	</g>
	<g>
		<path class="st2" d="M22.87,17.73c0,0-1.2,0.31-0.61,1.66s2.27,0.72,2.27,0.72L22.87,17.73z"/>
	</g>
	<g>
		<path class="st4" d="M24.87,17.16c-0.16,0.02-0.19,0.26-0.12,0.39c0,0.01,0.01,0.01,0.01,0.02c0.03,0.07,0.09,0.14,0.18,0.14
			c0.1,0,0.16-0.09,0.17-0.18C25.13,17.39,25.06,17.14,24.87,17.16z"/>
	</g>
	<g>
		<path class="st4" d="M28.09,16.77c-0.16,0.02-0.19,0.26-0.12,0.39c0,0.01,0.01,0.01,0.01,0.02c0.03,0.07,0.09,0.14,0.18,0.14
			c0.1,0,0.16-0.09,0.17-0.18C28.35,17,28.28,16.75,28.09,16.77z"/>
	</g>
	<g>
		<path class="st5" d="M27.43,22.33l-0.03,1.2c-0.21-0.1-0.61-0.28-0.85-0.35c-0.35-0.1-0.68-0.06-1.09-0.32
			c-0.41-0.25-0.32-0.59-0.18-0.7c0.14-0.11,0.42-0.05,0.96,0.1C26.78,22.4,27.43,22.33,27.43,22.33z"/>
	</g>
	<g>
		<path class="st5" d="M27.42,19.03c-0.03,0-0.06-0.01-0.08-0.02c-0.08-0.05-0.1-0.15-0.05-0.23c0.08-0.13,0.15-0.29,0.15-0.35
			c-0.05-0.1-0.37-0.53-0.65-0.91c-0.05-0.07-0.04-0.17,0.03-0.23c0.07-0.06,0.17-0.04,0.23,0.03c0.15,0.19,0.63,0.84,0.7,0.98
			c0.08,0.18-0.07,0.49-0.17,0.65C27.53,19,27.47,19.03,27.42,19.03z M27.44,18.44L27.44,18.44L27.44,18.44z"/>
	</g>
	<g>
		<path class="st6" d="M27.53,19.71c0,0-0.01,0-0.01,0c-0.38-0.04-0.77-0.08-1.16-0.05c-0.07,0-0.15,0.01-0.21,0.04
			c-0.21,0.11-0.1,0.37,0.02,0.5c0.08,0.09,0.19,0.15,0.3,0.19c0.28,0.11,0.61,0.12,0.9,0.01c0.17-0.06,0.33-0.16,0.4-0.32
			c0.04-0.09,0.05-0.2-0.01-0.28C27.71,19.74,27.62,19.72,27.53,19.71z"/>
	</g>
	<g>
		<path class="st4" d="M24.01,16.38c0-0.01,0.01-0.01,0.01-0.02c0.07-0.12,0.2-0.19,0.32-0.24c0.17-0.07,0.35-0.13,0.54-0.15
			c0.11-0.01,0.22,0,0.32,0.04c0.08,0.04,0.15,0.11,0.15,0.2c0,0.06-0.04,0.12-0.09,0.16c-0.05,0.04-0.11,0.06-0.17,0.07
			c-0.15,0.03-0.31,0.02-0.46,0.05c-0.12,0.02-0.24,0.07-0.35,0.11c-0.05,0.02-0.09,0.04-0.14,0.03
			C24.01,16.63,23.97,16.49,24.01,16.38z"/>
	</g>
	<g>
		<path class="st4" d="M28.85,15.69c0-0.01-0.01-0.01-0.01-0.02c-0.1-0.1-0.24-0.13-0.37-0.16c-0.18-0.03-0.37-0.04-0.56-0.01
			c-0.11,0.02-0.21,0.05-0.3,0.12c-0.07,0.05-0.12,0.14-0.1,0.23c0.01,0.06,0.07,0.11,0.12,0.13c0.06,0.02,0.12,0.03,0.18,0.02
			c0.15-0.01,0.3-0.06,0.45-0.07c0.12-0.01,0.24,0.01,0.36,0.03c0.05,0.01,0.1,0.01,0.15,0C28.91,15.93,28.92,15.78,28.85,15.69z"/>
	</g>
	<g>
		<path class="st4" d="M28.33,13.89c-0.18-0.39-1.14-0.56-1.45-0.61c-0.88-0.13-1.47,0.35-2.3,0.56c-0.66,0.17-1.3,0.2-1.72,0.76
			c-0.06,0.01-0.11,0.05-0.12,0.12c0,0.03,0,0.05-0.01,0.08c-0.14,0.25-0.2,0.53-0.24,0.81c-0.07,0.46-0.19,0.91-0.26,1.36
			c-0.02,0.15,0,0.3,0.06,0.43c-0.04,0.05-0.06,0.14,0,0.2c0.31,0.37,0.95,0.86,1.08,0.12c0.09-0.52-0.05-1.07-0.1-1.6
			c0.07-0.63,0.17-1.33,0.94-1.43c0.32-0.04,0.65,0.11,0.98,0.08c0.54-0.06,0.91-0.5,1.45-0.55c0.41-0.04,0.79,0.22,1.19,0.22
			C28.12,14.44,28.49,14.25,28.33,13.89z"/>
	</g>
</g>
<g>
	<path class="st1" d="M77.97,20.58c-0.17,0.61-0.44,1.18-0.75,1.73c-0.45,0.81-1,1.25-1.83,1.63c-0.52,0.24-1.89,0.66-2.7,0.23
		c-1.29-0.7-1.27-2.04-1.27-2.46c0-0.46,0.05-0.93,0.12-1.39c0.12-0.73,0.3-1.45,0.56-2.14c0.05-0.13,0.1-0.26,0.16-0.4
		c0.17-0.41,0.37-0.8,0.59-1.17c0.14-0.24,0.31-0.49,0.56-0.62c0.22-0.12,0.48-0.14,0.73-0.14c0.88,0,1.78,0.2,2.51,0.7
		C77.96,17.42,78.38,19.08,77.97,20.58z"/>
</g>
<g>
	<path class="st1" d="M77.61,28.91l-3.19,1.05l-1.7-2.36l0.11-1.93l0.01-0.22l0.05-0.98l0.01-0.21l0.03-0.61l4.28-1.62
		c0,0-0.41,3.28-0.41,4.08C76.79,26.91,77.61,28.91,77.61,28.91z"/>
</g>
<g>
	<path class="st1" d="M77.8,20.26c0,0,1.17,0.41,0.47,1.71c-0.69,1.3-2.32,0.53-2.32,0.53L77.8,20.26z"/>
</g>
<g>
	<path class="st4" d="M75.94,19.75c0.15,0.03,0.16,0.26,0.08,0.38c0,0.01-0.01,0.01-0.01,0.02c-0.04,0.07-0.1,0.12-0.18,0.11
		c-0.09-0.01-0.14-0.1-0.14-0.18C75.68,19.94,75.77,19.72,75.94,19.75z"/>
</g>
<g>
	<path class="st4" d="M72.6,18.95c0.16,0.03,0.17,0.27,0.08,0.39c0,0.01-0.01,0.01-0.01,0.02c-0.04,0.07-0.1,0.13-0.19,0.12
		c-0.1-0.01-0.14-0.1-0.15-0.19C72.33,19.14,72.42,18.91,72.6,18.95z"/>
</g>
<g>
	<path class="st7" d="M74.82,24.95c-0.43,0.22-0.76,0.16-1.12,0.22c-0.24,0.05-0.64,0.19-0.87,0.28l0.05-0.98l0.01-0.21
		c0.06,0.01,0.67,0.12,1.19,0.02c0.55-0.1,0.84-0.14,0.96-0.02C75.18,24.38,75.25,24.73,74.82,24.95z"/>
</g>
<g>
	<path class="st6" d="M74.43,22.1c0,0.1-0.08,0.22-0.16,0.28c-0.09,0.07-0.19,0.12-0.3,0.15c-0.27,0.08-0.58,0.06-0.84-0.06
		c-0.15-0.07-0.3-0.18-0.35-0.33c-0.02-0.04-0.02-0.1-0.02-0.14c0-0.05,0.02-0.09,0.05-0.12c0.06-0.06,0.14-0.06,0.22-0.06h0.01
		c0.36-0.01,0.73-0.01,1.09,0.04c0.07,0.01,0.14,0.02,0.2,0.06C74.4,21.96,74.43,22.03,74.43,22.1z"/>
</g>
<g>
	<path class="st0" d="M76.96,19.08c0-0.01-0.01-0.01-0.01-0.02c-0.06-0.12-0.18-0.2-0.3-0.27c-0.16-0.09-0.34-0.16-0.52-0.19
		c-0.11-0.02-0.22-0.02-0.32,0.02c-0.08,0.03-0.16,0.1-0.17,0.18c-0.01,0.06,0.03,0.13,0.08,0.17s0.11,0.06,0.17,0.08
		c0.15,0.04,0.3,0.04,0.45,0.08c0.12,0.03,0.23,0.09,0.34,0.14c0.04,0.02,0.09,0.05,0.14,0.05C76.94,19.32,76.99,19.18,76.96,19.08z
		"/>
</g>
<g>
	<path class="st0" d="M73.29,18.28c-0.03,0.06-0.09,0.09-0.15,0.11c-0.06,0.01-0.13,0-0.19-0.01c-0.15-0.04-0.29-0.11-0.43-0.15
		c-0.12-0.03-0.24-0.04-0.36-0.05c-0.02,0-0.04,0-0.06-0.01c0.05-0.13,0.1-0.26,0.16-0.4c0.05-0.01,0.11-0.01,0.16,0
		c0.18,0.01,0.37,0.03,0.55,0.09c0.1,0.04,0.2,0.09,0.27,0.17C73.3,18.11,73.33,18.2,73.29,18.28z"/>
</g>
<g>
	<path class="st8" d="M34.41,49.68c-0.81,0.79-5.35,1.04-7.49,0.87c-2.14-0.16-3.76,0.37-5.5,0.41c-1.74,0.04-3.72-0.33-4.04-1.52
		c-0.32-1.19,1.17-23.02,1.17-23.02s1.46-1.35,4.78-1.93c2.18-0.38,4.85-1.82,6.71-2.81c0,0,0,0,0,0c0.97-0.52,1.73-0.91,2.07-0.97
		c0.77-0.12,1.4,3.22,1.65,5.99c0.08,0.88,0.13,1.7,0.13,2.34c0,0.33,0,0.74,0,1.19c0,0,0,0,0,0c-0.02,3.12-0.1,8.64,0,10.26
		C34.01,42.35,35.21,48.89,34.41,49.68z"/>
</g>
<g>
	<path class="st8" d="M19.54,25.75c0,0-2.46,1.2-4.89,3.75c-1.4,1.46-4.33,5.79-4.33,5.79s-5.1-4.39-5.79-4.23
		c-0.69,0.16-2.39,1.93-2.39,2.67c0,0.74,0.49,0.9,1.05,1.56c0.57,0.66,0.45,1.23,1.3,2.26s1.42,1.07,2.55,1.85s2.47,4.02,4.58,3.28
		c2.11-0.74,4.29-3.36,5.27-4.1c0.97-0.74,1.26-1.4,1.66-1.89c0.41-0.49,1.54-5.13,1.62-5.87C20.24,30.08,19.54,25.75,19.54,25.75z"
		/>
</g>
<g>
	<path class="st8" d="M45.88,13.2c-0.5,1.61-1.01,2.78-1.42,3.58c-0.41,0.8-1.34,2.75-1.78,3.45c-0.1,0.16-0.29,0.36-0.52,0.59
		c0,0,0,0,0,0c-0.83,0.82-2.25,1.98-2.59,2.61c-0.45,0.82-1.83,3.25-2.8,4.22c-0.86,0.86-2.01,1.86-2.88,2.59c0,0,0,0,0,0
		c-0.72,0.61-1.25,1.02-1.25,1.02s-1.7-1.72-1.7-1.85s-0.9-7.73-0.9-7.73s0,0,0,0c0.19-0.15,6.21-4.83,6.77-5.45
		c2.75-3.04,6.96-9.22,7.61-9.14c0.65,0.08,2.51,1.56,2.59,2.17C47.1,9.89,46.18,12.23,45.88,13.2z"/>
</g>
<g>
	<path class="st2" d="M2.99,30.43c0,0,0.12-0.89,0.07-1.24c-0.05-0.35-0.24-0.42-0.71-0.55c-0.47-0.13-0.72-0.23-0.92-0.32
		c-0.2-0.09-0.52-0.13-0.68,0c-0.16,0.13-0.25,0.49-0.3,0.64c-0.06,0.15-0.33,0.6-0.34,0.76c-0.01,0.16-0.25,0.87,0,1.2
		c0.25,0.33,1.89,0.68,1.89,0.68l0.88-0.17L2.99,30.43z"/>
</g>
<g>
	<path class="st9" d="M17.88,37.3C17.88,37.3,17.87,37.3,17.88,37.3c-0.07,0-0.12-0.06-0.12-0.13c0-0.04,0.15-4.13,0.19-5.6
		c0.05-1.91,0.54-4.43,0.54-4.46c0.01-0.07,0.08-0.11,0.14-0.1c0.07,0.01,0.11,0.08,0.1,0.14c0,0.03-0.48,2.53-0.54,4.41
		C18.15,33.05,18,37.14,18,37.18C18,37.25,17.94,37.3,17.88,37.3z"/>
</g>
<g>
	<path class="st9" d="M9.53,38.55c-0.07,0-0.12-0.02-0.16-0.04c-0.29-0.15-0.36-0.67-0.17-1.24c0.22-0.66,0.9-1.77,0.93-1.81
		c0.04-0.06,0.11-0.08,0.17-0.04c0.02,0.01,0.04,0.04,0.05,0.06c0.02-0.01,0.03-0.01,0.05-0.01c0.07,0,0.12,0.05,0.12,0.12
		c0,0.08,0.01,1.88-0.48,2.6C9.84,38.48,9.66,38.55,9.53,38.55z M10.27,35.7C10.1,36,9.61,36.84,9.43,37.36
		c-0.17,0.51-0.08,0.87,0.05,0.94c0.09,0.04,0.22-0.05,0.35-0.24C10.22,37.49,10.27,36.09,10.27,35.7z"/>
</g>
<g>
	<path class="st0" d="M36.23,96.38c-0.01,0.18-0.05,0.35-0.1,0.41c-0.1,0.13-6.13,0.17-6.31,0.08c-0.05-0.02-0.08-0.23-0.11-0.53
		C31.01,96.35,35.04,96.3,36.23,96.38z"/>
</g>
<g>
	<path class="st4" d="M36.38,95.78c0,0.02,0,0.05,0,0.08c-0.01,0.21-0.05,0.4-0.11,0.47c-0.11,0.15-6.37,0.19-6.56,0.1
		c-0.05-0.02-0.09-0.26-0.11-0.61c0-0.03,0-0.06-0.01-0.1c-0.07-1-0.07-2.74-0.07-2.9c0-0.43,0.39-0.97,1.41-0.73
		c1.02,0.25,1,0.06,1.4,0.29c0.32,0.18,0.82,1.05,1.4,1.37c0.22,0.12,0.62,0.32,1.04,0.55c0.71,0.38,1.48,0.81,1.55,0.99
		C36.37,95.41,36.39,95.6,36.38,95.78z"/>
</g>
<g>
	<polygon class="st1" points="73.06,91.66 70.99,91.63 70.29,85.95 73.25,86.91 	"/>
</g>
<g>
	<path class="st4" d="M67.56,95.35c0.11,0.13,5.77-0.14,5.94-0.24c0.05-0.03,0.07-0.28,0.07-0.65c0.01-0.91-0.07-2.48-0.08-2.63
		c-0.02-0.39-0.4-0.86-1.31-0.59c-0.91,0.27-0.9,0.11-1.25,0.33c-0.28,0.18-0.69,0.99-1.2,1.31c-0.19,0.12-0.54,0.32-0.92,0.55
		c-0.62,0.38-1.3,0.81-1.35,0.97C67.37,94.68,67.45,95.22,67.56,95.35z"/>
</g>
<g>
	<polygon class="st1" points="93.56,63.64 94.9,65.23 91.14,69.5 89.91,66.62 	"/>
</g>
<g>
	<path class="st4" d="M100.2,65.53c0.03-0.17-4.02-4.44-4.2-4.51c-0.05-0.02-0.26,0.14-0.54,0.38c-0.71,0.61-1.85,1.73-1.96,1.84
		c-0.29,0.28-0.39,0.89,0.44,1.43c0.83,0.53,0.69,0.64,1.1,0.76c0.33,0.1,1.23-0.13,1.82,0.06c0.22,0.07,0.61,0.21,1.04,0.35
		c0.71,0.24,1.5,0.47,1.66,0.4C99.81,66.13,100.17,65.7,100.2,65.53z"/>
</g>
<g>
	<path class="st10" d="M25.34,59.83c-0.03,0-0.06-0.01-0.09-0.04c-0.05-0.05-0.05-0.13,0-0.17l4.01-4.1c0.05-0.05,0.12-0.05,0.17,0
		c0.05,0.05,0.05,0.13,0,0.17l-4.01,4.1C25.41,59.81,25.38,59.83,25.34,59.83z"/>
</g>
<g>
	<path class="st4" d="M13.33,95.19c-0.05,0.27-0.09,0.47-0.11,0.52c-0.06,0.23-1.47,1.27-2.16,1.58c-1.92,0.86-2.69,0.13-2.84-0.36
		c-0.07-0.24-0.03-0.53,0.09-0.84c0.13-0.34,0.35-0.7,0.61-1.07c0.32-0.45,0.71-0.89,1.09-1.29c0.23-0.25,1.24-1.68,1.46-1.82
		c0.22-0.13,1.8,0.14,2.05,0.58C13.71,92.82,13.48,94.36,13.33,95.19z"/>
</g>
<g>
	<path class="st0" d="M13.33,95.19c-0.05,0.27-0.09,0.47-0.11,0.52c-0.06,0.23-1.47,1.27-2.16,1.58c-1.92,0.86-2.69,0.13-2.84-0.36
		c-0.07-0.24-0.03-0.53,0.09-0.84c0.12,0.58,0.35,0.67,0.78,0.85c0.63,0.27,1.67,0.02,3.33-1.06C12.6,95.77,13.05,95.42,13.33,95.19
		z"/>
</g>
<g>
	<g>
		<path class="st11" d="M53.05,13.68L53.05,13.68c-2.16-0.23-3.78-2.1-3.72-4.3l0.24-8.88c0.03-0.3,0.3-0.53,0.6-0.49l8.5,0.9
			c0.3,0.03,0.52,0.3,0.49,0.61l-1.58,8.74C57.18,12.41,55.21,13.9,53.05,13.68z"/>
	</g>
	<g>
		<path class="st11" d="M52.14,10.25L49.6,9.98c-1.64-0.17-2.5-5.03-2.72-6.51l-0.01-0.05l0.01-0.05c0.05-0.52,0.52-0.91,1.04-0.85
			l4.97,0.53L52.14,10.25z M47.69,3.42c0.42,2.73,1.32,5.68,2,5.75l1.73,0.18l0.57-5.58l-4.16-0.44
			C47.76,3.33,47.71,3.36,47.69,3.42z"/>
	</g>
	<g>
		<path class="st11" d="M57.27,10.79c-0.03,0-0.06,0-0.09,0l-2.54-0.27l0.74-7.21l4.97,0.53c0.52,0.05,0.9,0.53,0.84,1.05
			l-0.01,0.05l-0.02,0.05C60.65,6.36,58.89,10.79,57.27,10.79z M55.52,9.78l1.73,0.18c0.68,0.07,2.16-2.62,3.12-5.21
			c-0.01-0.06-0.06-0.11-0.12-0.11L56.1,4.21L55.52,9.78z"/>
	</g>
	<g>
		<polygon class="st11" points="53.28,18.49 51.83,18.33 52.46,12.21 53.91,12.36 		"/>
	</g>
	<g>
		<path class="st11" d="M49.79,17.48l5.67,0.6c0.54,0.06,0.93,0.54,0.87,1.09l0,0c-0.02,0.18-0.17,0.3-0.35,0.29l-6.99-0.74
			c-0.17-0.02-0.3-0.18-0.28-0.35l0,0C48.77,17.82,49.25,17.43,49.79,17.48z"/>
	</g>
</g>
<g>
	<path class="st2" d="M46.12,5.49c0,0-0.01-0.51,0.37-0.81c0.28-0.22,1.38-0.84,1.54-0.65c0.16,0.19-0.03,0.64-0.37,0.87
		c-0.34,0.23-0.81,0.74-0.89,0.77C46.67,5.7,46.12,5.49,46.12,5.49z"/>
</g>
<g>
	<path class="st2" d="M48.08,4.8c0,0-0.56,0.43-0.62,0.69c-0.06,0.26,0.03,0.46,0.08,0.64c0.04,0.18-0.01,0.19,0.03,0.44
		c0.04,0.25,0.41,0.54,0.67,0.64c0.25,0.1,0.42,0.21,0.43,0.2c0.01-0.01,0.04-1.43,0.04-1.43L48.08,4.8z"/>
</g>
<g>
	<path class="st7" d="M73.38,21.29c-0.06,0-0.11-0.03-0.14-0.08c-0.09-0.17-0.3-0.59-0.19-0.82c0.09-0.19,0.6-0.78,0.7-0.9
		c0.06-0.07,0.16-0.07,0.23-0.01c0.07,0.06,0.07,0.16,0.01,0.23c-0.24,0.27-0.6,0.71-0.65,0.82c-0.02,0.06,0.07,0.32,0.18,0.53
		c0.04,0.08,0.02,0.18-0.06,0.22C73.43,21.29,73.41,21.29,73.38,21.29z"/>
</g>
<g>
	<path class="st1" d="M72.83,25.45c0,0-0.28,0.48-0.73,0.69c-0.45,0.21-0.88,0.14-0.88,0.14l-0.59,1.68c0,0-0.51,1.46-0.51,1.52
		c0,0.06,0.85,3.51,0.85,3.51l2.75,0.12l3.87-4.21L73.87,28L72.83,25.45z"/>
</g>
<g>
	<path class="st12" d="M72.54,25.82c0,0,0.57,0.31,1.66,0.52c1.86,0.36,2.62,0.06,2.62,0.06s7.02-3.66,8.47-4.38
		c1.46-0.72,5.82-5.47,6.47-5.35c0.65,0.12,2.66,2.57,2.7,3.43c0.04,0.86-2.2,3.78-2.57,4.48s-2.07,3.16-3.32,4.23
		c-1.26,1.07-3.24,2.49-3.7,3.21c-1.76,2.75-4.04,3.51-4.44,4.21c-0.41,0.7-0.04,5.41-0.36,6.72c-0.32,1.31-1.95,1.94-1.95,1.94
		l-6.7,3.41l-5.24-3.98c0,0-1.22-0.58-1.42-2.55c-0.2-1.97,0.85-5.57,0.85-7.13s0.54-4.54,1.8-6.35S72.54,25.82,72.54,25.82z"/>
</g>
<g>
	<path class="st12" d="M72.54,25.82c0,0-2.94-3.24-4.7-6.5c-0.55-1.03-3.14-6.66-3.86-6.77c-0.44-0.06-3.65,1.86-3.75,2.55
		c-0.11,0.68,0,2.7,0.43,3.85c0.43,1.15,1.08,3.05,1.11,3.77c0.03,0.72,0.19,3.05,0.84,4.33s2.33,4.27,2.68,4.95
		c0.35,0.68,0.54,1.89,0.54,1.89s5.67-4.68,5.6-4.76C71.35,29.05,72.54,25.82,72.54,25.82z"/>
</g>
<g>
	<path class="st1" d="M59.29,7c0,0,0.31,0.41,0.36,0.74S59.51,8.3,59.42,8.5s-0.05,0.54-0.14,0.73c-0.09,0.18-0.62,0.24-0.89,0.23
		c-0.27-0.01-0.34-0.1-0.34-0.1s0.2-0.77,0.23-0.8c0.03-0.03,0.49-0.95,0.56-1.04C58.93,7.44,59.29,7,59.29,7z"/>
</g>
<g>
	<path class="st1" d="M61.07,7.82c0,0-0.27-0.56-0.64-0.83c-0.36-0.27-0.52-0.53-0.79-0.54c-0.27-0.01-0.29,0.29-0.09,0.68
		c0.21,0.39,0.62,1.02,0.69,1.04C60.31,8.2,61.07,7.82,61.07,7.82z"/>
</g>
<g>
	<path class="st0" d="M78.75,19.5c-0.11,0.01-0.21,0.06-0.3,0.11c0.12-0.8-0.05-1.63-0.47-2.32c-0.42-0.68-1.08-1.21-1.83-1.47
		c-0.84-0.29-1.77-0.23-2.63,0.02c-0.27,0.08-0.54,0.18-0.76,0.36c-0.22,0.18-0.37,0.46-0.35,0.74c0.43-0.13,0.74-0.56,1.19-0.63
		c0.49-0.07,0.92,0.31,1.27,0.68c0.27,0.29,0.58,0.6,0.98,0.69c0.42,0.1,0.73,0.17,0.87,0.65c0.09,0.28,0.09,0.59,0.17,0.87
		c0.15,0.53,0.56,0.97,1.08,1.15c0.12,0.04,0.27,0.06,0.36-0.02c0.05-0.04,0.07-0.1,0.12-0.15c0.09-0.1,0.24-0.14,0.36-0.19
		c0.13-0.05,0.26-0.17,0.23-0.31c-0.02-0.12-0.15-0.19-0.26-0.19C78.77,19.5,78.76,19.5,78.75,19.5z"/>
</g>
<g>
	<path class="st3" d="M91.98,70.58c-0.49,0.82-4.72,4-6.91,4.76c-3.78,1.31-5.35-2.24-6.37-4.1c-1.03-1.86-5.28-13.39-6.36-15.63
		c-1.07-2.23-6.08-11.14-6.16-11.28c0.09,0.03,3.25,1.15,6.16,1.04c2.95-0.11,5.78-0.46,5.78-0.46s2.18,3.58,2.65,6.32
		c0.47,2.74,4.36,16.69,4.57,16.85c0.22,0.16,3.78-2.79,4.97-2.24c0.14,0.06,0.27,0.16,0.4,0.29c0.01,0,0.01,0.01,0.01,0.01
		C91.7,67.12,92.41,69.85,91.98,70.58z"/>
</g>
<g>
	<path class="st3" d="M74.77,56.68c0,0.33-0.06,2.31-0.19,4.41c-0.04,0.7-0.09,1.42-0.15,2.09c-0.09,1-0.07,7.77-0.1,13.74
		c-0.01,4.72-0.05,8.94-0.17,9.4c-0.27,1.04-2.81,1.42-4.37,0.82c-1.57-0.6-1.87-9.69-2.54-14.5c-0.88-6.35-1.73-17.4-1.62-22.1
		c0.11-4.71,0.55-6.24,0.55-6.24S74.77,56.24,74.77,56.68z"/>
</g>
<g>
	<path class="st10" d="M74.33,60.94c-0.03,0-0.06-0.01-0.09-0.04L70.51,57c-0.05-0.05-0.05-0.13,0-0.17c0.05-0.05,0.12-0.05,0.17,0
		l3.74,3.9c0.05,0.05,0.05,0.13,0,0.17C74.39,60.93,74.36,60.94,74.33,60.94z"/>
</g>
<g>
	<path class="st10" d="M72.44,47.04c-0.52,0-1.04-0.02-1.57-0.06c-2.6-0.2-4.71-0.96-4.73-0.97c-0.06-0.02-0.1-0.09-0.07-0.16
		c0.02-0.06,0.09-0.1,0.16-0.07c0.02,0.01,2.1,0.76,4.66,0.96c3.73,0.28,7.4-0.58,7.44-0.59c0.07-0.02,0.13,0.03,0.15,0.09
		c0.02,0.07-0.03,0.13-0.09,0.15C78.35,46.39,75.6,47.04,72.44,47.04z"/>
</g>
<g>
	<path class="st13" d="M71.28,46.53c-0.07,0-0.12-0.06-0.12-0.12v-0.7c0-0.07,0.05-0.12,0.12-0.12c0.07,0,0.12,0.06,0.12,0.12v0.7
		C71.4,46.47,71.35,46.53,71.28,46.53z"/>
</g>
<g>
	<path class="st14" d="M74.43,22.1c0,0.1-0.08,0.22-0.16,0.28c-0.09,0.07-0.19,0.12-0.3,0.15c-0.27,0.08-0.58,0.06-0.84-0.06
		c-0.15-0.07-0.3-0.18-0.35-0.33c-0.02-0.04-0.02-0.1-0.02-0.14c0.27,0.1,0.71,0.2,1.24,0.14C74.17,22.12,74.31,22.11,74.43,22.1z"
		/>
</g>
<g>
	<path class="st6" d="M63.97,15.05c-0.04,0-0.07-0.03-0.08-0.06l-0.2-0.95c-0.01-0.04,0.02-0.09,0.06-0.1
		c0.04-0.01,0.09,0.02,0.1,0.06l0.2,0.95c0.01,0.04-0.02,0.09-0.06,0.1C63.98,15.05,63.98,15.05,63.97,15.05z"/>
</g>
<g>
	<path class="st6" d="M62.52,18.33c-0.04,0-0.07-0.03-0.08-0.06l-0.2-0.95c-0.01-0.04,0.02-0.09,0.06-0.1
		c0.04-0.01,0.09,0.02,0.1,0.06l0.2,0.95c0.01,0.04-0.02,0.09-0.06,0.1C62.53,18.33,62.53,18.33,62.52,18.33z"/>
</g>
<g>
	<path class="st6" d="M65.95,20.15c-0.04,0-0.07-0.03-0.08-0.06l-0.2-0.95c-0.01-0.04,0.02-0.09,0.06-0.1
		c0.04-0.01,0.09,0.02,0.1,0.06l0.2,0.95c0.01,0.04-0.02,0.09-0.06,0.1C65.96,20.15,65.95,20.15,65.95,20.15z"/>
</g>
<g>
	<path class="st6" d="M66.05,25.37c-0.04,0-0.07-0.03-0.08-0.06l-0.2-0.95c-0.01-0.04,0.02-0.09,0.06-0.1
		c0.04-0.01,0.09,0.02,0.1,0.06l0.2,0.95c0.01,0.04-0.02,0.09-0.06,0.1C66.06,25.37,66.05,25.37,66.05,25.37z"/>
</g>
<g>
	<path class="st6" d="M69.82,26.71c-0.04,0-0.07-0.03-0.08-0.06l-0.2-0.95c-0.01-0.04,0.02-0.09,0.06-0.1
		c0.04-0.01,0.09,0.02,0.1,0.06l0.2,0.95c0.01,0.04-0.02,0.09-0.06,0.1C69.84,26.71,69.83,26.71,69.82,26.71z"/>
</g>
<g>
	<path class="st6" d="M69.93,31.47c-0.04,0-0.07-0.03-0.08-0.06l-0.2-0.95c-0.01-0.04,0.02-0.09,0.06-0.1
		c0.04-0.01,0.09,0.02,0.1,0.06l0.2,0.95c0.01,0.04-0.02,0.09-0.06,0.1C69.94,31.47,69.93,31.47,69.93,31.47z"/>
</g>
<g>
	<path class="st6" d="M73.86,29.06c-0.04,0-0.07-0.03-0.08-0.06l-0.2-0.95c-0.01-0.04,0.02-0.09,0.06-0.1
		c0.04-0.01,0.09,0.02,0.1,0.06l0.2,0.95c0.01,0.04-0.02,0.09-0.06,0.1C73.87,29.06,73.87,29.06,73.86,29.06z"/>
</g>
<g>
	<path class="st6" d="M78.79,29.53c-0.04,0-0.07-0.03-0.08-0.06l-0.2-0.95c-0.01-0.04,0.02-0.09,0.06-0.1
		c0.04-0.01,0.09,0.02,0.1,0.06l0.2,0.95c0.01,0.04-0.02,0.09-0.06,0.1C78.81,29.53,78.8,29.53,78.79,29.53z"/>
</g>
<g>
	<path class="st6" d="M82.94,30.99c-0.04,0-0.07-0.03-0.08-0.06l-0.2-0.95c-0.01-0.04,0.02-0.09,0.06-0.1
		c0.04-0.01,0.09,0.02,0.1,0.06l0.2,0.95c0.01,0.04-0.02,0.09-0.06,0.1C82.95,30.99,82.95,30.99,82.94,30.99z"/>
</g>
<g>
	<path class="st6" d="M87.26,27.34c-0.04,0-0.07-0.03-0.08-0.06l-0.2-0.95c-0.01-0.04,0.02-0.09,0.06-0.1
		c0.04-0.01,0.09,0.02,0.1,0.06l0.2,0.95c0.01,0.04-0.02,0.09-0.06,0.1C87.27,27.34,87.26,27.34,87.26,27.34z"/>
</g>
<g>
	<path class="st6" d="M88.37,22.61c-0.04,0-0.07-0.03-0.08-0.06l-0.2-0.95c-0.01-0.04,0.02-0.09,0.06-0.1
		c0.04-0.01,0.09,0.02,0.1,0.06l0.2,0.95c0.01,0.04-0.02,0.09-0.06,0.1C88.38,22.6,88.38,22.61,88.37,22.61z"/>
</g>
<g>
	<path class="st6" d="M91.99,21.21c-0.04,0-0.07-0.03-0.08-0.06l-0.2-0.95c-0.01-0.04,0.02-0.09,0.06-0.1
		c0.04-0.01,0.09,0.02,0.1,0.06l0.2,0.95c0.01,0.04-0.02,0.09-0.06,0.1C92,21.21,91.99,21.21,91.99,21.21z"/>
</g>
<g>
	<path class="st6" d="M82.74,26.01c-0.04,0-0.07-0.03-0.08-0.06l-0.2-0.95c-0.01-0.04,0.02-0.09,0.06-0.1
		c0.04-0.01,0.09,0.02,0.1,0.06l0.2,0.95c0.01,0.04-0.02,0.09-0.06,0.1C82.75,26.01,82.74,26.01,82.74,26.01z"/>
</g>
<g>
	<path class="st6" d="M72.64,43.27c-0.04,0-0.07-0.03-0.08-0.06l-0.2-0.95c-0.01-0.04,0.02-0.09,0.06-0.1
		c0.04-0.01,0.09,0.02,0.1,0.06l0.2,0.95c0.01,0.04-0.02,0.09-0.06,0.1C72.65,43.27,72.64,43.27,72.64,43.27z"/>
</g>
<g>
	<path class="st6" d="M76.99,43.27c-0.04,0-0.07-0.03-0.08-0.06l-0.2-0.95c-0.01-0.04,0.02-0.09,0.06-0.1
		c0.04-0.01,0.09,0.02,0.1,0.06l0.2,0.95c0.01,0.04-0.02,0.09-0.06,0.1C77,43.27,76.99,43.27,76.99,43.27z"/>
</g>
<g>
	<path class="st6" d="M67.91,42.32c-0.04,0-0.07-0.03-0.08-0.06l-0.2-0.95c-0.01-0.04,0.02-0.09,0.06-0.1
		c0.04-0.01,0.09,0.02,0.1,0.06l0.2,0.95c0.01,0.04-0.02,0.09-0.06,0.1C67.92,42.32,67.91,42.32,67.91,42.32z"/>
</g>
<g>
	<path class="st6" d="M75.36,38.94c-0.04,0-0.07-0.03-0.08-0.06l-0.2-0.95c-0.01-0.04,0.02-0.09,0.06-0.1
		c0.04-0.01,0.09,0.02,0.1,0.06l0.2,0.95c0.01,0.04-0.02,0.09-0.06,0.1C75.37,38.94,75.37,38.94,75.36,38.94z"/>
</g>
<g>
	<path class="st6" d="M78.12,34.08c-0.04,0-0.07-0.03-0.08-0.06l-0.2-0.95c-0.01-0.04,0.02-0.09,0.06-0.1
		c0.04-0.01,0.09,0.02,0.1,0.06l0.2,0.95c0.01,0.04-0.02,0.09-0.06,0.1C78.13,34.08,78.13,34.08,78.12,34.08z"/>
</g>
<g>
	<path class="st6" d="M73.04,34.01c-0.04,0-0.07-0.03-0.08-0.06l-0.2-0.95c-0.01-0.04,0.02-0.09,0.06-0.1
		c0.04-0.01,0.09,0.02,0.1,0.06l0.2,0.95c0.01,0.04-0.02,0.09-0.06,0.1C73.05,34.01,73.04,34.01,73.04,34.01z"/>
</g>
<g>
	<path class="st6" d="M62.86,23.28c-0.04,0-0.07-0.03-0.08-0.06l-0.2-0.95c-0.01-0.04,0.02-0.09,0.06-0.1
		c0.04-0.01,0.09,0.02,0.1,0.06l0.2,0.95c0.01,0.04-0.02,0.09-0.06,0.1C62.87,23.28,62.86,23.28,62.86,23.28z"/>
</g>
<g>
	<path class="st6" d="M65.72,30.31c-0.04,0-0.07-0.03-0.08-0.06l-0.2-0.95c-0.01-0.04,0.02-0.09,0.06-0.1
		c0.04-0.01,0.09,0.02,0.1,0.06l0.2,0.95c0.01,0.04-0.02,0.09-0.06,0.1C65.73,30.31,65.73,30.31,65.72,30.31z"/>
</g>
<g>
	<path class="st6" d="M67.39,35.97c-0.04,0-0.07-0.03-0.08-0.06l-0.2-0.95c-0.01-0.04,0.02-0.09,0.06-0.1
		c0.04-0.01,0.09,0.02,0.1,0.06l0.2,0.95c0.01,0.04-0.02,0.09-0.06,0.1C67.4,35.97,67.39,35.97,67.39,35.97z"/>
</g>
<g>
	<path class="st6" d="M71.08,37.99c-0.04,0-0.07-0.03-0.08-0.06l-0.2-0.95c-0.01-0.04,0.02-0.09,0.06-0.1
		c0.04-0.01,0.09,0.02,0.1,0.06l0.2,0.95c0.01,0.04-0.02,0.09-0.06,0.1C71.09,37.99,71.08,37.99,71.08,37.99z"/>
</g>
<g>
	<path class="st6" d="M77.34,23.56c-0.01,0-0.01,0.02,0,0.02C77.35,23.58,77.35,23.56,77.34,23.56z"/>
</g>
<g>
	<g>
		<path class="st6" d="M77.72,22.65c0.02-0.04,0.02-0.09,0.01-0.13c-0.01-0.1-0.06-0.2-0.16-0.26c-0.29-0.17-0.65,0.17-0.48,0.47
			c0,0.01,0.01,0.01,0.02,0.02c0.01,0.02,0.03,0.05,0.05,0.06c0,0,0.01,0.01,0.01,0.01c0.01,0,0.01,0.01,0.02,0.02
			c0.07,0.07,0.18,0.1,0.29,0.07c0.11-0.03,0.18-0.11,0.22-0.2c0-0.01,0.01-0.02,0.01-0.03C77.71,22.67,77.72,22.66,77.72,22.65z"/>
	</g>
	<g>
		<path class="st6" d="M77.37,24.4c-0.36,0-0.65-0.37-0.65-0.84c0-0.47,0.28-0.84,0.65-0.84c0.36,0,0.65,0.37,0.65,0.84
			C78.02,24.03,77.73,24.4,77.37,24.4z M77.37,23.05c-0.18,0-0.32,0.23-0.32,0.51c0,0.28,0.15,0.51,0.32,0.51
			c0.18,0,0.32-0.23,0.32-0.51C77.69,23.28,77.54,23.05,77.37,23.05z"/>
	</g>
</g>
<g>
	<path class="st9" d="M33.65,29.94c-0.05,0-0.09-0.03-0.11-0.07l-3.62-7.58c-0.03-0.06,0-0.13,0.06-0.16c0.06-0.03,0.13,0,0.16,0.06
		l3.62,7.58c0.03,0.06,0,0.13-0.06,0.16C33.68,29.94,33.67,29.94,33.65,29.94z"/>
</g>
<g>
	<path class="st10" d="M86.49,70.1c-0.04,0-0.08-0.02-0.1-0.06l-1.03-1.76c-0.03-0.06-0.02-0.13,0.04-0.17
		c0.06-0.03,0.13-0.02,0.17,0.04l1.03,1.76c0.03,0.06,0.02,0.13-0.04,0.17C86.54,70.1,86.51,70.1,86.49,70.1z"/>
</g>
<g>
	<path class="st15" d="M50.58,9.38c0,0-0.01,0-0.01,0c-0.18-0.01-0.32-0.16-0.31-0.34l0.24-7.49c0.01-0.18,0.15-0.32,0.33-0.32
		c0.18,0.01,0.32,0.16,0.31,0.34l-0.24,7.49C50.9,9.24,50.76,9.38,50.58,9.38z"/>
</g>
<g>
	<path class="st1" d="M95.16,13.98c0,0,0.39-0.68,0.68-0.95c0.29-0.27,0.93-0.35,1.35-0.42c0.42-0.07,0.85-0.14,0.96,0.05
		c0.11,0.19-0.15,0.44-0.51,0.57c-0.36,0.13-0.58,0.25-0.49,0.35c0.08,0.1,1.4,0.21,1.71,0.17s0.5,0.06,0.58,0.21
		c0.08,0.15,0,0.22-0.07,0.28c-0.06,0.05,0.04,0.5-0.07,0.69c-0.11,0.19-0.91,0.67-1.23,0.7c-0.32,0.03-0.29,0.12-0.58,0.15
		c-0.28,0.03-2.36-0.17-2.36-0.17l-0.66-0.63L95.16,13.98z"/>
</g>
<g>
	<path class="st10" d="M80.11,52.41c-0.37,0-1.29-0.09-2.56-0.87c-1.9-1.16-2.48-3.98-2.5-4.1c-0.01-0.07,0.03-0.13,0.1-0.14
		c0.06-0.01,0.13,0.03,0.14,0.1c0.01,0.03,0.58,2.83,2.39,3.94c1.57,0.96,2.57,0.83,2.58,0.83c0.07-0.01,0.13,0.04,0.14,0.1
		c0.01,0.07-0.04,0.13-0.1,0.14C80.28,52.4,80.21,52.41,80.11,52.41z"/>
</g>
</svg>
