<?xml version="1.0" encoding="utf-8"?>
<!-- Generator: Adobe Illustrator 25.2.1, SVG Export Plug-In . SVG Version: 6.00 Build 0)  -->
<svg version="1.1" id="Layer_1" xmlns="http://www.w3.org/2000/svg" xmlns:xlink="http://www.w3.org/1999/xlink" x="0px" y="0px"
	 viewBox="0 0 150 150" style="enable-background:new 0 0 150 150;" xml:space="preserve">
<style type="text/css">
	.st0{fill-rule:evenodd;clip-rule:evenodd;fill:#6C787F;}
	.st1{fill-rule:evenodd;clip-rule:evenodd;fill:#022650;}
	.st2{fill-rule:evenodd;clip-rule:evenodd;fill:#28A428;}
	.st3{fill-rule:evenodd;clip-rule:evenodd;fill:#232B2E;}
	.st4{fill-rule:evenodd;clip-rule:evenodd;fill:#BBD700;}
	.st5{fill-rule:evenodd;clip-rule:evenodd;fill:#FEFEFE;}
	.st6{fill:#FEFEFE;}
	.st7{fill-rule:evenodd;clip-rule:evenodd;fill:#40494C;}
	.st8{fill-rule:evenodd;clip-rule:evenodd;fill:#81D8DF;}
</style>
<g>
	<path class="st0" d="M72.83,47.39h1.28v5.39h-1.28V47.39z M76.7,47.39h1.24v5.39H76.7V47.39z"/>
	<path class="st0" d="M111.65,75.99l3.09,4.72h10.5v17.74c0.71,10.01-24.59,14.72-49.92,14.55h-0.04l0,0
		c-25.26,0.18-50.49-4.51-49.96-14.44h-0.04V80.71h10.57l3.09-4.72c2.7-4.12,19.48-6.17,36.3-6.21h0.04h0.04
		C92.13,69.82,108.92,71.88,111.65,75.99L111.65,75.99z"/>
	<path class="st1" d="M111.65,75.99l3.09,4.72h10.5v7.06v0.75c-0.57,9.47-25.23,13.98-49.92,13.8h-0.04l0,0
		c-25.26,0.18-50.49-4.51-49.96-14.44h-0.04v-7.17h10.57l3.09-4.72c2.7-4.12,19.48-6.17,36.3-6.21h0.04h0.04
		C92.13,69.82,108.92,71.88,111.65,75.99L111.65,75.99z"/>
	<path class="st2" d="M111.65,58c4.04,6.17,8.09,12.38,12.17,18.56c8.3,12.67-20.12,18.66-48.5,18.45h-0.04l0,0
		c-28.42,0.21-56.81-5.78-48.5-18.45c4.04-6.17,8.09-12.38,12.17-18.56c2.7-4.15,19.48-6.21,36.3-6.21h0.04h0.04
		C92.13,51.79,108.92,53.85,111.65,58L111.65,58z"/>
	<path class="st3" d="M110.05,59.03c-0.53-0.85-2.55-1.63-3.48-1.95c-2.55-0.89-5.43-1.45-8.09-1.85
		c-3.62-0.57-7.27-0.92-10.89-1.17c-4.08-0.25-8.2-0.39-12.28-0.39h-0.04h-0.04c-4.08,0-8.16,0.14-12.28,0.39
		c-3.62,0.25-7.27,0.6-10.89,1.17c-2.66,0.39-5.5,0.96-8.09,1.85c-0.89,0.32-2.91,1.1-3.48,1.95c-4.04,6.17-8.13,12.38-12.17,18.56
		c-0.78,1.21-1.38,2.63-1.06,4.04c0.99,4.79,11.28,7.59,15.22,8.52c5,1.17,10.18,1.88,15.29,2.34c5.82,0.5,11.64,0.71,17.46,0.64
		h0.04h0.04c5.82,0.07,11.67-0.14,17.46-0.64c5.11-0.46,10.29-1.17,15.29-2.34c3.94-0.92,14.23-3.73,15.26-8.52
		c0.28-1.42-0.32-2.84-1.1-4.04C118.18,71.41,114.13,65.21,110.05,59.03L110.05,59.03z"/>
	<path class="st2" d="M31.88,86.39c3.55,1.95,8.23,3.19,10.61,3.76c5,1.17,10.18,1.88,15.29,2.34c5.82,0.5,11.64,0.71,17.46,0.64
		h0.04h0.04c5.82,0.07,11.67-0.14,17.46-0.64c5.11-0.46,10.29-1.17,15.29-2.34c2.38-0.57,7.06-1.81,10.64-3.76
		c-3.65-7.03-7.27-14.05-10.89-21.04c-2.38-1.53-8.59-2.7-10.82-3.09c-7.13-1.17-14.51-1.6-21.71-1.6l0,0
		c-7.2,0-14.58,0.43-21.72,1.6c-2.2,0.39-8.41,1.56-10.79,3.09C39.12,72.34,35.5,79.36,31.88,86.39L31.88,86.39z"/>
	<path class="st4" d="M37.7,88.84c1.88,0.6,3.62,1.03,4.79,1.31c5,1.17,10.18,1.88,15.29,2.34c5.82,0.5,11.64,0.71,17.46,0.64h0.04
		h0.04c5.82,0.07,11.67-0.14,17.46-0.64c5.11-0.46,10.29-1.17,15.29-2.34c1.35-0.32,3.37-0.85,5.54-1.56
		c-1.45-3.41-2.8-6.56-4.01-9.51c-1.6-3.73-3.02-7.1-4.33-10.22c-0.21-0.46-0.89-0.82-1.49-0.82c-9.37,0-18.73,0-28.07,0
		c-9.37,0-18.73,0-28.07,0c-0.64,0-1.28,0.35-1.45,0.82c-1.31,3.12-2.77,6.49-4.33,10.22C40.58,82.09,39.19,85.32,37.7,88.84
		L37.7,88.84z"/>
	<polygon class="st5" points="110.41,81.07 110.05,80.25 41.36,80.25 41,81.07 	"/>
	<path class="st6" d="M75.67,73.08c3.3,0,6.32,0.82,8.48,2.16c2.27,1.38,3.65,3.3,3.65,5.43c0,2.13-1.38,4.01-3.65,5.39
		c-2.16,1.35-5.18,2.16-8.48,2.16c-3.34,0-6.35-0.82-8.52-2.16c-2.27-1.38-3.65-3.26-3.65-5.39c0-2.13,1.38-4.04,3.65-5.43
		C69.32,73.9,72.33,73.08,75.67,73.08L75.67,73.08z M83.76,75.92c-2.06-1.24-4.93-2.02-8.09-2.02c-3.19,0-6.03,0.78-8.13,2.02
		c-1.99,1.24-3.23,2.91-3.23,4.75c0,1.81,1.24,3.48,3.23,4.72c2.09,1.28,4.93,2.06,8.13,2.06c3.16,0,6.03-0.78,8.09-2.06
		c1.99-1.24,3.23-2.91,3.23-4.72C86.99,78.83,85.75,77.16,83.76,75.92L83.76,75.92z"/>
	<polygon class="st5" points="44.23,73.44 49.38,73.79 47.28,87.13 39.02,85.79 	"/>
	<polygon class="st5" points="107.18,73.44 102.03,73.79 104.13,87.13 112.39,85.79 	"/>
	<path class="st7" d="M67.3,37.57h15.97c1.28,0,2.31,1.03,2.31,2.27v5.29c0,1.24-1.03,2.27-2.31,2.27H67.3
		c-1.24,0-2.27-1.03-2.27-2.27v-5.29C65.02,38.59,66.05,37.57,67.3,37.57L67.3,37.57z"/>
	<rect x="66.34" y="40.01" class="st8" width="17.88" height="4.93"/>
</g>
</svg>
