<?xml version="1.0" encoding="utf-8"?>
<!-- Generator: Adobe Illustrator 25.2.1, SVG Export Plug-In . SVG Version: 6.00 Build 0)  -->
<svg version="1.1" id="Layer_1" xmlns="http://www.w3.org/2000/svg" xmlns:xlink="http://www.w3.org/1999/xlink" x="0px" y="0px"
	 viewBox="0 0 300 300" style="enable-background:new 0 0 300 300;" xml:space="preserve">
<style type="text/css">
	.st0{clip-path:url(#SVGID_2_);}
	.st1{clip-path:url(#SVGID_4_);fill:#FF8D29;}
	.st2{clip-path:url(#SVGID_4_);fill:#FFDEBA;}
	.st3{clip-path:url(#SVGID_4_);fill:#322E3D;}
	.st4{clip-path:url(#SVGID_4_);fill:#452107;}
	.st5{clip-path:url(#SVGID_4_);fill:#F0760C;}
	.st6{clip-path:url(#SVGID_4_);fill:#E86519;}
	.st7{clip-path:url(#SVGID_4_);fill:#28A428;}
	.st8{clip-path:url(#SVGID_4_);fill:#DCD5CD;}
	.st9{clip-path:url(#SVGID_6_);fill:#322E3D;}
	.st10{clip-path:url(#SVGID_6_);fill:#FFFFFF;}
	.st11{clip-path:url(#SVGID_8_);fill:#DCD5CD;}
	.st12{clip-path:url(#SVGID_10_);fill:#322E3D;}
	.st13{clip-path:url(#SVGID_10_);fill:#FFFFFF;}
	.st14{clip-path:url(#SVGID_12_);fill:#186318;}
	.st15{clip-path:url(#SVGID_12_);fill:#FFFFFF;}
</style>
<g id="Artwork_8_1_">
	<g>
		<defs>
			<rect id="SVGID_1_" x="96.28" y="22.98" width="133.59" height="247.94"/>
		</defs>
		<clipPath id="SVGID_2_">
			<use xlink:href="#SVGID_1_"  style="overflow:visible;"/>
		</clipPath>
		<g class="st0">
			<defs>
				<rect id="SVGID_3_" x="96.28" y="22.98" width="133.59" height="247.94"/>
			</defs>
			<clipPath id="SVGID_4_">
				<use xlink:href="#SVGID_3_"  style="overflow:visible;"/>
			</clipPath>
			<path class="st1" d="M106.15,32.09c0,0-0.42-4.26-0.1-6.06c0.32-1.8,1.76-1.78,2.43-2.25c0.66-0.47,1.47-1.08,2.21-0.66
				c0.74,0.42-0.09,5.16,0.51,5.72c0.6,0.57,1.59-1.46,2.25-1.23c0.66,0.23,0.53,1.31-0.45,2.59c-0.98,1.28-2.13,2.98-3.69,3.88
				c-1.56,0.9-1.98,0.65-2.19,0.2C106.89,33.85,106.15,32.09,106.15,32.09"/>
			<path class="st1" d="M128.25,32.67c0,0,0.42-4.26,0.1-6.06c-0.32-1.8-1.76-1.78-2.43-2.25c-0.66-0.46-1.47-1.08-2.21-0.66
				c-0.74,0.42,0.09,5.16-0.51,5.73c-0.6,0.57-1.59-1.46-2.25-1.23c-0.66,0.23-0.53,1.31,0.45,2.59c0.98,1.28,2.13,2.98,3.69,3.88
				c1.56,0.9,1.98,0.65,2.19,0.2C127.51,34.42,128.25,32.67,128.25,32.67"/>
			<path class="st2" d="M151.21,156.73c0,0,40.41,1.1,43.4-1.26s16.98-47.49,16.98-47.49l-4.76-1.72c0,0-16.78,20.9-19.14,26.56
				c-1.78,4.27-2.67,8.33-3.14,8.33s-26.92-7.25-26.92-7.25L151.21,156.73z"/>
			<path class="st2" d="M121.33,161.92l19.03,91.36h4.71c0,0,3.56-36.81,1.67-44.98c-1.89-8.18-3.87-8.01-3.02-15.71
				c0.47-4.22,0-34.28,0-34.28L121.33,161.92z"/>
			<path class="st3" d="M166.11,69.44c-2.42-1.32-4.08-2.17-5.69-4.57c-0.84-1.26-1.55-2.85-2.77-3.8
				c-3.2-2.49-9.19-2.03-12.87-1.22c-4.26,0.93-8.7-0.02-12.73-1.48c-1.2-0.43-2.35-1-3.56-1.43c-4.35-1.57-9.65-1.77-13.5,1.13
				c-0.63,0.48-1.2,1.03-1.66,1.68c-0.46,0.64-0.59,1.34-0.96,2.01c-0.33,0.59-0.74,1.08-1,1.72c-0.3,0.75-0.45,1.55-0.43,2.36
				c0.04,1.97,1.22,4.65,3.14,5.52c3.34,5.47,11.25,8.74,17.23,9.28c2.4,0.21,3.99,1.27,6.11,2.17c1.77,0.75,3.62,0.82,5.52,0.69
				c1.99-0.15,3.93-0.36,5.94-0.34c2.84,0.03,5.09,0.92,7.77,1.58c5.65,1.4,13.43-1.45,13.35-8.25
				C169.96,73.66,168.61,70.81,166.11,69.44"/>
			<path class="st1" d="M112.94,69.75c-0.05,0.34-0.1,0.7-0.14,1.09c-0.16,1.57-0.18,3.56,0.11,5.99c0.57,4.86,3.5,6.85,5.78,7.11
				c3.71,0.42,6.33-3.33,7.79-5.64c1.46-2.32,1.95-7.94,1.95-7.94s-2.09-7.31-7.95-7.54c-5.86-0.22-6.38,3.21-6.38,3.21
				S113.35,67.19,112.94,69.75"/>
			<path class="st1" d="M115.8,90.67l4.55,7.99l9.51-1.8l4.96-7.36c0,0-2.83-1.66-4.79-4.26c-1.96-2.58-1.63-14.8-1.63-14.8
				l-9.86,11.01c0,0,0.26,0.78,0.54,1.74c0.08,0.28,0.16,0.57,0.24,0.86l0.01,0c0.08,0.31,0.16,0.63,0.23,0.95
				c0.08,0.4,0.26,0.94,0.25,1.4c0.01,0.14-0.01,0.26-0.05,0.37C119.47,87.6,115.8,90.67,115.8,90.67"/>
			<path class="st1" d="M126.36,72.01c0,0,1.05-2.78,2.71-1.64c1.66,1.14,0.82,4.61-0.27,5.5c-1.09,0.89-1.26,1.09-1.31,0.95
				C127.44,76.69,126.36,72.01,126.36,72.01"/>
			<path class="st4" d="M121.45,72.39c0.07-0.14,0.18-0.26,0.34-0.28c0.47-0.07,0.49,0.51,0.42,0.83c-0.06,0.28-0.29,0.5-0.59,0.41
				c-0.23-0.07-0.3-0.31-0.28-0.53C121.35,72.68,121.39,72.52,121.45,72.39"/>
			<path class="st4" d="M113.21,72.5c0.06-0.13,0.16-0.24,0.31-0.26c0.42-0.06,0.44,0.46,0.38,0.75c-0.06,0.25-0.26,0.45-0.53,0.37
				c-0.21-0.07-0.27-0.27-0.26-0.48C113.12,72.76,113.15,72.62,113.21,72.5"/>
			<path class="st3" d="M121.01,69.86c0.06-0.01,0.11-0.01,0.17-0.02c0.76-0.06,1.57-0.01,2.24,0.36c0.27,0.15,0.61,0.49,0.27,0.77
				c-0.34,0.29-1.08,0.02-1.46-0.05c-0.4-0.07-0.8-0.05-1.2-0.04c-0.27,0.01-0.7,0.09-0.78-0.26c-0.06-0.24,0.12-0.53,0.33-0.64
				C120.72,69.91,120.86,69.88,121.01,69.86"/>
			<path class="st3" d="M112.92,69.84c-0.05,0.34-0.1,0.7-0.14,1.09c0.37-0.08,0.76-0.07,1.14-0.07c0.27,0,0.7,0.07,0.77-0.28
				c0.05-0.24-0.14-0.53-0.35-0.63c-0.13-0.07-0.28-0.09-0.43-0.1c-0.06-0.01-0.11-0.01-0.17-0.02
				C113.48,69.82,113.2,69.82,112.92,69.84"/>
			<path class="st5" d="M119.32,84.07c0.08,0.31,0.16,0.63,0.23,0.95c0.08,0.4,0.26,0.94,0.25,1.4c0.64-0.23,1.46-0.61,2.2-1.19
				c1.4-1.08,2.03-2.46,1.49-2.88c-0.32-0.24-1.43,0.73-2.09,1.06C119.97,84.11,119.4,84.05,119.32,84.07"/>
			<path class="st6" d="M116.19,76.75c1.32,0.05,1.33-2.27,1.2-3.12c-0.02-0.16-0.24-1.12-0.49-0.76c-0.06,0.09-0.03,0.66-0.07,0.94
				c-0.09,0.49-0.15,0.73-0.34,1.05c-0.19,0.32-0.42,0.61-0.6,0.93c-0.02,0.04-0.04,0.08-0.06,0.12
				C115.64,76.3,115.64,76.73,116.19,76.75"/>
			<path class="st5" d="M128.36,74.98c-0.1,0-0.2-0.05-0.26-0.14c-0.01-0.02-0.37-0.57-0.55-1.38c-0.27-1.24,0.02-2.18,0.03-2.22
				c0.05-0.17,0.23-0.26,0.39-0.2c0.16,0.05,0.26,0.23,0.2,0.39c0,0.01-0.25,0.82-0.02,1.89c0.15,0.7,0.46,1.17,0.46,1.17
				c0.09,0.15,0.05,0.34-0.09,0.44C128.48,74.96,128.42,74.98,128.36,74.98"/>
			<path class="st5" d="M118.03,79.27c-0.29,0-0.46-0.05-0.5-0.06c-0.17-0.05-0.26-0.23-0.21-0.39c0.05-0.16,0.22-0.26,0.39-0.21
				c0,0,0.5,0.13,1.34-0.18c0.8-0.3,1.08-0.86,1.1-0.89c0.08-0.15,0.26-0.22,0.42-0.14c0.16,0.08,0.22,0.26,0.15,0.42
				c-0.02,0.03-0.4,0.81-1.44,1.2C118.75,79.21,118.32,79.27,118.03,79.27"/>
			<path class="st3" d="M129.8,68.92c-0.42,0.07-0.87,0.18-1.31,0.35c0-0.01,0.01-0.03,0.01-0.04c0.03-0.4-0.25-0.75-0.45-1.05
				c-0.11-0.16-0.2-0.32-0.3-0.49c-0.06-0.61-0.27-1.19-0.77-1.55c-0.05-0.03-0.11-0.03-0.16-0.02c-0.68-1.03-1.87-2.35-3.16-2.87
				c0.44-0.38,0.81-0.79,1.11-1.21c0.12-0.18-0.08-0.42-0.28-0.36c-0.71,0.22-1.3,0.66-1.9,1.12c-0.9-0.74-2.7-0.77-3.62-0.64
				c-0.77,0.11-1.53,0.37-2.25,0.71c-0.19-0.23-0.38-0.49-0.55-0.77c-0.01-0.02-0.05-0.02-0.06,0.01c-0.11,0.36-0.08,0.72,0.04,1.05
				c-0.32,0.18-0.63,0.37-0.93,0.57c-0.77,0.53-1.76,1.03-2.08,1.93c-0.05,0.15,0.09,0.34,0.25,0.33c0.13-0.01,0.25-0.04,0.37-0.07
				c-0.48,0.45-0.84,0.96-0.82,1.47c0,0.08,0.11,0.14,0.17,0.07c0.73-0.81,1.17-1.73,2.21-2.19c1.13-0.5,2.48,0.25,3.58,0.44
				c0.7,0.12,1.32-0.05,1.99-0.21c1.53-0.37,2.95-0.45,3.92,1.03c0.69,1.06,0.77,2.21,0.92,3.43c0.08,0.64,0.05,1.86,0.98,1.72
				c0.35-0.05,0.45-0.38,0.65-0.63c0.78-0.99,1.55-1.19,2.63-1.69C130.25,69.24,130.05,68.88,129.8,68.92"/>
			<path class="st7" d="M138.36,114.8c0.42,3.25,1.08,15.67,1.08,15.67l-22.03,11.01c0,0-3.14-10.26-5.99-18.92
				c-7.86-23.89-3.35-24.21-2.62-27.78c0.74-3.57,4.72-9.12,4.72-9.12l3.33,0.4l1.02,0.12l0.37,0.04l1.03,0.13l0.52,0.06
				c0,0,3.21-0.28,5.1-0.81c1.04-0.29,2.33-0.7,3.28-1.01c0.38-0.12,0.7-0.23,0.94-0.3c0.24-0.08,0.38-0.13,0.38-0.13
				s0.01,0,0.03-0.01c0.09-0.02,0.41-0.08,0.89-0.14c0.86-0.12,2.22-0.23,3.61-0.04c2.3,0.32,5.29,3.05,6.18,4.52
				C141.09,89.95,137.95,111.55,138.36,114.8"/>
			<path class="st7" d="M115.21,85.86c0,0-8.34-18.6-8.97-23s3.65-29.17,3.65-29.17l-3.77-1.93c0,0-9.84,24.65-9.84,31
				c0,5.35,10.57,40.09,10.57,40.09l10.77-12.05L115.21,85.86z"/>
			<path class="st7" d="M130.11,84.05c0,0,3.58-19.04,3.67-24.49c0.09-5.45-9.51-25.48-9.51-25.48l4.06-2.32
				c0,0,7.94,9.14,11.61,16.63c3.67,7.5,4.3,8.96,3.46,15.88c-0.84,6.92-3.21,29.06-3.21,29.06s-7.9-3.48-8.64-3.37
				C130.82,90.06,130.11,84.05,130.11,84.05"/>
			<path class="st7" d="M159.04,150.68c-1.89,1.71-4.73,8.11-6.75,10.67c-0.17,0.21-0.33,0.39-0.48,0.54
				c-2.04,2.04-8.81,1.89-15.41,2.36c-1.32,0.09-2.53,0.3-3.65,0.55c-4.52,1.01-7.65,2.85-10.74,1.97
				c-3.86-1.1-4.64-7.55-5.98-16.04c-1.35-8.49-1.32-17.94-1.32-17.94l21.4-6.72c1.03-0.02,2.05-0.06,3.08-0.11
				c1.35-0.06,2.71-0.14,4.06-0.26c3.62-0.33,6.91-2.01,10.6-1.04c4.09,1.06,6.92,4.43,8.37,8.5
				C164.35,139.16,163.44,146.7,159.04,150.68"/>
			
				<rect x="211.43" y="95.2" transform="matrix(0.385 -0.9229 0.9229 0.385 42.8518 255.9552)" class="st8" width="4.09" height="1.26"/>
			
				<rect x="220.7" y="97.73" transform="matrix(0.385 -0.9229 0.9229 0.385 46.2158 266.0779)" class="st8" width="4.09" height="1.26"/>
			<path class="st8" d="M229.25,99.86c-0.26,0-0.5-0.16-0.59-0.42c-0.01-0.03-0.33-0.85-1.35-1.45c-0.86-0.5-9.79-3.06-15.21-4.55
				c-0.33-0.09-0.53-0.44-0.44-0.77c0.09-0.33,0.44-0.53,0.77-0.44c1.45,0.4,14.21,3.92,15.51,4.68c1.44,0.84,1.88,2.06,1.9,2.12
				c0.12,0.33-0.06,0.69-0.38,0.8C229.39,99.85,229.32,99.86,229.25,99.86"/>
		</g>
		<g class="st0">
			<defs>
				<path id="SVGID_5_" d="M210.64,96.94c-1.13,0.44-6.29,10.14-6.29,10.81c0,0.67,6.45,3.89,7.23,3.46
					c0.79-0.43,2.04-4.29,3.46-5.27c1.42-0.98,8.92-0.39,10.34-1.26c1.42-0.86,1.85-3.11-0.43-4.36c-1.99-1.1-9.65-3.55-13.1-3.55
					C211.35,96.77,210.93,96.82,210.64,96.94"/>
			</defs>
			<clipPath id="SVGID_6_">
				<use xlink:href="#SVGID_5_"  style="overflow:visible;"/>
			</clipPath>
			<path class="st9" d="M204.35,107.75c0,0.67,6.45,3.89,7.23,3.46c0.79-0.43,2.04-4.28,3.46-5.27c1.42-0.98,8.92-0.39,10.34-1.26
				c1.42-0.86,1.85-3.11-0.43-4.36c-2.28-1.26-11.99-4.28-14.31-3.38C209.51,97.38,204.35,107.08,204.35,107.75"/>
			<path class="st10" d="M219.68,106.3c-0.02,0-0.04,0-0.06-0.01c-0.17-0.03-0.28-0.2-0.25-0.37l0.54-2.79
				c0.03-0.17,0.2-0.28,0.37-0.25c0.17,0.03,0.28,0.2,0.25,0.37l-0.54,2.79C219.96,106.19,219.83,106.3,219.68,106.3"/>
			<path class="st10" d="M217.44,106.58c-0.15,0-0.28-0.11-0.31-0.26l-0.51-3.08c-0.03-0.17,0.09-0.33,0.26-0.36
				c0.17-0.03,0.33,0.09,0.36,0.26l0.51,3.08c0.03,0.17-0.09,0.33-0.26,0.36C217.48,106.58,217.46,106.58,217.44,106.58"/>
			<path class="st10" d="M215.45,107.4c-0.14,0-0.26-0.09-0.3-0.22c-0.13-0.23-1.14-1.63-1.84-2.58c-0.1-0.14-0.07-0.34,0.07-0.44
				c0.14-0.1,0.34-0.07,0.44,0.07c1.95,2.63,1.95,2.73,1.95,2.86C215.77,107.26,215.62,107.4,215.45,107.4"/>
			<path class="st10" d="M214.38,109.05c-0.03,0-0.06-0.01-0.1-0.02c-0.25-0.08-1.98-1.21-2.71-1.69c-0.14-0.09-0.19-0.29-0.09-0.44
				c0.1-0.15,0.29-0.19,0.44-0.09c1.13,0.74,2.4,1.55,2.57,1.62c0.16,0.07,0.24,0.24,0.18,0.4
				C214.62,108.97,214.51,109.05,214.38,109.05"/>
		</g>
		<g class="st0">
			<defs>
				<rect id="SVGID_7_" x="96.28" y="22.98" width="133.59" height="247.94"/>
			</defs>
			<clipPath id="SVGID_8_">
				<use xlink:href="#SVGID_7_"  style="overflow:visible;"/>
			</clipPath>
			
				<rect x="143.25" y="263.26" transform="matrix(0.997 -0.0774 0.0774 0.997 -20.1008 11.9307)" class="st11" width="1.26" height="4.09"/>
			
				<rect x="133.83" y="265.22" transform="matrix(0.997 -0.0774 0.0774 0.997 -20.2806 11.2078)" class="st11" width="1.26" height="4.09"/>
			<path class="st11" d="M130.58,270.92c-0.03,0-0.05,0-0.08,0c-1.67-0.09-2.62-0.98-2.66-1.02c-0.25-0.24-0.26-0.64-0.02-0.89
				c0.24-0.25,0.64-0.26,0.89-0.02c0.02,0.02,0.67,0.61,1.86,0.67c0.02,0,0.03,0,0.05,0c1.23,0,10.14-1.75,15.56-2.87
				c0.34-0.07,0.67,0.15,0.74,0.49s-0.15,0.67-0.49,0.74C144.99,268.33,132.39,270.92,130.58,270.92"/>
		</g>
		<g class="st0">
			<defs>
				<path id="SVGID_9_" d="M138.56,250.75c-0.5,0.74,0.13,4.74-0.68,6.26c-0.81,1.52-7.77,4.41-8.63,5.82
					c-0.87,1.41-0.23,3.61,2.37,3.69c2.6,0.08,12.63-1.64,14.28-3.5c0.81-0.91,0.99-11.89,0.68-12.49c-0.14-0.27-1.66-0.4-3.35-0.4
					C141.15,250.13,138.84,250.34,138.56,250.75"/>
			</defs>
			<clipPath id="SVGID_10_">
				<use xlink:href="#SVGID_9_"  style="overflow:visible;"/>
			</clipPath>
			<path class="st12" d="M146.58,250.54c-0.31-0.6-7.51-0.53-8.01,0.21c-0.5,0.74,0.13,4.75-0.68,6.26
				c-0.81,1.52-7.77,4.41-8.63,5.82c-0.87,1.41-0.23,3.61,2.37,3.69c2.6,0.08,12.63-1.64,14.28-3.5
				C146.7,262.12,146.88,251.14,146.58,250.54"/>
			<path class="st13" d="M134.52,262.13c-0.14,0-0.26-0.09-0.3-0.23l-0.79-2.73c-0.05-0.17,0.05-0.34,0.22-0.39
				c0.16-0.05,0.34,0.05,0.39,0.21l0.79,2.73c0.05,0.17-0.05,0.34-0.21,0.39C134.58,262.13,134.55,262.13,134.52,262.13"/>
			<path class="st13" d="M137.45,260.63c-0.1,0-0.19-0.04-0.25-0.13l-1.85-2.51c-0.1-0.14-0.07-0.34,0.07-0.44
				c0.14-0.1,0.34-0.07,0.44,0.07l1.85,2.51c0.1,0.14,0.07,0.34-0.07,0.44C137.58,260.61,137.51,260.63,137.45,260.63"/>
			<path class="st13" d="M139.89,258.01c-0.05,0-0.09-0.01-0.14-0.03c-2.93-1.46-2.98-1.55-3.03-1.66
				c-0.08-0.15-0.02-0.34,0.14-0.42c0.12-0.06,0.27-0.04,0.37,0.06c0.22,0.15,1.76,0.94,2.81,1.46c0.16,0.08,0.22,0.27,0.14,0.42
				C140.11,257.94,140,258.01,139.89,258.01"/>
			<path class="st13" d="M140.29,254.81c-0.01,0-0.02,0-0.03,0c-1.34-0.15-2.84-0.29-3.02-0.27c-0.17,0.01-0.33-0.11-0.34-0.28
				c-0.02-0.17,0.09-0.32,0.26-0.35c0.26-0.04,2.31,0.18,3.18,0.27c0.17,0.02,0.3,0.17,0.28,0.35
				C140.58,254.69,140.45,254.81,140.29,254.81"/>
		</g>
		<g class="st0">
			<defs>
				<rect id="SVGID_11_" x="96.28" y="22.98" width="133.59" height="247.94"/>
			</defs>
			<clipPath id="SVGID_12_">
				<use xlink:href="#SVGID_11_"  style="overflow:visible;"/>
			</clipPath>
			<path class="st14" d="M152.29,161.35c-0.17,0.21-0.33,0.39-0.48,0.54c-2.04,2.04-8.81,1.89-15.41,2.36
				c-1.32,0.09-2.53,0.3-3.65,0.55c-1.74-4.66-4.54-12.89-3.5-14.67c1.47-2.52,14.68,9.54,21.96,11.01
				C151.58,161.21,151.94,161.28,152.29,161.35"/>
			<path class="st14" d="M162.21,133.16c-9.08-2.5-23.03-7.19-23.03-7.19l0.01-0.01c1.35-0.06,2.71-0.15,4.06-0.26
				c3.62-0.33,6.91-2.01,10.6-1.04C157.94,125.72,160.77,129.08,162.21,133.16"/>
			<path class="st14" d="M116.24,133.21c-0.59,0-0.93-0.01-0.95-0.01c-0.17-0.01-0.31-0.15-0.3-0.33c0.01-0.17,0.15-0.29,0.33-0.3
				c0.08,0,7.88,0.25,14.15-1.72c4.91-1.54,8.67-4.53,8.7-4.56c0.14-0.11,0.33-0.09,0.44,0.05c0.11,0.14,0.09,0.33-0.05,0.44
				c-0.04,0.03-3.88,3.09-8.91,4.67C124.58,133.04,118.53,133.21,116.24,133.21"/>
			<path class="st14" d="M106.85,100.52c-0.01,0-0.01,0-0.02,0c-0.17-0.01-0.31-0.16-0.29-0.33c0.02-0.25,0.43-6.09,2.34-8.88
				c1.9-2.77,5.21-5.05,5.35-5.14c0.14-0.1,0.34-0.06,0.44,0.08c0.1,0.14,0.06,0.34-0.08,0.44c-0.03,0.02-3.35,2.31-5.19,4.98
				c-1.82,2.65-2.23,8.51-2.24,8.57C107.16,100.39,107.02,100.52,106.85,100.52"/>
			<path class="st14" d="M130.61,90.93c-0.16,0-0.3-0.13-0.31-0.29l-0.43-6.05c-0.01-0.17,0.12-0.32,0.29-0.34
				c0.16-0.01,0.32,0.12,0.34,0.29l0.43,6.05c0.01,0.17-0.12,0.32-0.29,0.34C130.62,90.93,130.61,90.93,130.61,90.93"/>
			<path class="st15" d="M134.31,207.15c-0.03,0-0.05,0-0.08-0.01c-0.17-0.04-0.27-0.21-0.23-0.38l1.01-3.98
				c0.04-0.17,0.21-0.27,0.38-0.23c0.17,0.04,0.27,0.21,0.23,0.38l-1.01,3.98C134.58,207.06,134.45,207.15,134.31,207.15"/>
			<path class="st15" d="M187.63,145.3c-0.1,0-0.2-0.05-0.26-0.14l-2.31-3.51c-0.09-0.14-0.05-0.34,0.09-0.44
				c0.14-0.09,0.34-0.06,0.44,0.09l2.31,3.51c0.09,0.14,0.05,0.34-0.09,0.44C187.75,145.29,187.69,145.3,187.63,145.3"/>
			<path class="st15" d="M116.78,90.47c-0.22,0.37-0.39,0.78-0.52,1.19c-0.12,0.39,0.49,0.55,0.61,0.17
				c0.13-0.41,0.3-0.81,0.35-1.24C117.24,90.34,116.89,90.28,116.78,90.47"/>
			<path class="st15" d="M120.07,101.81c-0.01-0.25-0.03-0.52-0.18-0.73c-0.13-0.17-0.46-0.19-0.51,0.07
				c-0.04,0.24-0.03,0.47-0.03,0.71c0,0.26-0.04,0.52,0.02,0.77c0.08,0.33,0.56,0.32,0.65,0
				C120.1,102.37,120.08,102.07,120.07,101.81"/>
			<path class="st15" d="M114.85,101.44c-0.02-0.11-0.18-0.18-0.27-0.11c-0.52,0.39-0.6,1.32-0.52,1.92c0.05,0.34,0.6,0.26,0.6-0.08
				c-0.01-0.32,0-0.63,0.08-0.94C114.82,101.95,114.9,101.72,114.85,101.44"/>
			<path class="st15" d="M117.62,112.48c-0.01-0.26,0.01-0.58-0.15-0.8c-0.09-0.14-0.27-0.14-0.37,0c-0.16,0.23-0.14,0.54-0.15,0.8
				c-0.01,0.29-0.06,0.63,0.07,0.89c0.1,0.19,0.42,0.19,0.52,0C117.69,113.11,117.64,112.77,117.62,112.48"/>
			<path class="st15" d="M123.79,121.21c-0.08-0.41-0.06-0.88-0.25-1.27c-0.06-0.13-0.27-0.12-0.33,0
				c-0.23,0.45-0.21,1.06-0.01,1.52C123.36,121.81,123.85,121.55,123.79,121.21"/>
			<path class="st15" d="M123.17,93.39c-0.04-0.26-0.13-0.54-0.39-0.64c-0.06-0.03-0.13,0.02-0.17,0.07
				c-0.14,0.19-0.11,0.51-0.11,0.74c-0.01,0.28-0.06,0.61,0.1,0.85c0.13,0.18,0.37,0.18,0.49,0
				C123.28,94.14,123.22,93.7,123.17,93.39"/>
			<path class="st15" d="M128.26,100.13c-0.08-0.12-0.25-0.12-0.33,0c-0.26,0.38-0.25,1.17-0.06,1.57c0.08,0.17,0.38,0.17,0.45,0
				C128.5,101.3,128.51,100.51,128.26,100.13"/>
			<path class="st15" d="M127.1,88.94c-0.03-0.18-0.11-0.35-0.15-0.54c-0.04-0.19-0.07-0.37-0.16-0.53c-0.07-0.12-0.26-0.13-0.32,0
				c-0.19,0.36-0.14,1.05,0.18,1.34C126.86,89.4,127.14,89.2,127.1,88.94"/>
			<path class="st15" d="M130.69,118.52c-0.09-0.12-0.32-0.08-0.38,0.05c-0.13,0.28-0.08,0.59-0.06,0.89
				c0.03,0.51,0.76,0.42,0.69-0.09C130.9,119.07,130.88,118.76,130.69,118.52"/>
			<path class="st15" d="M117.32,122.31c-0.29-0.51-0.11-1.06-0.28-1.58c-0.05-0.16-0.28-0.16-0.33,0
				c-0.19,0.57-0.23,1.44,0.18,1.92C117.1,122.89,117.47,122.58,117.32,122.31"/>
			<path class="st15" d="M121.88,127.64c-0.05-0.18-0.31-0.18-0.36,0c-0.12,0.44-0.14,0.96-0.11,1.41c0.02,0.38,0.57,0.38,0.59,0
				C122.02,128.6,122,128.08,121.88,127.64"/>
			<path class="st15" d="M112.74,109.25c-0.07-0.16-0.29-0.09-0.34,0.04c-0.2,0.53-0.33,1.25-0.23,1.81
				c0.06,0.37,0.61,0.26,0.63-0.09c0.02-0.32,0.03-0.64,0.06-0.96C112.88,109.78,112.86,109.52,112.74,109.25"/>
			<path class="st15" d="M130.78,109.06c-0.16-0.51-0.07-1.03-0.19-1.55c-0.04-0.18-0.32-0.18-0.37,0c-0.14,0.55-0.14,1.15,0.01,1.7
				C130.33,109.57,130.89,109.41,130.78,109.06"/>
			<path class="st15" d="M130.03,94.88c-0.05-0.24-0.12-0.49-0.27-0.69c-0.04-0.05-0.12-0.08-0.17-0.02
				c-0.17,0.19-0.17,0.46-0.15,0.69c0.03,0.35,0.06,0.72,0.13,1.06c0.07,0.35,0.59,0.25,0.6-0.08
				C130.19,95.53,130.09,95.19,130.03,94.88"/>
			<path class="st15" d="M111.8,95.05c-0.24,0.25-0.42,0.52-0.51,0.86c-0.09,0.32-0.17,0.66,0.06,0.93c0.09,0.1,0.26,0.09,0.35,0
				c0.2-0.21,0.17-0.48,0.24-0.74c0.07-0.28,0.14-0.56,0.2-0.85C112.18,95.06,111.95,94.89,111.8,95.05"/>
			<path class="st15" d="M129.46,126.45c-0.09-0.32-0.09-0.64-0.13-0.97c-0.01-0.14-0.07-0.64-0.33-0.53
				c-0.27,0.11-0.26,0.44-0.27,0.69c-0.01,0.33,0.02,0.67,0.09,0.98C128.92,127.04,129.57,126.86,129.46,126.45"/>
			<path class="st15" d="M124.28,111.55c-0.11-0.52-0.08-1.05-0.09-1.58c-0.01-0.38-0.58-0.38-0.59,0c-0.02,0.59-0.1,1.17,0.05,1.75
				C123.76,112.13,124.36,111.96,124.28,111.55"/>
		</g>
	</g>
</g>
</svg>
