<?xml version="1.0" encoding="utf-8"?>
<!-- Generator: Adobe Illustrator 25.2.1, SVG Export Plug-In . SVG Version: 6.00 Build 0)  -->
<svg version="1.1" id="Layer_1" xmlns="http://www.w3.org/2000/svg" xmlns:xlink="http://www.w3.org/1999/xlink" x="0px" y="0px"
	 viewBox="0 0 232.56 164.87" style="enable-background:new 0 0 232.56 164.87;" xml:space="preserve">
<style type="text/css">
	.st0{clip-path:url(#SVGID_2_);}
	.st1{clip-path:url(#SVGID_4_);fill:#9C500B;}
	.st2{clip-path:url(#SVGID_4_);fill:#748ECC;}
	.st3{clip-path:url(#SVGID_4_);fill:#874000;}
	.st4{clip-path:url(#SVGID_4_);fill:#452107;}
	.st5{clip-path:url(#SVGID_4_);fill:#803C00;}
	.st6{clip-path:url(#SVGID_4_);fill:#FFFFFF;}
	.st7{clip-path:url(#SVGID_4_);fill:#022650;}
	.st8{clip-path:url(#SVGID_4_);fill:#FF8533;}
	.st9{clip-path:url(#SVGID_4_);fill:#322E3D;}
	.st10{clip-path:url(#SVGID_4_);fill:#044C9F;}
	.st11{clip-path:url(#SVGID_6_);}
	.st12{clip-path:url(#SVGID_8_);fill:#FF8D29;}
	.st13{clip-path:url(#SVGID_8_);fill:#FFE17F;}
	.st14{clip-path:url(#SVGID_8_);fill:#FFFFFF;}
	.st15{clip-path:url(#SVGID_8_);fill:#F0760C;}
	.st16{clip-path:url(#SVGID_8_);fill:#022650;}
	.st17{clip-path:url(#SVGID_8_);fill:#E785EA;}
	.st18{clip-path:url(#SVGID_8_);fill:#FFDEBA;}
	.st19{clip-path:url(#SVGID_8_);fill:#452107;}
	.st20{clip-path:url(#SVGID_8_);fill:#E86519;}
	.st21{clip-path:url(#SVGID_8_);fill:#322E3D;}
	.st22{clip-path:url(#SVGID_8_);fill:#28A428;}
	.st23{clip-path:url(#SVGID_10_);fill:#28A428;}
	.st24{clip-path:url(#SVGID_10_);fill:#FFFFFF;}
	.st25{clip-path:url(#SVGID_12_);fill:#044C9F;}
	.st26{clip-path:url(#SVGID_12_);fill:#FFFFFF;}
</style>
<g>
	<g id="Artwork_10_1_">
		<g>
			<defs>
				<rect id="SVGID_1_" x="0" width="101.09" height="164.87"/>
			</defs>
			<clipPath id="SVGID_2_">
				<use xlink:href="#SVGID_1_"  style="overflow:visible;"/>
			</clipPath>
			<g class="st0">
				<defs>
					<rect id="SVGID_3_" x="0" width="101.09" height="164.87"/>
				</defs>
				<clipPath id="SVGID_4_">
					<use xlink:href="#SVGID_3_"  style="overflow:visible;"/>
				</clipPath>
				<path class="st1" d="M62.68,106.53l-1.66,32.08l-1.13,21.88l-0.02,0.39l-2.95,0.43c0,0-0.01-0.03-0.03-0.1
					c-0.43-1.53-5.84-20.97-5.49-25.65c0.19-2.56,0.63-3.8,0.82-5.03c0.17-1.11,0.13-2.22-0.49-4.3
					c-0.71-2.39-3.41-19.74-3.41-19.74L62.68,106.53z"/>
				<path class="st2" d="M56.89,161.2c0,0,0.09,3.24,0.58,3.6c0.49,0.36,9.34-0.79,9.76-1.49c0.42-0.7-3.09-1.72-5.05-2.07
					c-1.96-0.35-2.29-0.75-2.29-0.75L56.89,161.2z"/>
				<path class="st3" d="M62.68,106.53l-1.66,32.08c-0.83-0.66-1.87-1.52-3.19-2.6c-2.22-1.83-4.13-3.78-5.61-5.47
					c0.17-1.11,0.13-2.22-0.49-4.3c-0.71-2.39-3.41-19.74-3.41-19.74L62.68,106.53z"/>
				<path class="st4" d="M64.33,49.09c0.02-0.03,0.05-0.06,0.07-0.09c0.03-0.04-0.02-0.11-0.07-0.09c-0.09,0.03-0.18,0.06-0.27,0.08
					c-0.02-0.01-0.04-0.02-0.06-0.02c-0.1-0.03-0.18,0-0.22,0.07c-0.75,0.06-1.43-0.34-2.15-0.65c-0.67-0.29-1.26-0.43-2-0.4
					c-0.54,0.02-1.08,0.1-1.57,0.31c-0.32,0.14-0.58,0.36-0.88,0.54c-0.41,0.23-0.85,0.33-1.29,0.49c-1.18,0.43-2.36,1.24-2.97,2.28
					c-0.78,1.33-0.42,2.96-0.26,4.39c0.01,0.07,0.04,0.13,0.09,0.17c0.05,0.91,0,1.91,0.53,2.69c0.51,0.75,1.64,1.11,2.48,1.43
					c0.84,0.32,1.62,0.59,2.5,0.26c0.77-0.28,1.35-0.88,1.83-1.48c0.64-0.79,1.14-1.68,1.73-2.5c0.75-1.06,1.73-1.99,2.42-3.08
					c0.53-0.84,0.99-1.99,1.05-2.96C65.34,49.8,64.94,49.35,64.33,49.09"/>
				<path class="st4" d="M50.93,58.55c-0.55-0.84-1.17-1.62-1.62-2.52c-0.32-0.64-0.61-1.25-1.38-1.48c-0.06-0.02-0.11-0.01-0.15,0
					c-1.96-1.06-4.98-0.72-6.45,0.73c-0.7,0.69-1.32,1.13-2.25,1.54c-0.84,0.37-1.71,0.78-2.31,1.44c-0.88,0.95-1.44,2.42-0.9,3.63
					c0.28,0.62,0.8,1.08,1.37,1.49c0.87,0.63,1.14,1.39,1.77,2.17c0.76,0.93,2.19,1.3,3.34,0.77c0.37-0.18,0.67-0.45,1.04-0.65
					c0.5-0.27,1.04-0.29,1.6-0.27c0.86,0.04,1.69,0.18,2.54-0.03c0.68-0.17,1.39-0.48,1.9-0.93c0.33-0.29,0.48-0.7,0.8-0.99
					c0.33-0.29,0.71-0.43,1.01-0.77C52.35,61.44,51.72,59.78,50.93,58.55"/>
				<path class="st1" d="M90.37,90.51l-1.16,1.71c0,0-3.79-1.21-8.88-3.57c-6.24-2.9-7.64-4.59-7.64-4.59
					c-0.24-0.2-0.48-0.42-0.72-0.65c-1.62-1.53-3.22-3.6-4.11-4.7c-1.16-1.44-2.36-2.61-3.44-4.1c-0.37-0.51-0.8-1.16-1.16-1.83
					c-0.95-1.82-1.36-3.9,1.33-4.55c1.54-0.37,3.31,1,4.92,2.68c0.88,0.92,1.72,1.94,2.43,2.81c1.21,1.47,2.64,3.78,3.48,5.46
					c0.15,0.3,0.32,0.56,0.5,0.8c1.22,1.6,3.09,1.89,4.9,3.17c1.36,0.96,2.7,1.93,4.01,2.94C86.71,87.53,88.56,89.01,90.37,90.51"/>
				<path class="st1" d="M55.33,61.83c0,0-2.39-11.55-2.27-12.58c0.13-1.03,0.49-1.78,0.87-4.81c0.37-3.04,1.8-14.85,1.8-14.85
					l-2.17-0.55c0,0-3.24,8.34-4.87,12.93c-1.74,4.89-1.34,8.21-1.1,14.4c0.24,6.18,1.61,13.03,1.61,13.03s4.88-4.35,5.12-4.7
					C54.55,64.35,55.33,61.83,55.33,61.83"/>
				<path class="st1" d="M52.95,29.14c-0.13-0.99,0-2.01,0.25-2.98c0.15-0.61,0.95-1.11,1.53-1.46c0.52-0.31,1.12-0.47,1.71-0.61
					c0.2-0.05,0.44-0.09,0.6,0.04c0.13,0.11,0.14,0.3,0.13,0.46c-0.03,0.62-0.11,1.25-0.23,1.86c-0.04,0.23-0.09,0.45-0.06,0.68
					c0.03,0.23,0.16,0.46,0.38,0.56c0.29,0.13,0.76,0.72,0.61,0.87c-0.92,0.88-1.92,1.81-3.21,2.05c-0.14,0.03-0.29,0.04-0.43-0.01
					c-0.23-0.09-0.32-0.33-0.38-0.55C53.75,29.72,52.99,29.49,52.95,29.14"/>
				<path class="st1" d="M66.35,54.75c0.06,0.19,0.13,0.39,0.19,0.62c0.25,0.89,0.45,2.03,0.5,3.46c0.11,2.85-1.54,4.26-2.94,4.61
					c-2.28,0.57-4.28-1.36-5.41-2.57c-1.13-1.21-1.98-4.41-1.98-4.41s0.61-4.4,4.26-5.04c3.65-0.65,4.3,1.29,4.3,1.29
					S65.85,53.31,66.35,54.75"/>
				<path class="st1" d="M65.41,67.49l-2.89,4.66l-6.02-1.06l-3.14-4.29c0,0,1.79-0.97,3.03-2.48c1.24-1.5,1.04-8.63,1.04-8.63
					l6.24,6.43c0,0-0.16,0.45-0.34,1.02c-0.05,0.17-0.1,0.33-0.15,0.5l0,0c-0.05,0.18-0.1,0.37-0.14,0.55
					c-0.05,0.23-0.16,0.55-0.16,0.81c0,0.08,0.01,0.15,0.03,0.22C63.09,65.7,65.41,67.49,65.41,67.49"/>
				<path class="st1" d="M58.17,57.23c0,0-0.92-1.51-1.85-0.71c-0.93,0.8-0.07,2.73,0.7,3.15c0.77,0.41,0.89,0.52,0.91,0.43
					C57.94,60.02,58.17,57.23,58.17,57.23"/>
				<path class="st4" d="M61.28,57.02c-0.06-0.08-0.14-0.13-0.24-0.13c-0.3,0-0.26,0.34-0.18,0.52c0.07,0.15,0.23,0.26,0.41,0.18
					c0.14-0.06,0.16-0.2,0.13-0.33C61.37,57.18,61.33,57.09,61.28,57.02"/>
				<path class="st4" d="M66.45,56.36c-0.05-0.07-0.12-0.12-0.22-0.12c-0.27,0-0.23,0.31-0.17,0.46c0.06,0.14,0.21,0.24,0.37,0.17
					c0.12-0.06,0.14-0.18,0.12-0.3C66.53,56.5,66.5,56.42,66.45,56.36"/>
				<path class="st4" d="M61.31,55.52c-0.04,0-0.07,0-0.11,0.01c-0.48,0.03-0.98,0.13-1.37,0.4c-0.16,0.11-0.33,0.33-0.09,0.47
					c0.24,0.13,0.68-0.08,0.91-0.16c0.24-0.08,0.49-0.1,0.75-0.13c0.17-0.02,0.44-0.01,0.46-0.22c0.01-0.15-0.12-0.3-0.27-0.34
					C61.5,55.53,61.4,55.52,61.31,55.52"/>
				<path class="st4" d="M66.37,54.8c0.06,0.19,0.13,0.39,0.19,0.62c-0.24-0.01-0.48,0.03-0.72,0.06c-0.17,0.02-0.43,0.1-0.51-0.09
					c-0.05-0.13,0.04-0.32,0.16-0.39c0.08-0.05,0.17-0.08,0.26-0.1c0.03-0.01,0.07-0.02,0.11-0.02
					C66.02,54.83,66.2,54.81,66.37,54.8"/>
				<path class="st3" d="M63.21,63.54c-0.05,0.18-0.14,0.47-0.18,0.65c-0.05,0.23-0.16,0.55-0.16,0.81
					c-0.4-0.13-0.92-0.36-1.39-0.69c-0.89-0.63-1.36-1.47-1.02-1.71c0.2-0.14,0.82,0.31,1.24,0.5
					C62.6,63.51,63.16,63.53,63.21,63.54"/>
				<path class="st5" d="M65.14,58.55c-0.02-0.02-0.03-0.04-0.05-0.06c-0.15-0.17-0.32-0.32-0.47-0.48
					c-0.15-0.17-0.21-0.3-0.31-0.57c-0.06-0.15-0.09-0.49-0.14-0.53c-0.19-0.19-0.24,0.38-0.24,0.48c0,0.51,0.23,1.84,1.05,1.69
					C65.33,59.01,65.29,58.76,65.14,58.55"/>
				<path class="st3" d="M57.17,59.12c-0.03,0-0.06-0.01-0.08-0.02c-0.1-0.04-0.14-0.15-0.1-0.24c0,0,0.15-0.3,0.18-0.72
					c0.05-0.64-0.19-1.08-0.19-1.09c-0.05-0.09-0.01-0.2,0.09-0.25c0.1-0.04,0.22-0.01,0.27,0.08c0.01,0.02,0.29,0.53,0.23,1.27
					c-0.04,0.49-0.2,0.83-0.21,0.84C57.32,59.08,57.25,59.12,57.17,59.12"/>
				<path class="st6" d="M62.97,59.84c0.23,0.03,0.6,0.18,0.83,0.21c0.31,0.04,0.9-0.24,1.19-0.05c0.22,0.14,0.18,0.4,0.03,0.57
					c-0.19,0.21-0.52,0.34-0.81,0.39c-0.38,0.06-0.89-0.05-1.24-0.26c-0.19-0.11-0.46-0.35-0.43-0.56
					C62.57,59.93,62.75,59.81,62.97,59.84"/>
				<path class="st7" d="M48.66,81.3c-0.16,3.04-0.46,6.08-0.75,9.12l13.68,6.88c0,0,2.54-5.81,4.23-10.9
					c2.71-8.16,3.17-10.12,3.17-13.17c0-1.6-1.84-4.93-3.06-6.04c-0.68-0.62-3.02-1.98-3.02-1.98s-1.2-0.16-2.19-0.31
					c-2.78-0.41-5.42-1.73-8.3-1.46c-1.42,0.13-2.75,0.89-3.52,1.99c-1.22,1.74-0.63,3.89-0.44,5.8
					C48.78,74.6,48.83,77.94,48.66,81.3"/>
				<path class="st3" d="M75.92,79.97l-3.95,3.45c-1.62-1.53-3.22-3.6-4.11-4.7c-1.16-1.44-2.36-2.61-3.44-4.1
					c-0.37-0.51-0.8-1.16-1.16-1.83c0.46-1.13,1.82-1.3,6.25-1.87c0.88,0.92,1.72,1.94,2.43,2.81c1.21,1.47,2.64,3.78,3.48,5.46
					C75.57,79.47,75.74,79.73,75.92,79.97"/>
				<path class="st1" d="M52.46,106.98c0,0-0.51,0.78-1.33,2.04c-1.11,1.68-2.8,4.22-4.63,6.9c-3.78,5.53-7.66,11.07-9.79,11.62
					c-2.87,0.74-28.28-5.41-30.63-6c-0.11-0.03-0.17-0.04-0.17-0.04l0.69-2.88c0,0,16.87-1.74,20.7-1.13
					c2.89,0.46,5.36,1.29,5.52,1.05c0.08-0.11,1.25-3.58,2.47-7.22c1.36-4.05,2.78-8.3,2.78-8.3l9.1,2.5L52.46,106.98z"/>
				<path class="st2" d="M6.61,118.61c0,0-3.27-1.23-3.83-0.97c-0.56,0.26-3.22,8.11-2.71,8.76c0.51,0.64,3.01-1.84,4.2-3.32
					c1.18-1.48,1.82-1.54,1.82-1.54L6.61,118.61z"/>
				<path class="st3" d="M51.13,109.01c-1.11,1.68-2.8,4.22-4.63,6.9c-1.37-0.22-3.08-0.64-4.92-1.41
					c-2.24-0.93-4.53-2.16-6.27-3.18c1.36-4.05,2.78-8.3,2.78-8.3l9.1,2.5C48.6,106.71,50,107.95,51.13,109.01"/>
				<path class="st7" d="M66.87,112.3c-0.33,0.55-2.52,0.31-4.45,0.61c-1.93,0.3-3.55,0.92-5.77,0.46c-0.78-0.17-1.49-0.42-2.17-0.7
					c-1.24-0.5-2.42-1.08-3.92-1.32c-0.49-0.08-1.04-0.14-1.59-0.19c-2.08-0.21-4.39-0.33-5.33-0.91c-0.66-0.4-1.19-1.03-1.82-1.66
					c-0.52-0.52-1.1-1.05-1.85-1.46c-1.16-0.63-4.64-1.78-6.7-2.65h0c-0.94-0.39-1.58-0.73-1.58-0.93c0-0.64,4.38-6.88,7.87-10.18
					c3.49-3.3,8.69-6.25,8.69-6.25l16.34,2.42c0,0,1.08,6.92,1.33,11.25C66.1,104.1,67.2,111.75,66.87,112.3"/>
				<path class="st7" d="M56.63,63.93c0,0-1.39-7.37-2.09-9.62c-0.38-1.22-7.12,1.41-7.32,2.13c-0.2,0.73,0.93,11.97,0.93,11.97
					l8.48,0.43V63.93z"/>
				<path class="st7" d="M68.46,80.36c-0.06,0.01-0.12,0-0.18-0.01h0c-0.11-0.03-0.22-0.08-0.33-0.15l-0.01-0.01
					c-0.55-0.37-1.14-1.24-1.99-1.63c-1.13-0.52-2.74-2.81-2.73-3.6c0.01-0.8-1.21-3.12-0.3-4.1c0.91-0.98,0-5.64,0-5.64
					s1.81,0.27,3.39,0.9c0.59,0.24,1.16,0.54,1.57,0.89c1.53,1.28,5.71,7.95,5.91,8.8C73.98,76.67,69.19,80.29,68.46,80.36"/>
				<path class="st1" d="M89.79,89.96c0,0,1.96-0.14,2.57,0.1c0.61,0.24,0.46,0.64,0.73,0.89c0.27,0.25,1.51,0.61,1.34,1.16
					c-0.17,0.56-1.16,1.85-2.08,2c-0.92,0.15-2.21-0.65-2.59-1.07c-0.65-0.72-1.14-1.48-1.14-1.48L89.79,89.96z"/>
				<polygon class="st8" points="88.51,9.58 80.27,0.46 80.58,0.22 88.81,9.35 				"/>
				<polygon class="st8" points="87.35,11.06 78.48,1.23 78.79,1 87.66,10.83 				"/>
				<polygon class="st8" points="86.26,12.61 76.62,1.94 76.93,1.71 86.56,12.38 				"/>
				<polygon class="st8" points="84.78,13.74 75.15,3.07 75.46,2.83 85.09,13.51 				"/>
				<polygon class="st8" points="73.79,12.13 73.54,11.85 86.6,1.85 86.86,2.13 				"/>
				<polygon class="st8" points="75.01,13.49 74.76,13.21 87.83,3.21 88.08,3.49 				"/>
				<polygon class="st8" points="76.6,14.53 76.35,14.25 88.65,4.83 88.9,5.12 				"/>
				<polygon class="st8" points="78.82,15.13 78.56,14.85 88.88,6.95 89.14,7.23 				"/>
				<polygon class="st8" points="72.67,8.32 72.41,8.04 82.74,0.14 82.99,0.42 				"/>
				<polygon class="st8" points="72.9,10.43 72.65,10.15 84.95,0.74 85.2,1.02 				"/>
				<polygon class="st8" points="82.93,14.45 74.06,4.62 74.36,4.38 83.23,14.21 				"/>
				<polygon class="st8" points="81.13,15.22 72.9,6.1 73.21,5.87 81.44,14.99 				"/>
				<polygon class="st9" points="58.54,25.18 58.04,24.62 73.71,12.62 74.22,13.19 				"/>
				<path class="st8" d="M50.64,30.75L50.64,30.75c-0.34-0.37-0.28-0.93,0.12-1.24l6.78-5.19c0.41-0.31,1.01-0.26,1.35,0.11
					c0.34,0.38,0.28,0.93-0.12,1.24l-6.78,5.19C51.59,31.17,50.98,31.12,50.64,30.75"/>
				<path class="st9" d="M79.52,15.61c-2.29,0-4.45-0.82-5.91-2.44c-2.82-3.13-1.97-8.08,1.9-11.04c3.87-2.96,9.32-2.83,12.14,0.3
					c2.82,3.13,1.97,8.08-1.9,11.04h0C83.88,14.91,81.65,15.61,79.52,15.61 M81.74,0.73c-1.95,0-4,0.65-5.72,1.97
					c-3.53,2.7-4.34,7.19-1.8,10.01c2.54,2.82,7.48,2.91,11.02,0.2c3.53-2.7,4.34-7.19,1.8-10.01C85.73,1.46,83.79,0.73,81.74,0.73"
					/>
				<path class="st1" d="M57.86,28.56c0,0,0.62-0.87,0.53-1.58c-0.11-0.94-0.4-2.13-0.92-2.09c-0.78,0.07-0.57,1.18-0.54,1.55
					c0.02,0.37-0.28,1.01-0.28,1.01v0.8C56.65,28.43,57.86,28.56,57.86,28.56"/>
				<path class="st4" d="M67.21,49.52c-0.37-0.48-0.62-1.22-1.2-1.47c-0.6-0.25-1.33-0.02-1.86,0.27c-0.89,0.48-1.44,1.35-2.46,1.62
					c-0.37,0.1-0.75,0.1-1.08,0.31c-0.18,0.11-0.29,0.26-0.4,0.41c-1.22,0.38-2.45,1.31-3.21,2.19c-0.57,0.66-1.44,1.96-1.03,2.86
					c0.13,0.28,0.31,0.42,0.51,0.47c0.24,0.26,0.7,0.3,1.06,0.14c0.36-0.16,0.52-0.51,0.76-0.78c0.4-0.45,0.64-0.52,1.2-0.7
					c0.35-0.12,0.73-0.37,0.95-0.65c0.26-0.35,0.43-0.56,0.8-0.84c0.51-0.38,0.67-0.85,0.67-1.38c0,0,0.01-0.01,0.01-0.01
					c0.73,0.48,1.66,0.29,2.4,0.75c0.25,0.15,0.47,0.36,0.76,0.44c0.32,0.09,0.55,0.12,0.83,0.28c0.26,0.15,0.56,0.25,0.87,0.27
					c0.66,0.05,1.2-0.31,1.53-0.82c0.46-0.71,0.28-1.56-0.13-2.26c-0.23-0.38-0.57-0.67-0.87-0.99
					C67.27,49.59,67.24,49.55,67.21,49.52"/>
				<path class="st10" d="M68.46,80.36c-0.06,0.01-0.12,0-0.18-0.01h0l-0.33-0.15l-0.01-0.01c0,0,1-4.96,0.64-7.4
					c-0.36-2.43-2.28-6.64-2.28-6.67l0,0c0.59,0.24,1.16,0.54,1.57,0.89c1.53,1.28,5.71,7.95,5.91,8.8
					C73.98,76.67,69.19,80.29,68.46,80.36"/>
				<path class="st6" d="M58.65,67.34c-0.48,0-1.36-1.61-2.02-2.97c-0.05-0.09,0-0.2,0.1-0.24c0.1-0.04,0.22,0,0.26,0.09
					c0.6,1.24,1.42,2.65,1.68,2.75c0.21-0.04,1.07-1,1.73-1.87c0.06-0.08,0.19-0.1,0.28-0.05c0.09,0.06,0.11,0.17,0.05,0.25
					C60.16,66.08,59.13,67.34,58.65,67.34"/>
				<path class="st6" d="M62.27,67.64c-0.34,0-0.76-0.56-1.53-2.04c-0.06-0.11-0.09-0.18-0.11-0.2c-0.08-0.07-0.06-0.17,0.02-0.25
					c0.08-0.07,0.22-0.06,0.29,0.02c0.03,0.03,0.04,0.05,0.16,0.27c0.73,1.4,1.03,1.75,1.16,1.82c0.16-0.15,0.43-1,0.58-1.87
					c0.02-0.1,0.12-0.17,0.23-0.15c0.11,0.02,0.18,0.11,0.16,0.21c-0.13,0.75-0.42,2.02-0.86,2.17
					C62.34,67.64,62.3,67.64,62.27,67.64"/>
				<path class="st6" d="M63.04,90.13c-1.47,0-4.2-0.09-6.7-0.63c-3.62-0.79-7.63-2.11-7.67-2.12c-0.1-0.03-0.16-0.14-0.12-0.23
					c0.04-0.09,0.15-0.14,0.26-0.11c0.04,0.01,4.03,1.32,7.63,2.11c3.58,0.78,7.64,0.6,7.68,0.6c0.11-0.02,0.2,0.07,0.21,0.17
					c0.01,0.1-0.08,0.19-0.19,0.19C64.11,90.11,63.7,90.13,63.04,90.13"/>
				<path class="st10" d="M43.1,104.17c-0.39,1.47-0.87,3.06-1.29,4.42c-0.52-0.52-1.1-1.05-1.85-1.46
					c-1.16-0.63-4.64-1.78-6.7-2.65c2.25-2.45,6.41-6.7,8.97-7.77C45.89,95.19,44.03,100.69,43.1,104.17"/>
				<path class="st6" d="M49.36,72.9c-0.04,0-0.06,0-0.07,0c-0.11-0.01-0.19-0.09-0.18-0.2c0.01-0.1,0.11-0.17,0.21-0.17
					c0.02,0,2.04,0.08,4.83-2.43c2.95-2.66,2.09-5.38,2.08-5.41c-0.03-0.1,0.03-0.2,0.13-0.23c0.1-0.03,0.22,0.02,0.25,0.12
					c0.04,0.12,0.95,2.96-2.18,5.78C51.75,72.77,49.76,72.9,49.36,72.9"/>
				<path class="st6" d="M60.56,68.86c-0.11,0-0.2-0.08-0.2-0.18v-0.91c0-0.1,0.09-0.18,0.2-0.18c0.11,0,0.2,0.08,0.2,0.18v0.91
					C60.76,68.78,60.67,68.86,60.56,68.86"/>
				<path class="st6" d="M60.56,73.3c-0.11,0-0.2-0.08-0.2-0.18v-0.97c0-0.1,0.09-0.18,0.2-0.18c0.11,0,0.2,0.08,0.2,0.18v0.97
					C60.76,73.22,60.67,73.3,60.56,73.3"/>
				<path class="st3" d="M33.03,126.02c-0.08,0-0.15-0.04-0.18-0.11c-0.04-0.09,0.01-0.2,0.11-0.24l2.74-1.05
					c0.1-0.04,0.22,0.01,0.26,0.1c0.04,0.09-0.01,0.2-0.11,0.24L33.11,126C33.08,126.01,33.05,126.02,33.03,126.02"/>
				<path class="st6" d="M0.68,125.83c-0.02,0-0.04,0-0.06-0.01c-0.11-0.03-0.16-0.13-0.13-0.23l2.62-7.64
					c0.03-0.1,0.15-0.15,0.25-0.12c0.11,0.03,0.16,0.13,0.13,0.23l-2.62,7.64C0.84,125.79,0.76,125.83,0.68,125.83"/>
				<path class="st6" d="M57.64,164.34c-0.1,0-0.18-0.07-0.2-0.16c-0.02-0.1,0.06-0.19,0.17-0.21l8.93-1.1
					c0.11-0.02,0.21,0.06,0.22,0.16c0.01,0.1-0.06,0.19-0.17,0.21l-8.93,1.1C57.66,164.34,57.65,164.34,57.64,164.34"/>
				<path class="st10" d="M54.48,112.67c-1.24-0.5-2.42-1.08-3.92-1.32c-0.49-0.08-1.04-0.14-1.59-0.19
					c0.57-3.33,2.12-11.2,3.97-10.83C54.75,100.7,54.63,108.94,54.48,112.67"/>
				<path class="st9" d="M94.52,8.35c0,0.47-0.19,0.85-0.7,0.85c-0.51,0-1.15-0.06-1.15-0.85c0-0.79,0.64-0.85,1.15-0.85
					C94.33,7.49,94.52,7.88,94.52,8.35"/>
				<path class="st8" d="M100.04,10.76c-0.03,0-0.05,0-0.08,0c-0.03,0.01-0.05,0.01-0.08,0l-5.91-1.38
					c-0.09-0.02-0.15-0.09-0.15-0.18V7.49c0-0.08,0.06-0.16,0.15-0.18l5.91-1.38c0.03-0.01,0.06-0.01,0.09,0c0.02,0,0.05,0,0.07,0
					c0.58,0,1.05,0.43,1.05,0.96c0,0.29-0.13,0.55-0.36,0.73c0.22,0.18,0.36,0.44,0.36,0.73c0,0.29-0.13,0.55-0.36,0.73
					c0.22,0.18,0.36,0.44,0.36,0.73C101.09,10.33,100.62,10.76,100.04,10.76 M99.94,10.38c0.01,0,0.01,0,0.02,0
					c0.05,0.01,0.06,0.01,0.08,0.01c0.36,0,0.65-0.27,0.65-0.6c0-0.25-0.16-0.46-0.42-0.55c-0.08-0.03-0.13-0.1-0.13-0.17
					c0-0.08,0.05-0.14,0.13-0.17c0.25-0.09,0.42-0.31,0.42-0.55c0-0.25-0.16-0.46-0.42-0.55c-0.08-0.03-0.13-0.1-0.13-0.17
					c0-0.08,0.05-0.14,0.13-0.17c0.25-0.09,0.42-0.31,0.42-0.55c0-0.35-0.34-0.63-0.71-0.59c-0.02,0-0.03,0-0.05,0l-5.71,1.33v1.42
					l5.7,1.33C99.92,10.38,99.93,10.38,99.94,10.38"/>
				<polygon class="st8" points="95.03,9.42 95.03,7.28 94.02,7.5 94.02,9.2 				"/>
				<polygon class="st8" points="94.54,8.24 94.51,7.88 100.33,7.44 100.36,7.81 				"/>
				<polygon class="st8" points="100.33,9.26 94.59,8.91 94.62,8.54 100.36,8.89 				"/>
				<rect x="95.83" y="7.03" class="st8" width="0.4" height="2.64"/>
				<rect x="97.09" y="6.73" class="st8" width="0.4" height="3.23"/>
				<rect x="98.29" y="6.45" class="st8" width="0.4" height="3.79"/>
			</g>
		</g>
	</g>
	<g id="Artwork_7_1_">
		<g>
			<defs>
				<rect id="SVGID_5_" x="87.13" y="54.83" width="145.43" height="110.03"/>
			</defs>
			<clipPath id="SVGID_6_">
				<use xlink:href="#SVGID_5_"  style="overflow:visible;"/>
			</clipPath>
			<g class="st11">
				<defs>
					<rect id="SVGID_7_" x="87.13" y="54.83" width="145.43" height="110.03"/>
				</defs>
				<clipPath id="SVGID_8_">
					<use xlink:href="#SVGID_7_"  style="overflow:visible;"/>
				</clipPath>
				<path class="st12" d="M175.41,120.49c0,0-3.47,2.28-6.97,4.64c-3.42,2.31-6.88,4.69-7.16,5.07c-0.56,0.77-1.63,4.11-2.74,7.79
					c-0.92,3.05-5.91,9.37-9.92,14.15c-2.9,3.44-5.29,6.07-5.29,6.07s-2.58-1.55-2.63-1.71c-0.21-0.62,1.02-2.7,1.24-3.27
					c0.52-1.31,1.03-2.62,1.55-3.92c0.5-1.25,0.99-2.51,1.5-3.76c1.53-3.84,3.07-7.68,4.63-11.51c1.74-4.3,3.47-8.58,6.21-12.38
					c0.53-0.74,1.06-1.47,1.6-2.21c0.63-0.87,1.26-1.74,1.88-2.6L175.41,120.49z"/>
				<path class="st13" d="M139.03,156.12c0,0,1.23-2.25,2.87-1.29c1.64,0.96,1.89,2.86,1.89,2.86s-1.07,3.8-1.29,4.21
					c-0.22,0.41-7.32,2.5-9.78,2.65c-0.97,0.06-1.94-0.26-0.67-1.88C133.31,161.06,139.03,156.12,139.03,156.12"/>
				<path class="st14" d="M136.85,163.23c-0.1,0-0.2-0.07-0.22-0.18c0-0.01-0.19-0.85-0.78-1.64c-0.57-0.77-1.15-0.95-1.15-0.95
					c-0.12-0.04-0.18-0.16-0.15-0.28c0.04-0.12,0.16-0.18,0.28-0.15c0.03,0.01,0.71,0.21,1.38,1.11c0.66,0.88,0.85,1.78,0.86,1.82
					c0.03,0.12-0.05,0.24-0.17,0.26C136.88,163.23,136.87,163.23,136.85,163.23"/>
				<path class="st15" d="M159.32,116.84l16.09,3.65c0,0-3.47,2.28-6.97,4.64c-4.69-1.28-8.76-3.98-11-5.69
					C158.07,118.57,158.7,117.7,159.32,116.84"/>
				<path class="st12" d="M222.48,153.93l-1.94,2.94c0,0-23.3-12.74-27.62-16.64c-2.34-2.12-6.32-8.36-9.46-13.64
					c-2.66-4.45-4.73-8.22-4.73-8.22l15.21-4.64c0,0,2.19,7.27,3.72,12.31c0.66,2.15,1.19,3.9,1.4,4.5
					c0.67,2.02,5.38,4.34,8.59,6.99C209.65,139.19,222.48,153.93,222.48,153.93"/>
				<path class="st13" d="M219.89,156.87c0,0-0.45-1,0.26-2.29c0.71-1.29,2.57-1.07,3.43-0.66c1.11,0.52,2.11,1.44,3.04,2.2
					c1.56,1.28,2.86,2.82,4.09,4.41c0.57,0.74,2.54,3.02,1.59,4.03c-0.84,0.89-3.35-0.39-4.17-0.76c-1.64-0.73-3.27-1.55-4.68-2.66
					C221.98,159.98,220.82,158.48,219.89,156.87"/>
				<path class="st14" d="M227.35,163.17c-0.04,0-0.07-0.01-0.11-0.03c-0.11-0.06-0.15-0.19-0.09-0.3c0.02-0.03,0.45-0.81,1.33-1.58
					c0.86-0.76,1.5-1.13,1.53-1.15c0.11-0.06,0.24-0.03,0.31,0.08c0.06,0.11,0.03,0.24-0.08,0.3c-0.01,0-0.63,0.37-1.46,1.1
					c-0.82,0.72-1.23,1.45-1.23,1.46C227.51,163.12,227.43,163.17,227.35,163.17"/>
				<path class="st15" d="M197.65,126.03c-0.36,0.03-0.73,0.06-1.12,0.08c-3.66,0.27-8.36,0.5-13.07,0.47
					c-2.66-4.45-4.73-8.22-4.73-8.22l15.21-4.64C193.93,113.72,196.11,121,197.65,126.03"/>
				<path class="st16" d="M199.58,118.83c-0.53,0.23-1.95-0.5-4.08-0.91c-1.91-0.38-4.41-0.49-7.32,0.58
					c-2.25,0.83-3.97,1.99-5.53,3c-2.08,1.35-3.86,2.43-6.26,2.12c-2.77-0.37-4.96-1.82-7.24-3.15c-1.17-0.69-2.37-1.34-3.67-1.8
					c-3.22-1.14-10.17-1.14-9.29-1.82c11.4-8.91,13.03-12.59,13.03-12.59l19.4-2.8c0,0,1.29,1.3,2.84,2.91
					c0.94,0.98,1.98,2.07,2.87,3.06C196.67,110.01,200.59,118.38,199.58,118.83"/>
				<path class="st12" d="M161.23,76.29c0,0-14.24,14.02-15.08,14.7s-4.23,1.77-6.39,4.05c-2.16,2.28-9.5,8.69-9.5,8.69l1.8,1.96
					c0,0,11.62-5.55,13.82-7.3c2.2-1.75,2.74-2.59,4.28-3.58c1.54-0.99,14.25-8.9,14.25-8.9L161.23,76.29z"/>
				<path class="st17" d="M188.62,101.45c-0.08,0.66-3.51,3.09-8.35,3.61c-4.84,0.52-11.03-0.44-11.05-0.81c0-0.09,0-0.55-0.02-1.21
					c-0.04-1.94-0.21-5.7-0.91-7.41c-0.94-2.28-4.43-4.64-6.29-8.32c-1.87-3.68-2.2-9.37-1.79-10.16c1.71-3.31,7.53-4.49,7.53-4.49
					s12.28-2.75,14.22-1.16c3.06,2.51,2.89,3.52,3.64,16.63c0.2,3.55,2.05,9.51,2.75,12.1
					C188.53,100.88,188.64,101.32,188.62,101.45"/>
				<path class="st14" d="M167.77,75.93c0,0-1.4,4.37-1.1,5.07c0.17,0.38,3.59-1.4,3.59-1.4L167.77,75.93z"/>
				<path class="st14" d="M175.8,74.5c0,0-1.3,6.6-1.66,6.82c-0.36,0.22-3.88-1.73-3.88-1.73L175.8,74.5z"/>
				<path class="st12" d="M172.86,78.67c-2.57,1.91-4.17,0.37-4.71-0.24c-0.44-0.5-0.63-1.48-0.44-2.18
					c0.04-0.15,0.06-0.26,0.06-0.32c-0.02-0.28-0.76-1.71-1.1-2.36c-0.1-0.2-0.17-0.32-0.17-0.32s0.07-0.03,0.19-0.08
					c0.69-0.3,3.1-1.35,3.31-1.42c0.25-0.08,3.02-2.35,3.02-2.35s0.07,1.1,0.33,1.88c0.12,0.34,0.28,0.62,0.49,0.72
					c0.68,0.3,1.7,0.27,2,1.19C176.15,74.09,175.43,76.77,172.86,78.67"/>
				<path class="st15" d="M173.36,71.28c-0.31,1.04-1.07,3.15-2.26,4.17c-1.04,0.89-2.48,0.91-3.38,0.81
					c0.04-0.15,0.06-0.26,0.06-0.32c-0.02-0.28-0.76-1.71-1.1-2.36c0-0.14,0.01-0.27,0.02-0.41c0.69-0.3,3.1-1.35,3.31-1.42
					c0.25-0.08,3.02-2.35,3.02-2.35S173.09,70.5,173.36,71.28"/>
				<path class="st18" d="M177.05,64.28c-0.2-0.86-1.02-1.47-1.05-2.38c-0.03-0.81,0.52-1.53,0.59-2.33c0.07-0.78-0.08-1.6-0.7-2.14
					c-0.58-0.49-1.33-0.66-2.05-0.83c-0.32-0.08-0.65-0.12-0.97-0.19c-0.2-0.04-0.42-0.08-0.59-0.2c-0.17-0.12-0.32-0.31-0.47-0.46
					c-0.33-0.32-0.68-0.59-1.12-0.75c-0.77-0.27-1.61-0.19-2.39,0.04c-0.82,0.25-1.61,0.68-2.29,1.2c-0.79,0.6-1.29,1.54-2.13,2.05
					c-0.59,0.36-1.32,0.46-1.82,0.98c-0.49,0.5-0.66,1.26-0.71,1.94c-0.08,1.11,0.31,2.72,1.49,3.08c0.13,0.11,0.25,0.23,0.34,0.29
					c0.29,0.18,0.63,0.27,0.92,0.45c0.6,0.38,1.14,0.75,1.81,1.05c0.76,0.35,1.41,0.76,2.11,1.21c0.74,0.47,1.52,0.74,2.3,1.11
					c1.01,0.47,1.98,1.31,3.17,1.18c1.42-0.15,1.8-1.55,2.59-2.47C176.81,66.25,177.32,65.44,177.05,64.28"/>
				<path class="st12" d="M173.68,64.9c0,0-0.08,3.97-1,5.66c-0.92,1.69-2.89,4.05-5.54,3.93c-1.63-0.08-3.51-0.93-4.15-4.31
					c-0.33-1.7-0.41-3.08-0.37-4.2c0-0.07,0-0.13,0.01-0.2c0-0.06,0-0.12,0.01-0.19v-0.01c0.01-0.13,0.02-0.25,0.03-0.37
					c0-0.06,0.01-0.12,0.02-0.18c0-0.06,0.01-0.12,0.02-0.19c0-0.02,0-0.04,0.01-0.06c0.19-1.52,0.59-2.24,0.59-2.24
					s0.2-2.43,4.37-2.55C171.84,59.88,173.68,64.9,173.68,64.9"/>
				<path class="st12" d="M172.07,66.1c0,0,0.6-2,1.77-1.29c1.17,0.71,0.74,3.18,0.04,3.86c-0.7,0.68-0.81,0.83-0.85,0.74
					C172.99,69.31,172.07,66.1,172.07,66.1"/>
				<path class="st19" d="M169.4,66.67c0.03-0.11,0.09-0.21,0.2-0.25c0.32-0.11,0.42,0.28,0.41,0.51c0,0.2-0.13,0.39-0.35,0.36
					c-0.17-0.02-0.25-0.17-0.27-0.32C169.37,66.88,169.37,66.77,169.4,66.67"/>
				<path class="st19" d="M163.56,67.12c0.03-0.1,0.09-0.18,0.19-0.21c0.29-0.09,0.36,0.27,0.35,0.48
					c-0.01,0.18-0.13,0.34-0.33,0.31c-0.15-0.02-0.22-0.16-0.23-0.3C163.52,67.32,163.53,67.21,163.56,67.12"/>
				<path class="st20" d="M165.17,69.86c0.94,0.07,1.01-1.55,0.95-2.16c-0.01-0.12-0.14-0.79-0.33-0.55
					c-0.05,0.06-0.04,0.47-0.08,0.65c-0.08,0.34-0.13,0.51-0.27,0.72c-0.14,0.22-0.32,0.42-0.46,0.64
					c-0.02,0.03-0.03,0.05-0.05,0.08C164.79,69.53,164.78,69.83,165.17,69.86"/>
				<path class="st15" d="M173.53,68.07c-0.07,0-0.14-0.03-0.18-0.09c-0.01-0.02-0.27-0.38-0.43-0.94
					c-0.24-0.85-0.07-1.52-0.07-1.55c0.03-0.12,0.15-0.19,0.27-0.16c0.12,0.03,0.19,0.15,0.17,0.27c0,0.01-0.14,0.59,0.06,1.33
					c0.13,0.48,0.36,0.79,0.36,0.79c0.07,0.1,0.05,0.24-0.05,0.31C173.62,68.06,173.57,68.07,173.53,68.07"/>
				<path class="st18" d="M168.56,65.57c0.36-0.01,0.72-0.01,1.07-0.02c0.37-0.01,0.87,0.15,1.05-0.26
					c0.03-0.06,0.06-0.12,0.05-0.19c-0.01-0.14-0.15-0.23-0.28-0.28c-0.36-0.11-0.76-0.06-1.13-0.05c-0.28,0.01-0.7,0.03-0.92,0.23
					C168.24,65.17,168.25,65.57,168.56,65.57"/>
				<path class="st18" d="M164.14,65.61c-0.36-0.01-0.72-0.01-1.07-0.02c-0.13,0-0.28,0.01-0.42,0.02v-0.01
					c0.01-0.13,0.02-0.25,0.03-0.37c0-0.06,0.01-0.12,0.02-0.18c0-0.06,0.01-0.12,0.02-0.19c0-0.02,0-0.04,0.01-0.06
					c0.22,0,0.44,0.02,0.65,0.03c0.28,0.01,0.7,0.03,0.92,0.23C164.47,65.21,164.45,65.62,164.14,65.61"/>
				<path class="st18" d="M172.99,62.36c-0.93-1.06-1.62-2.08-3.14-2.35c-0.76-0.13-1.58-0.1-2.35-0.17
					c-0.59-0.05-1.08-0.03-1.62,0.2c-0.59,0.24-1.16,0.54-1.68,0.9c-0.29,0.2-0.63,0.31-0.91,0.52c-0.22,0.16-0.41,0.43-0.49,0.7
					c-0.08,0.31-0.45,0.62-0.16,0.77c0.5,0.26,1.65-0.01,2.17-0.14c1-0.24,1.95-0.48,2.98-0.25c0.67,0.15,1.24,0.42,1.93,0.48
					c0.44,0.04,0.9,0.01,1.17,0.39c0.14,0.2,0.12,0.52,0.17,0.75c0.07,0.3,0.15,0.61,0.4,0.82c0.54,0.46,1.87,0.17,2.24-0.39
					C174.15,63.9,173.44,62.87,172.99,62.36"/>
				<path class="st15" d="M165.63,71.3L165.63,71.3c-0.13,0-0.23-0.1-0.23-0.22c0-0.12,0.1-0.22,0.22-0.22h0c0,0,0.77,0,1.38-0.17
					c0.52-0.15,1-0.58,1-0.58c0.09-0.08,0.23-0.08,0.32,0.01c0.08,0.09,0.08,0.23-0.01,0.31c-0.02,0.02-0.56,0.51-1.18,0.69
					C166.48,71.29,165.71,71.3,165.63,71.3"/>
				<path class="st12" d="M130.96,103.35c0,0-2.64,0-3.17,0.36c-0.53,0.36-0.04,2.06-0.12,2.45c-0.08,0.39-0.22,1.12,0.22,1.52
					c0.44,0.4,2.42,0.57,3.39,0.02c0.97-0.55,1.69-2.89,1.69-2.89l-1.07-1.27L130.96,103.35z"/>
				<polygon class="st21" points="109.3,122.33 103.46,109.83 103.87,109.65 109.71,122.15 				"/>
				<polygon class="st21" points="107.69,124.09 101.06,109.91 101.47,109.72 108.09,123.9 				"/>
				<polygon class="st21" points="105.91,125.49 98.83,110.34 99.24,110.15 106.31,125.3 				"/>
				<polygon class="st21" points="103.9,126.4 96.83,111.25 97.23,111.07 104.31,126.21 				"/>
				<polygon class="st21" points="101.9,127.31 94.82,112.16 95.23,111.98 102.3,127.13 				"/>
				<polygon class="st21" points="87.84,122.6 87.66,122.19 109.95,112.03 110.14,112.43 				"/>
				<polygon class="st21" points="88.77,124.58 88.58,124.18 110.88,114.01 111.07,114.41 				"/>
				<polygon class="st21" points="89.69,126.56 89.51,126.16 111.8,115.99 111.99,116.39 				"/>
				<polygon class="st21" points="91.93,128.09 91.75,127.69 111.95,118.48 112.13,118.88 				"/>
				<polygon class="st21" points="88.12,119.92 87.93,119.52 108.13,110.31 108.32,110.71 				"/>
				<polygon class="st21" points="99.89,128.23 92.82,113.08 93.22,112.89 100.3,128.04 				"/>
				<polygon class="st21" points="97.66,128.66 91.04,114.48 91.44,114.29 98.07,128.47 				"/>
				<polygon class="st21" points="95.26,128.73 89.43,116.23 89.83,116.05 95.67,128.54 				"/>
				<path class="st21" d="M120.88,110.99l-1-2.14l10.59-4.83c0.58-0.26,1.27-0.01,1.53,0.56l0.03,0.07
					c0.27,0.57,0.01,1.25-0.57,1.51L120.88,110.99z"/>
				<polygon class="st22" points="119.08,111.81 118.08,109.67 120.25,108.68 121.25,110.83 				"/>
				<path class="st22" d="M105.07,110.91l0.01-1.37c0.04,0,4.97,1.15,7.43,0.93c2.45-0.22,6.21-1.1,6.25-1.1l0.12,1.41
					c-0.15,0.03-3.7,0.83-6.24,1.06C110.11,112.06,105.24,110.91,105.07,110.91"/>
				<path class="st22" d="M109.69,120.79l1.06,0.88c0.03-0.03,2.34-4.48,4.11-6.19c1.76-1.7,4.87-3.96,4.9-3.98l-1.01-1.01
					c-0.12,0.09-3.04,2.24-4.86,4C112.07,116.25,109.79,120.67,109.69,120.79"/>
				<path class="st22" d="M96.42,129.32c-0.79,0-1.56-0.06-2.31-0.19c-3.04-0.52-5.3-2.06-6.36-4.33
					c-2.15-4.59,1.46-10.77,8.03-13.76c3.14-1.43,6.5-1.94,9.45-1.43c3.04,0.52,5.3,2.06,6.36,4.33c1.06,2.27,0.78,4.96-0.79,7.59
					c-1.52,2.55-4.09,4.74-7.24,6.17C101.21,128.77,98.75,129.32,96.42,129.32 M102.91,110.73c-2.13,0-4.4,0.51-6.57,1.5
					c-5.9,2.69-9.21,8.08-7.37,12c0.87,1.86,2.78,3.13,5.37,3.58c2.69,0.46,5.76-0.01,8.66-1.33c2.9-1.32,5.26-3.33,6.64-5.64
					c1.34-2.24,1.6-4.5,0.73-6.36c-0.87-1.86-2.78-3.13-5.37-3.58C104.32,110.79,103.63,110.73,102.91,110.73"/>
				<path class="st12" d="M127.61,105.33c0,0-0.04,1.57,0.73,1.34c0.77-0.23,0.67-2.17,0.67-2.17s-0.71-0.17-0.83,0
					C128.07,104.68,127.61,105.33,127.61,105.33"/>
				<path class="st12" d="M208.58,72.85c-7.25-2.98-9.84-2.83-9.84-2.83c-2.77-0.35-6.55,0-8.47,0.14
					c-2.19,0.16-4.14,0.06-6.31,0.33c-2.75,0.34-7.66,1.34-5.78,5.16c1.21,2.46,6.73,2.09,10.45,1.87c2.25-0.13,5.43-0.75,7.59-1.36
					c3.02-0.85,4.74,0.83,7.62,1.43c1.88,0.39,3.76,0.76,5.66,1.07c2.71,0.44,5.43,0.84,8.16,1.18l0.73-2.32
					C218.38,77.52,214.49,75.27,208.58,72.85"/>
				<path class="st12" d="M217.9,77.1c0,0,2.93-0.8,4.23-0.8c1.3,0,1.47,1.01,1.87,1.41c0.41,0.4,0.94,0.88,0.73,1.45
					s-3.62,0.56-3.95,1.05c-0.33,0.48,1.22,0.92,1.14,1.41c-0.08,0.48-0.85,0.52-1.87,0c-1.02-0.52-2.35-1.11-3.17-2.08
					c-0.82-0.97-0.7-1.29-0.41-1.49C216.77,77.83,217.9,77.1,217.9,77.1"/>
				<path class="st17" d="M175.41,71.3c0,0,9.46-1.52,11.08-1.71c1.62-0.2,2.46,4.44,2.96,5.66c0.5,1.22,1.23,2.39,0.95,3.24
					s-1.68,1.29-4.7,1.68c-3.02,0.39-6.15,0.39-6.15,0.39s-2.25-2.71-2.45-3.65C176.92,75.97,175.41,71.3,175.41,71.3"/>
				<path class="st17" d="M162.53,74.77c0,0-2.87,1.52-4.99,3.16c-2.12,1.64-4.81,4.12-4.81,4.89s1.06,2.93,1.9,4.09
					c0.84,1.16,1.51,4.47,2.46,4.75c0.95,0.28,6.43-3.55,6.43-3.55s-0.75-5.63-0.88-6.12C162.51,81.49,162.53,74.77,162.53,74.77"/>
				<path class="st14" d="M162.62,88.32c-0.09,0-0.17-0.05-0.21-0.14c-0.01-0.03-1.06-2.76-1.58-4.91
					c-0.52-2.16-0.67-4.21-0.68-4.23c-0.01-0.12,0.08-0.23,0.21-0.24c0.12-0.01,0.23,0.08,0.24,0.2c0,0.02,0.15,2.03,0.67,4.16
					c0.51,2.13,1.55,4.83,1.57,4.86c0.04,0.11-0.01,0.24-0.13,0.28C162.67,88.32,162.64,88.32,162.62,88.32"/>
				<path class="st14" d="M184.76,80.5c-0.04,0-0.09-0.01-0.13-0.04l-3.44-2.35c-0.1-0.07-0.13-0.21-0.06-0.31
					c0.07-0.1,0.21-0.13,0.31-0.06l3.44,2.35c0.1,0.07,0.13,0.21,0.06,0.31C184.9,80.46,184.83,80.5,184.76,80.5"/>
				<path class="st15" d="M195.55,140.03c-0.02,0-0.03,0-0.05-0.01l-2.46-0.59c-0.12-0.03-0.19-0.15-0.16-0.27
					c0.03-0.12,0.15-0.19,0.27-0.16l2.46,0.59c0.12,0.03,0.19,0.15,0.16,0.27C195.75,139.97,195.65,140.03,195.55,140.03"/>
				<path class="st15" d="M197.65,138.6c-0.11,0-0.21-0.08-0.22-0.2l-0.3-2.8c-0.01-0.12,0.08-0.23,0.2-0.24
					c0.12-0.01,0.23,0.08,0.25,0.2l0.3,2.8c0.01,0.12-0.08,0.23-0.2,0.24C197.66,138.6,197.66,138.6,197.65,138.6"/>
				<path class="st15" d="M154.3,129.98c-0.07,0-0.14-0.03-0.19-0.1c-0.07-0.1-0.04-0.24,0.06-0.31l1.9-1.25
					c0.1-0.07,0.24-0.04,0.31,0.06c0.07,0.1,0.04,0.24-0.06,0.31l-1.9,1.25C154.38,129.97,154.34,129.98,154.3,129.98"/>
			</g>
			<g class="st11">
				<defs>
					<path id="SVGID_9_" d="M110.89,75.93c0,1.7,1.4,3.08,3.12,3.08c1.72,0,3.12-1.38,3.12-3.08c0-1.7-1.4-3.08-3.12-3.08
						C112.28,72.85,110.89,74.23,110.89,75.93"/>
				</defs>
				<clipPath id="SVGID_10_">
					<use xlink:href="#SVGID_9_"  style="overflow:visible;"/>
				</clipPath>
				<path class="st23" d="M117.13,75.93c0-1.7-1.4-3.08-3.12-3.08s-3.12,1.38-3.12,3.08s1.4,3.08,3.12,3.08
					S117.13,77.63,117.13,75.93"/>
				<path class="st24" d="M115.12,77.52c-0.22,0-0.44-0.02-0.64-0.06c-0.7-0.14-1.16-0.5-1.36-1.1c-0.24-0.68-0.17-1.28,0.21-1.8
					c1.02-1.41,3.95-1.64,3.98-1.64c0.12,0,0.22,0.1,0.22,0.22c0,0.12-0.1,0.22-0.22,0.22c-0.06,0-2.8,0.24-3.65,1.48
					c-0.27,0.39-0.31,0.84-0.13,1.37c0.13,0.38,0.39,0.62,0.8,0.75c1.69,0.54,5.01-1.08,5.2-1.21c0.08-0.09,0.21-0.09,0.3-0.01
					c0.09,0.08,0.09,0.23,0.01,0.32C119.73,76.21,117.06,77.52,115.12,77.52"/>
			</g>
			<g class="st11">
				<defs>
					<rect id="SVGID_11_" x="87.13" y="54.83" width="145.43" height="110.03"/>
				</defs>
				<clipPath id="SVGID_12_">
					<use xlink:href="#SVGID_11_"  style="overflow:visible;"/>
				</clipPath>
				<path class="st25" d="M199.58,118.83c-0.53,0.23-1.95-0.5-4.08-0.91c-0.28-1.51-0.66-3.41-1.03-5.05
					c-0.57-2.55-2.2-6.58-3.01-8.51c0.94,0.98,1.98,2.07,2.87,3.06C196.67,110.01,200.59,118.38,199.58,118.83"/>
				<path class="st25" d="M188.96,117.67c-0.11,0-0.2-0.08-0.22-0.19c-0.01-0.05-0.71-4.63-2.54-7.51
					c-1.84-2.91-3.13-4.55-3.15-4.57c-0.08-0.1-0.06-0.23,0.04-0.31c0.1-0.08,0.24-0.06,0.31,0.04c0.01,0.02,1.31,1.67,3.17,4.6
					c1.88,2.96,2.57,7.49,2.6,7.68c0.02,0.12-0.07,0.23-0.19,0.25C188.98,117.67,188.97,117.67,188.96,117.67"/>
				<path class="st25" d="M161.54,117.53c-0.06,0-0.12-0.03-0.17-0.07c-0.08-0.09-0.07-0.23,0.02-0.31
					c0.04-0.03,3.64-3.19,5.56-5.82c1.93-2.64,3.77-5.99,3.79-6.02c0.06-0.11,0.19-0.15,0.3-0.09c0.11,0.06,0.15,0.19,0.09,0.3
					c-0.02,0.03-1.87,3.41-3.82,6.07c-1.95,2.67-5.59,5.86-5.62,5.89C161.64,117.51,161.59,117.53,161.54,117.53"/>
				<path class="st25" d="M173.45,122.1c-0.03,0-0.06-0.01-0.09-0.02c-0.11-0.05-0.17-0.18-0.12-0.29
					c0.02-0.05,2.08-4.76,2.89-10.05c0.35-2.28,0.52-5.86,0.52-5.89c0.01-0.12,0.12-0.22,0.23-0.21c0.12,0.01,0.22,0.11,0.21,0.23
					c0,0.04-0.18,3.64-0.53,5.94c-0.81,5.34-2.9,10.11-2.92,10.16C173.62,122.05,173.54,122.1,173.45,122.1"/>
				<path class="st26" d="M188.62,101.45c-0.08,0.66-3.51,3.09-8.35,3.61c-4.84,0.52-11.03-0.44-11.05-0.81c0-0.09,0-0.55-0.02-1.21
					c2.09,0.17,7.92,0.56,10.92-0.07c2.8-0.59,6.58-2.07,8.22-2.75C188.53,100.88,188.64,101.32,188.62,101.45"/>
			</g>
		</g>
	</g>
</g>
</svg>
