<?xml version="1.0" encoding="utf-8"?>
<!-- Generator: Adobe Illustrator 25.2.1, SVG Export Plug-In . SVG Version: 6.00 Build 0)  -->
<svg version="1.1" id="Layer_1" xmlns="http://www.w3.org/2000/svg" xmlns:xlink="http://www.w3.org/1999/xlink" x="0px" y="0px"
	 viewBox="0 0 101.52 85.16" style="enable-background:new 0 0 101.52 85.16;" xml:space="preserve">
<style type="text/css">
	.st0{fill:#FFBB99;}
	.st1{fill:#AD5937;}
	.st2{fill:#FFD078;}
	.st3{fill:#C97A1A;}
</style>
<g>
	<g>
		<g>
			<path class="st0" d="M4.06,77.69c1.86,1.56,3.86,2.96,5.99,4.13c2.35,1.29,4.81,2.08,7.42,2.66c1.04,0.23,2.08,0.46,3.12,0.68
				c2.57-6.66,3.89-12.32,7.77-20.7c0.3-0.65,0.6-1.42,0.54-2.15c-0.05-0.62-0.43-0.99-0.9-1.35c-1.51-1.2-1.79-3.1-2.3-4.87
				c-0.45-1.57-0.75-3.43-1.77-4.74c-0.81-1.04-2.04-1.64-3.29-1.98c-1.96-0.53-4.03-0.57-6.03-0.23c-0.75,0.13-1.49,0.32-2.22,0.56
				c-0.37,0.12-0.73,0.25-1.08,0.4c-0.16,0.07-0.33,0.14-0.49,0.21c-0.16,0.07-0.29,0.18-0.45,0.26c-0.13,0.06-0.22,0.06-0.24,0.2
				c-0.01,0.1,0.03,0.2,0.03,0.3c0.05,1.01-0.13,2.08-0.33,3.06c-0.2,1.02-0.49,2.03-0.83,3.01c-0.69,1.98-1.6,3.88-2.55,5.75
				c-0.18,0.35-0.36,0.7-0.54,1.05C4.14,67.37,2.16,70.69,0,73.88C1.3,75.21,2.64,76.49,4.06,77.69z"/>
		</g>
	</g>
	<g>
		<g>
			<path class="st0" d="M33.93,36.69c-0.09-1.01-0.11-2.07-0.34-3.06c-0.22-0.94-0.71-1.82-1.16-2.67c-0.48-0.9-1.04-1.77-1.8-2.47
				c-1.11-1.02-2.49-1.63-3.76-2.42c-1.68-1.84-4.3-2.66-6.69-3.31c-3.17-0.87-7.04-2.1-10.28-0.88c-1.25,0.47-2.01,1.32-2.13,2.67
				c-0.18,2.13,0.17,4.33,0.28,6.43c0.19,3.65,0.52,7.29,0.98,10.92c0.55,4.36,0.91,8.67,0.62,13.07c0,0.01,0,0.02,0,0.02
				c-0.01-0.01,0.21,1.52,0.9,1.56c0.23,0.01,0.45-0.09,0.65-0.17c0.82-0.31,1.5-0.37,2.02,0.48c0.48,0.79,0.56,1.89,0.77,2.77
				c0.26,1.05,0.54,2.1,0.85,3.13c0.55,1.83,1.06,3.88,2.09,5.53c0.77,1.23,2.22,2.47,3.66,2.81c1.58,0.37,2.84-0.81,3.84-1.86
				c1.4-1.47,2.7-3.05,3.98-4.62c2.28-2.79,4.41-5.84,5.02-9.47c0.6-3.56-0.02-7.27-0.64-10.86c-0.17-0.97,0.05-2.35,0.4-3.27
				c0.33-0.86,0.45-1.38,0.59-2.02C33.98,38.04,34.02,37.68,33.93,36.69z"/>
		</g>
	</g>
	<g>
		<g>
			<path class="st0" d="M36.94,26.39c-0.09-0.05-0.18-0.1-0.27-0.15c-0.01,0-0.01-0.01-0.02-0.01c0.55-1.43,0.82-2.89-0.01-4.38
				c-0.34-0.6-0.76-1.11-1.25-1.53c-0.08-0.07-0.16-0.14-0.24-0.2c-0.83-0.66-1.82-1.13-2.84-1.51c-0.78-0.93-1.67-1.77-2.67-2.47
				c-0.08-0.06-0.16-0.12-0.25-0.17c-0.17-0.12-0.35-0.23-0.53-0.34c-1.48-0.89-3.5-1.9-5.2-1.04c-0.82,0.42-1.44,1.14-2.05,1.82
				l-2.35,2.63c-0.72,0.81-1.44,1.62-2.26,2.34c-0.58,0.51-1.16,1.01-1.65,1.59c-0.01-0.04-0.02-0.07-0.02-0.1
				c-0.03-0.19-0.32-0.11-0.29,0.08c0.02,0.11,0.05,0.22,0.08,0.31c-0.06,0.08-0.12,0.17-0.18,0.26c-0.1,0.16,0.15,0.31,0.26,0.15
				c0.03-0.04,0.05-0.08,0.08-0.12c0.34,0.49,0.93,0.8,1.24,1.35c0.56,0.97,0.33,2.42,0.48,3.5c0.27,1.94,1.24,3.81,2.37,5.46
				c0.06,0.08,0.12,0.17,0.18,0.25c0.19,0.27,0.38,0.53,0.58,0.79c1.27,1.65,2.98,3.09,5.07,3.51c1.76,0.35,3.5-0.08,5.1-0.81
				c0.1-0.04,0.19-0.09,0.29-0.13c0.19-0.09,0.37-0.18,0.55-0.28c0.95,0.25,1.94,0.32,2.91,0.1c0,0,0,0,0,0
				c0.12-0.03,0.24-0.06,0.36-0.1c0.05-0.01,0.1-0.03,0.15-0.05c1.51-0.52,2.44-1.73,3.09-3.16c0.35-0.77,0.65-1.57,0.96-2.35
				c0.32-0.8,0.69-1.64,0.64-2.53C39.2,27.76,38.06,27.01,36.94,26.39z"/>
		</g>
	</g>
	<g>
		<g>
			<path class="st1" d="M22.29,30.34c-2.95-0.72-5.98-1.02-9.02-0.89c-0.19,0.01-0.19,0.31,0,0.3c3.02-0.13,6.03,0.17,8.96,0.89
				C22.16,30.54,22.18,30.4,22.29,30.34z"/>
		</g>
	</g>
	<g>
		<g>
			<path class="st0" d="M34.67,10.9c-0.28,1.04-1.34,1.59-2.34,1.73c-1.28,0.17-2.71-0.07-3.95-0.4c-0.92-0.24-1.78-0.61-2.57-1.12
				c-0.01,0.01-0.03,0.01-0.04,0.02h0c-0.09,0.04-0.19,0.08-0.28,0.12c-1.49,0.63-3.06,1.02-4.66,1.25
				c-0.04,0.01-0.08,0.01-0.12,0.02c-0.04,0.07-0.07,0.14-0.1,0.22c-1.67,3.36-3.12,6.82-4.34,10.36c0.31-0.13,0.63-0.26,0.93-0.42
				c0.17-0.09,0.32,0.17,0.15,0.26c-0.4,0.2-0.81,0.38-1.22,0.54c-0.16,0.49-0.33,0.98-0.49,1.48c-0.06,0.18-0.35,0.1-0.29-0.08
				c0.14-0.42,0.28-0.84,0.42-1.26c-0.93,0.34-1.9,0.61-2.87,0.84c-1.65,0.4-3.38,0.67-4.94,1.38c0.04,0.34,0.1,0.69,0.19,1.03
				c0.05,0.19-0.24,0.27-0.29,0.08c-0.43-1.68-0.37-3.44,0.24-5.07c0.63-1.66,1.7-3.1,2.35-4.75c1.3-3.33,3.38-6.39,5.29-9.39
				c0.44-0.68,1.15-1.31,1.92-1.6c0.89-0.34,1.88-0.4,2.82-0.47c1.16-0.1,2.33-0.15,3.49-0.19c1.08-0.04,2.07-0.02,3.09,0.35
				c0.89,0.32,1.74,0.76,2.58,1.2c1.2,0.63,2.38,1.3,3.61,1.87c0.01,0,0.01,0.01,0.01,0.01c0.28,0.16,0.56,0.31,0.83,0.49
				c0.1,0.06,0.19,0.13,0.28,0.21C34.75,9.91,34.8,10.44,34.67,10.9z"/>
		</g>
	</g>
	<g>
		<g>
			<path class="st0" d="M91.96,64.69c1.62-2.03,2.95-4.25,4.25-6.5c1.16-2.02,2.28-4.08,3.33-6.15c0.93-1.82,1.79-3.78,1.98-5.83
				c-3.72-1.53-7.35-3.28-10.86-5.26c-0.34-0.19-0.68-0.39-1.02-0.58c-1.82-1.04-3.62-2.13-5.29-3.41
				c-0.83-0.64-1.62-1.32-2.35-2.06c-0.7-0.72-1.44-1.51-1.95-2.38c-0.05-0.08-0.07-0.2-0.13-0.27c-0.1-0.11-0.17-0.06-0.32-0.04
				c-0.17,0.03-0.34,0-0.51,0.03c-0.18,0.03-0.35,0.06-0.53,0.09c-0.38,0.07-0.75,0.16-1.12,0.26c-0.74,0.2-1.46,0.45-2.16,0.75
				c-1.86,0.8-3.57,1.98-4.92,3.5c-0.86,0.97-1.56,2.15-1.66,3.46c-0.14,1.66,0.64,3.38,1.12,4.94c0.54,1.76,1.36,3.5,0.75,5.33
				c-0.19,0.56-0.31,1.08-0.01,1.62c0.36,0.64,1.03,1.12,1.64,1.5c7.91,4.92,12.12,8.95,18,13.14
				C90.79,66.13,91.38,65.42,91.96,64.69z"/>
		</g>
	</g>
	<g>
		<g>
			<path class="st0" d="M83.85,50.64c-0.04-1.93-0.74-3.93-1.29-5.76c-0.31-1.04-0.65-2.06-1.01-3.09
				c-0.31-0.86-0.84-1.82-0.87-2.74c-0.03-1,0.58-1.32,1.43-1.51c0.22-0.05,0.46-0.08,0.64-0.22c0.55-0.41-0.11-1.82-0.11-1.8
				c0-0.01,0-0.01-0.01-0.02c-2.71-3.57-4.79-7.44-6.75-11.46c-1.69-3.45-3.59-6.78-5.46-10.14c-0.91-1.64-1.75-3.39-2.91-4.86
				c-0.84-1.06-1.94-1.36-3.24-1.06c-2.15,0.49-3.97,1.94-5.56,3.57c-0.91,0.93-1.76,1.91-2.54,2.81c-1.64,1.86-3.38,3.98-3.78,6.44
				c-0.62,1.36-1.44,2.63-1.81,4.09c-0.25,0.99-0.24,2.03-0.15,3.04c0.09,0.95,0.16,1.97,0.49,2.87c0.35,0.96,0.92,1.85,1.39,2.74
				c0.09,0.18,0.19,0.35,0.28,0.53c0.01,0.02,0.02,0.04,0.03,0.06c0.06,0.11,0.12,0.22,0.18,0.32c0.31,0.56,0.67,1.1,1.12,1.56
				c0.78,0.79,1.76,1.32,2.8,1.66c1.7,3.81,3.27,7.96,6.13,11.04c2.5,2.7,5.96,4.08,9.39,5.16c1.94,0.61,3.89,1.21,5.86,1.67
				c1.41,0.33,3.12,0.62,4.23-0.55C83.35,53.92,83.88,52.09,83.85,50.64z"/>
		</g>
	</g>
	<g>
		<g>
			<path class="st0" d="M62.86,21.31c-0.01-0.11-0.02-0.23-0.03-0.34c-0.13-1.27-0.41-2.52-0.94-3.65
				c-0.46-0.98-1.45-2.07-1.51-3.19c-0.04-0.63,0.28-1.21,0.3-1.81c0.04,0.02,0.09,0.03,0.13,0.05c0.18,0.07,0.31-0.19,0.13-0.27
				c-0.1-0.04-0.19-0.08-0.29-0.11c-0.02-0.1-0.05-0.2-0.1-0.31c-0.08-0.17-0.37-0.08-0.29,0.09c0.01,0.03,0.03,0.07,0.04,0.1
				c-0.53-0.16-1.06-0.25-1.61-0.34c-0.21-0.03-0.43-0.06-0.64-0.09c-1.08-0.15-2.12-0.43-3.17-0.71l-3.41-0.91
				c-0.88-0.23-1.79-0.51-2.71-0.4c-1.63,0.19-2.69,1.65-3.43,3.05c-0.05,0.09-0.1,0.18-0.14,0.27c-0.07,0.14-0.14,0.28-0.2,0.41
				c-0.67,1.38-1.08,2.86-1.25,4.38c-0.43,0.58-0.82,1.19-1.14,1.82c-0.04,0.09-0.09,0.18-0.13,0.27c-0.43,0.93-0.67,1.92-0.59,2.99
				c0.12,1.6,1.04,2.65,2.2,3.51c0.03,0.02,0.06,0.05,0.1,0.07c0.03,0.03,0.07,0.05,0.1,0.08c-0.05,0.09-0.1,0.18-0.14,0.27
				c-0.6,1.14-1.15,2.4-0.48,3.55c0.45,0.76,1.22,1.26,1.93,1.76c0.69,0.49,1.38,0.99,2.09,1.44c1.37,0.86,2.86,1.36,4.47,0.9
				c0.15-0.04,0.29-0.09,0.43-0.15c0.03-0.01,0.05-0.02,0.07-0.03c0.14-0.05,0.27-0.11,0.4-0.18c0.69-0.35,1.3-0.85,1.82-1.43
				c1-0.1,2.01-0.28,2.96-0.62c0.1-0.03,0.19-0.07,0.29-0.1c0.88-0.35,1.7-0.84,2.39-1.52c1.52-1.49,2.16-3.64,2.31-5.71
				C62.92,23.45,62.94,22.37,62.86,21.31z"/>
		</g>
	</g>
	<g>
		<g>
			<path class="st0" d="M66.7,8.3c-3.45-2.36-6.96-4.52-10.41-6.87c-0.67-0.46-1.36-0.92-2.15-1.16c-0.87-0.27-1.8-0.24-2.7-0.26
				c-1.99-0.03-4.01-0.04-5.98,0.2c-3.73,0.46-7.04,1.72-10.47,3.18c-0.67,0.28-1.51,1.05-1.45,1.84c0.03,0.41,0.3,0.76,0.62,1.01
				c1.17,0.91,3.05,1.05,4.45,0.79c0.94-0.18,1.83-0.57,2.77-0.73c1.17-0.19,2.38,0.02,3.56,0.09c1.97,0.11,3.94,0.08,5.91-0.05
				c1.34,0.77,2.65,1.58,3.93,2.45c1.69,1.14,3.25,2.69,5.11,3.54c1.28,0.59,3,0.77,4.17-0.18c0.29-0.24,0.36-0.48,0.56-0.79
				c0.27-0.41,0.77-0.65,1.1-1c0.43-0.46,0.72-0.99,0.75-1.61c0.01,0,0.01,0.01,0.02,0.01C66.64,8.87,66.86,8.41,66.7,8.3z"/>
		</g>
	</g>
	<g>
		<g>
			<g>
				<g>
					<path class="st2" d="M38.46,15.12c-0.04,0.03-0.09,0.07-0.13,0.1c-0.24,0.18-0.5,0.35-0.77,0.49c-1.3,0.66-2.76,0.68-4.02,0.19
						c-1.1-0.42-2.04-1.24-2.62-2.37c-0.25-0.49-0.41-1-0.48-1.52c-0.07-0.45-0.07-0.91-0.01-1.36c0.21-1.56,1.16-2.99,2.67-3.75
						c0.75-0.38,1.54-0.55,2.32-0.53c0.33,0,0.66,0.04,0.99,0.12c0.96,0.22,1.86,0.72,2.55,1.46c0.31,0.33,0.57,0.71,0.78,1.13
						C40.8,11.18,40.22,13.69,38.46,15.12z"/>
				</g>
			</g>
		</g>
		<g>
			<g>
				<g>
					<path class="st3" d="M35.33,15.37c-1.49,0-2.92-0.82-3.63-2.23c-1.01-2-0.21-4.45,1.79-5.46l0,0c2-1.01,4.45-0.21,5.46,1.79
						c0.49,0.97,0.57,2.07,0.23,3.1c-0.34,1.03-1.06,1.87-2.03,2.36C36.58,15.23,35.95,15.37,35.33,15.37z M33.63,7.94
						c-1.85,0.94-2.6,3.21-1.66,5.06c0.94,1.85,3.21,2.6,5.06,1.66c0.9-0.45,1.56-1.23,1.88-2.19c0.31-0.96,0.24-1.98-0.22-2.87
						C37.75,7.75,35.48,7,33.63,7.94L33.63,7.94z"/>
				</g>
			</g>
		</g>
	</g>
	<g>
		<g>
			<path class="st0" d="M34.67,13.66c-1.81-0.75-3.56,0.4-4.58,1.83c-0.92,1.29-1.85,2.63-2.6,4.03c-0.9,1.69-0.77,2.73-1.67,4.42
				c0.09-0.79,0.21-1.58,0.29-2.37c0.02-0.19-0.28-0.19-0.3,0c-0.2,1.8-0.58,3.67-0.49,5.48c0.05,1.16,0.36,2.43,1.55,2.88
				c2.86,1.08,4.56-2.49,5.6-4.44c0.87-1.62,1.74-3.26,2.48-4.95c0.59-1.36,1.18-2.88,1.17-4.38C36.11,15.09,35.7,14.09,34.67,13.66
				z"/>
		</g>
	</g>
	<g>
		<g>
			<path class="st0" d="M39.37,15.87c0.7,1.33,1.94,2.39,3.1,3.31c1.45,1.14,2.99,2.17,4.52,3.19c1.84,1.22,5.03,3.57,7.04,1.27
				c0.84-0.96,0.51-2.23,0.01-3.27c-0.79-1.64-2-3.11-3.03-4.6c-0.11-0.16-0.37-0.02-0.26,0.14c0.45,0.65,0.92,1.3,1.38,1.95
				c-1.59-1.07-1.97-2.04-3.56-3.11c-1.32-0.88-2.77-1.63-4.19-2.33c-1.58-0.78-3.49-1.21-4.73,0.3
				C38.93,13.59,38.88,14.92,39.37,15.87z"/>
		</g>
	</g>
	<g>
		<g>
			<g>
				<g>
					<path class="st1" d="M32.21,20.86c-0.58,0-1.17-0.26-1.52-0.74c-0.29-0.39-0.43-0.91-0.45-1.58c-0.03-1.09,1.28-4.03,1.87-4.19
						c0.45-0.13,0.94-0.09,1.46,0.1c0.74,0.27,2.12,1.05,2.1,2.08v0c-0.01,0.25-0.1,0.46-0.2,0.68c-0.4,0.85-0.88,1.67-1.41,2.44
						c-0.23,0.33-0.51,0.7-0.89,0.95C32.88,20.78,32.54,20.86,32.21,20.86z M32.65,14.57c-0.16,0-0.32,0.02-0.47,0.06
						c-0.37,0.1-1.68,2.84-1.65,3.89c0.02,0.61,0.14,1.08,0.39,1.42c0.45,0.62,1.42,0.81,2.08,0.4c0.34-0.21,0.59-0.56,0.8-0.86
						c0.53-0.76,0.99-1.57,1.39-2.4c0.09-0.19,0.17-0.38,0.17-0.56c0.02-0.8-1.13-1.51-1.91-1.79
						C33.18,14.62,32.91,14.57,32.65,14.57z"/>
				</g>
			</g>
		</g>
	</g>
	<g>
		<g>
			<g>
				<g>
					<path class="st1" d="M44.19,17.88c-0.13,0-0.27-0.01-0.41-0.02c-1.06-0.1-3.75-1.75-3.85-2.35c-0.08-0.52,0.14-1.02,0.35-1.44
						c0.68-1.33,1.4-1.95,2.15-1.85h0c0.24,0.03,0.45,0.15,0.65,0.28c0.8,0.5,1.56,1.07,2.26,1.69c0.3,0.27,0.64,0.59,0.83,1
						c0.4,0.85,0.05,1.95-0.77,2.4C45.08,17.79,44.68,17.88,44.19,17.88z M42.27,12.51c-0.71,0-1.32,0.91-1.72,1.7
						c-0.19,0.38-0.39,0.82-0.32,1.25c0.06,0.39,2.52,2,3.58,2.1c0.61,0.06,1.09-0.02,1.45-0.22c0.67-0.38,0.97-1.32,0.64-2.01
						c-0.17-0.36-0.48-0.65-0.76-0.9c-0.69-0.61-1.44-1.17-2.22-1.66c-0.18-0.11-0.35-0.21-0.54-0.24
						C42.35,12.51,42.31,12.51,42.27,12.51z"/>
				</g>
			</g>
		</g>
	</g>
	<g>
		<g>
			<path class="st1" d="M29.64,16.15c-0.52,1-2.32,4.48-3.42,6.9l-0.19,0.4c-1.32,2.9-2.37,5.18-3.98,7.59
				c-0.54,0.8-1.47,1.91-2.49,3.05c-2.16,2.42-4.72,4.98-4.76,5.02c-0.03,0.03-0.07,0.04-0.11,0.04c-0.04,0-0.07-0.01-0.1-0.04
				c-0.06-0.06-0.06-0.15,0-0.21c0.04-0.04,2.63-2.64,4.79-5.06c0.99-1.11,1.89-2.19,2.41-2.97c1.61-2.39,2.65-4.67,3.96-7.55
				l0.19-0.41c1.12-2.46,2.95-6,3.45-6.95C29.47,16.03,29.56,16.09,29.64,16.15z"/>
		</g>
	</g>
	<g>
		<g>
			<path class="st1" d="M20.83,12.5c-0.04,0.01-0.08,0.01-0.12,0.02c-0.04,0.07-0.07,0.14-0.1,0.22c-1.43-0.49-2.61-1.46-2.92-3.11
				c-0.04-0.19,0.25-0.27,0.29-0.08C18.27,11.14,19.44,12.06,20.83,12.5z"/>
		</g>
	</g>
	<g>
		<g>
			<path class="st1" d="M25.77,11.12c-0.09,0.04-0.19,0.08-0.28,0.12c-0.62-0.84-1.02-1.87-1.11-3c-0.02-0.19,0.28-0.19,0.3,0
				C24.76,9.32,25.16,10.31,25.77,11.12z"/>
		</g>
	</g>
	<g>
		<g>
			<path class="st1" d="M35.39,20.32c-0.39,0.98-0.76,1.96-1.17,2.9c-0.72,1.69-1.48,3.44-2.11,5.2c-1.1,3.06-1.6,6.01-1.51,9.02
				c0.04,1.58,0.22,3.18,0.39,4.73c0.18,1.64,0.36,3.34,0.4,5.03c0.09,4.7-1.31,9.37-4.17,13.88c-0.03,0.04-0.07,0.07-0.13,0.07
				c-0.03,0-0.05-0.01-0.08-0.02c-0.07-0.04-0.09-0.14-0.04-0.21c2.82-4.46,4.21-9.08,4.12-13.71c-0.03-1.67-0.22-3.36-0.39-5
				c-0.16-1.51-0.33-3.07-0.38-4.63c0-0.04-0.01-0.08-0.01-0.13c-0.09-3.05,0.41-6.04,1.52-9.13c0.64-1.77,1.39-3.52,2.12-5.22
				c0.42-0.98,0.81-1.98,1.2-2.99C35.23,20.19,35.31,20.25,35.39,20.32z"/>
		</g>
	</g>
	<g>
		<g>
			<path class="st1" d="M25.52,20.89c-0.6,1.79-1.66,3.33-3.11,4.55c-0.15,0.12,0.07,0.34,0.21,0.21c1.05-0.89,1.9-1.95,2.53-3.15
				c0.12,0.11,0.64,0.44,0.8,0.5c0.18,0.07,0.26-0.22,0.08-0.29c-0.14-0.06-0.63-0.39-0.73-0.5c0.19-0.4,0.37-0.81,0.51-1.24
				C25.87,20.78,25.58,20.71,25.52,20.89z"/>
		</g>
	</g>
	<g>
		<g>
			<path class="st1" d="M36.94,26.39c-0.53,1.59-2.54,7.54-3.32,8.45c-0.56,0.65-1.57,0.78-2.3,0.78c-0.47,0-0.83-0.05-0.86-0.06
				c-0.08-0.01-0.14-0.09-0.12-0.17c0.01-0.08,0.09-0.14,0.17-0.12c0.02,0,2.08,0.33,2.88-0.62c0.74-0.87,2.78-6.92,3.28-8.41
				C36.76,26.29,36.85,26.34,36.94,26.39z"/>
		</g>
	</g>
	<g>
		<g>
			<path class="st1" d="M34.57,37.12c-0.05,0.02-0.1,0.04-0.15,0.05c-0.12,0.04-0.24,0.07-0.36,0.1c0,0,0,0,0,0
				c-0.75-0.34-1.31-1.04-1.75-1.71c-0.11-0.16,0.16-0.3,0.26-0.14C33.07,36.17,33.68,36.88,34.57,37.12z"/>
		</g>
	</g>
	<g>
		<g>
			<path class="st1" d="M30.3,53.67c-0.03,1.96-0.45,3.85-1.25,5.64c-0.08,0.17,0.18,0.33,0.26,0.15c0.83-1.83,1.26-3.78,1.29-5.79
				C30.6,53.48,30.3,53.48,30.3,53.67z"/>
		</g>
	</g>
	<g>
		<g>
			<path class="st1" d="M72.73,24.66c-0.02,0.07-0.08,0.11-0.14,0.11c-0.01,0-0.03,0-0.04-0.01c-0.07-0.02-6.13-1.9-9.68-3.45
				c-0.34-0.15-0.65-0.29-0.94-0.43c-0.93-0.45-1.96-0.94-3.02-1.44c-2.69-1.28-5.48-2.6-7.25-3.62c-1.91-1.1-5.14-2.51-6.47-3.07
				c0.04-0.09,0.09-0.18,0.14-0.27c1.34,0.57,4.56,1.98,6.47,3.08c1.76,1.01,4.54,2.33,7.23,3.6c1.06,0.5,2.1,0.99,3.03,1.45
				c0.24,0.12,0.5,0.24,0.78,0.36c3.51,1.55,9.73,3.48,9.8,3.5C72.71,24.49,72.75,24.58,72.73,24.66z"/>
		</g>
	</g>
	<g>
		<g>
			<path class="st1" d="M73.21,50.99c-0.03,0.05-0.08,0.08-0.13,0.08c-0.02,0-0.04-0.01-0.07-0.01c-2.3-1.15-7.58-5.03-9.95-9.2
				c-1.02-1.79-2.07-3.89-3.09-5.92c-0.75-1.49-1.47-2.94-2.12-4.14c-0.49-0.91-0.95-1.68-1.33-2.21c-1.58-2.18-7.22-6.01-8.82-6.85
				c-1.3-0.68-4.1-2.41-5.22-3.11c0.04-0.09,0.08-0.18,0.13-0.27c1.1,0.69,3.93,2.44,5.23,3.12c1.61,0.84,7.32,4.72,8.93,6.93
				c0.4,0.55,0.87,1.34,1.38,2.28c0.64,1.2,1.36,2.63,2.11,4.11c1.02,2.03,2.07,4.12,3.08,5.9c2.3,4.06,7.62,7.98,9.82,9.08
				C73.21,50.83,73.24,50.92,73.21,50.99z"/>
		</g>
	</g>
	<g>
		<g>
			<path class="st1" d="M56.77,29.58c-0.01,0.02-1.15,2.18-3.18,2.18c-0.27,0-0.55-0.04-0.86-0.12c-2.05-0.59-6.85-3.87-8.59-5.08
				c0.04-0.09,0.09-0.18,0.14-0.27c-0.04-0.02-0.07-0.05-0.1-0.08c1.59,1.11,6.61,4.55,8.64,5.13c2.32,0.67,3.63-1.8,3.68-1.91
				c0.04-0.07,0.13-0.1,0.2-0.06C56.77,29.41,56.8,29.5,56.77,29.58z"/>
		</g>
	</g>
	<g>
		<g>
			<path class="st1" d="M53.06,33.86c-0.08,0.2-0.17,0.4-0.27,0.6c-0.06-0.11-0.12-0.22-0.18-0.32c0.02-0.03,0.03-0.06,0.04-0.09
				c0.36-0.78,0.54-1.63,0.5-2.44c-0.01-0.19,0.29-0.19,0.3,0C53.49,32.34,53.35,33.12,53.06,33.86z"/>
		</g>
	</g>
	<g>
		<g>
			<path class="st1" d="M69.49,22.56c-1.19-0.21-2.37-0.41-3.57-0.45c-0.19-0.01-0.19,0.29,0,0.3c1.18,0.04,2.34,0.23,3.49,0.44
				C69.6,22.89,69.68,22.6,69.49,22.56z"/>
		</g>
	</g>
	<g>
		<g>
			<path class="st1" d="M60.77,13.21c-0.55-0.45-1.1-0.91-1.64-1.36c-0.15-0.12-0.36,0.09-0.21,0.21c0.55,0.45,1.1,0.91,1.64,1.36
				C60.7,13.54,60.91,13.33,60.77,13.21z"/>
		</g>
	</g>
</g>
</svg>
