<?xml version="1.0" encoding="utf-8"?>
<!-- Generator: Adobe Illustrator 25.2.1, SVG Export Plug-In . SVG Version: 6.00 Build 0)  -->
<svg version="1.1" id="Layer_1" xmlns="http://www.w3.org/2000/svg" xmlns:xlink="http://www.w3.org/1999/xlink" x="0px" y="0px"
	 viewBox="0 0 300 300" style="enable-background:new 0 0 300 300;" xml:space="preserve">
<style type="text/css">
	.st0{fill:#022650;}
	.st1{fill:#FF8D29;}
	.st2{fill:#9C500B;}
	.st3{fill:#E86519;}
	.st4{fill:#F0760C;}
	.st5{fill:#452107;}
	.st6{fill:#E785EA;}
	.st7{clip-path:url(#SVGID_2_);}
	.st8{fill:#28A428;}
	.st9{fill:#80345F;}
	.st10{fill:#DB7394;}
</style>
<g>
	<path class="st0" d="M102.32,221.78c0,0-56.04-0.5-57.6,0s-28.73,34.67-28.73,36.83c0,2.17,267,3.83,267.33,1.33
		c0.33-2.5-23.45-38.11-25.47-38.39C255.82,221.28,102.32,221.78,102.32,221.78z"/>
	<g>
		<g>
			<g>
				<path class="st1" d="M138.3,106.37c0,0-0.93,9.94-2.92,19.66c-0.64,3.13-1.4,6.24-2.27,8.98c-1.14,3.65-2.54,7.5-4.2,11.29
					c-0.87,1.98-1.72,3.87-2.57,5.69c-0.3,0.65-0.6,1.3-0.9,1.95c-5.34,11.67-9.7,22.46-17.74,30.81
					c-9.15,9.5-27.04,24.31-27.04,24.31l-4.72-4.14c0,0,13.97-20.79,18.43-27.84c4.44-7.04,9.66-10.87,11.18-13.27
					c1.19-1.9,8.14-41.05,17.83-50.31c1.2-1.14,3.99-2.58,6.84-3.86c1.08-0.48,2.17-0.94,3.18-1.35
					C136.13,107.16,138.3,106.37,138.3,106.37z"/>
			</g>
			<g>
				<path class="st1" d="M81.28,208.23c0,0-4.49,6.16-7.05,8.19c-2.56,2.03-4.46,0.28-5.9,0.12c-1.43-0.17-3.23-0.3-3.72-1.74
					c-0.49-1.44,6.23-6.76,6.11-8.23c-0.12-1.47-3.86,0.06-4.46-1.02c-0.6-1.09,0.85-2.37,3.68-2.92c2.82-0.55,6.38-1.45,9.51-0.79
					c3.14,0.65,3.41,1.48,3.16,2.33C82.38,205.01,81.28,208.23,81.28,208.23z"/>
			</g>
		</g>
		<g>
			<path class="st1" d="M71.58,208.08c-1,0.63-1.43,0.89-2.66,0.61c-0.33-0.08-0.66-0.15-0.98-0.23c-0.64-0.15-0.6-1.34-0.91-1.84
				c-0.24-0.4-0.83-0.61-1.24-0.33c-1.75,1.19-0.96,4.52,0.68,5.43c1.58,0.88,5.4,1.6,5.99-0.84c0.27-0.21,0.52-0.44,0.74-0.69
				C74.15,209.08,72.94,207.23,71.58,208.08z"/>
		</g>
	</g>
	<g>
		<g>
			<g>
				<path class="st1" d="M228.43,204.92l-4.72,4.14c0,0-17.89-14.81-27.04-24.31c-8.01-8.32-12.37-19.06-17.68-30.68v-0.01
					c-0.32-0.69-0.64-1.38-0.96-2.07c-0.85-1.82-1.7-3.71-2.57-5.69c-1.66-3.79-3.06-7.64-4.2-11.29
					c-1.09-3.44-1.84-7.48-2.36-11.45v-0.01c-1.17-9.03-1.14-17.63-1.14-17.63s0.69,0.32,1.72,0.79c0.79,0.37,1.78,0.83,2.81,1.31
					c2.61,1.21,5.46,2.55,5.96,2.85c11.5,6.88,19.38,51.04,20.57,52.94c1.52,2.4,6.74,6.23,11.18,13.27
					C214.46,184.13,228.43,204.92,228.43,204.92z"/>
			</g>
			<g>
				<path class="st1" d="M223.09,208.23c0,0,4.49,6.16,7.05,8.19c2.56,2.03,4.46,0.28,5.9,0.12c1.43-0.17,3.23-0.3,3.72-1.74
					c0.49-1.44-6.23-6.76-6.11-8.23c0.12-1.47,3.86,0.06,4.46-1.02c0.6-1.09-0.85-2.37-3.68-2.92c-2.82-0.55-6.38-1.45-9.51-0.79
					c-3.14,0.65-3.41,1.48-3.16,2.33C222,205.01,223.09,208.23,223.09,208.23z"/>
			</g>
		</g>
		<g>
			<path class="st1" d="M233.01,208.08c1,0.63,1.43,0.89,2.66,0.61c0.33-0.08,0.66-0.15,0.98-0.23c0.64-0.15,0.6-1.34,0.91-1.84
				c0.24-0.4,0.83-0.61,1.24-0.33c1.75,1.19,0.96,4.52-0.68,5.43c-1.58,0.88-5.4,1.6-5.99-0.84c-0.27-0.21-0.52-0.44-0.74-0.69
				C230.45,209.08,231.65,207.23,233.01,208.08z"/>
		</g>
	</g>
	<g>
		<g>
			<path class="st2" d="M167.4,61.39c-0.44-2.65-2.43-4.69-4.44-6.42c-1.91-1.65-4.55-2.31-7-2.51c-1.68-0.14-3.4-0.24-5.08-0.29
				c-1.11-0.03-2.18,0.35-3.23,0.5c-0.08-0.07-0.16-0.13-0.27-0.14c-3.08-0.26-5.99,2.03-7.72,4.39c-1.17,1.59-1.64,3.51-2.44,5.28
				c-1.3,2.88-1.74,7.44-1.17,10.56c0.33,1.81,0.17,3.69,0.87,5.42c1.31,3.23,4.65,5.3,7.89,6.22c0.13,0.03,0.24,0.02,0.34-0.01
				c1.58,0.55,3.27,0.66,5.15,0.68c3.09,0.02,6.26-0.06,9.11-1.34c5.3-2.38,8.31-7.55,9.02-13.07
				C168.87,67.26,167.95,64.67,167.4,61.39z"/>
		</g>
		<g>
			<path class="st1" d="M172.94,108.59c0,0-10.47,7.97-15.71,11.96c-0.3,0.22-0.61,0.46-0.97,0.51c-0.37,0.05-0.75-0.09-1.1-0.24
				c-7.91-3.27-23.73-9.8-23.73-9.8s3.47-2.03,4.3-2.69c1.8-1.45,3.7-2.72,5.6-4.03c1.43-0.98,3.4-2.53,3.36-4.47
				c-0.01-0.43-0.03-0.86-0.04-1.27c-0.05-1.88-0.13-3.75-0.32-5.62c-0.02-0.18-0.06-0.43-0.08-0.7c-0.05-0.5-0.06-1.07,0.16-1.35
				c0.33-0.41,1.36-0.27,1.83-0.32c1.56-0.14,3.11-0.3,4.67-0.47c3.15-0.35,6.3-0.75,9.45-1.19c-0.23,0.03,0.03,7.51,0.04,8.22
				c0.04,1.52-0.18,3.28,0.68,4.63c0.99,1.54,3.1,2.17,4.6,3.06C166.47,105.28,172.94,108.59,172.94,108.59z"/>
		</g>
		<g>
			<path class="st1" d="M139.38,72.85c-0.03,3.55,0.3,7.01,0.54,10.37c0.61,8.56,8.58,12.61,11.54,12.62
				c3.71,0.02,8.8-1.7,11.67-7.57c2.11-4.32,2.22-19.63,2.22-19.63s-0.82-8.53-11.06-9.38c-2.4-0.2-9.12,0.24-11.38,1.16
				C138.35,62.28,139.41,68.82,139.38,72.85z"/>
		</g>
		<g>
			<path class="st1" d="M161.41,76.06c0,0,2.05-4.79,4.88-2.66c2.83,2.12,1.07,8.15-0.91,9.62c-1.98,1.47-2.3,1.81-2.37,1.57
				C162.93,84.34,161.41,76.06,161.41,76.06z"/>
		</g>
		<g>
			<path class="st1" d="M142.9,75.57c0,0-2.44-4.6-5.08-2.25c-2.64,2.35-0.39,8.21,1.7,9.51c2.09,1.3,2.44,1.61,2.49,1.37
				C142.06,83.95,142.9,75.57,142.9,75.57z"/>
		</g>
		<g>
			<path class="st2" d="M161.99,72.22c-0.63-0.52-1.59-0.8-2.45-0.87c-0.71-0.06-1.25,0.06-1.89,0.2c-0.23,0.05-0.47,0.11-0.64,0.24
				c-0.2,0.14-0.31,0.66-0.02,0.81c0.36,0.19,0.89,0.11,1.27,0.13c1.07,0.06,2.15,0.17,3.22,0.31
				C162.15,73.13,162.46,72.61,161.99,72.22z"/>
		</g>
		<g>
			<path class="st2" d="M143.64,73.07c0.8-0.12,1.6-0.22,2.41-0.29c0.56-0.05,1.57,0.06,2.08-0.22c0.29-0.16,0.17-0.68-0.03-0.82
				c-0.17-0.12-0.41-0.18-0.64-0.23c-0.64-0.13-1.18-0.25-1.9-0.17c-0.86,0.09-1.82,0.38-2.43,0.92
				C142.65,72.65,142.98,73.17,143.64,73.07z"/>
		</g>
		<g>
			<path class="st3" d="M151.03,82.36c0.04-0.07,0.08-0.14,0.12-0.2c0.35-0.55,0.78-1.05,1.14-1.6c0.36-0.55,0.49-0.96,0.69-1.82
				c0.11-0.47,0.09-1.5,0.2-1.65c0.47-0.62,0.78,1.08,0.81,1.38c0.15,1.53-0.05,5.61-2.38,5.42
				C150.63,83.8,150.66,83.04,151.03,82.36z"/>
		</g>
		<g>
			<path class="st4" d="M152.34,88.82c-3.28,0-4.04-1.45-4.12-1.62c-0.12-0.25,0-0.55,0.25-0.66c0.25-0.11,0.54-0.01,0.66,0.23
				c0.02,0.04,0.63,1.1,3.28,1.04c2.34-0.01,3.3-1.2,3.34-1.25c0.17-0.22,0.48-0.26,0.7-0.09c0.22,0.17,0.26,0.48,0.1,0.7
				c-0.05,0.07-1.27,1.63-4.13,1.65C152.39,88.82,152.37,88.82,152.34,88.82z"/>
		</g>
		<g>
			<path class="st5" d="M161.07,76.53c-0.46,0.14-0.89,0.24-1.37,0.25c-0.36,0-0.73-0.12-1.08-0.09c-0.38,0.04-0.48,0.46-0.19,0.69
				c0.79,0.6,2.02,0.28,2.87,0C161.84,77.21,161.62,76.37,161.07,76.53z"/>
		</g>
		<g>
			<path class="st5" d="M144.47,76.78c0.46,0.14,0.89,0.24,1.37,0.25c0.36,0,0.73-0.12,1.08-0.09c0.38,0.04,0.48,0.46,0.19,0.69
				c-0.79,0.6-2.02,0.28-2.87,0C143.69,77.46,143.92,76.62,144.47,76.78z"/>
		</g>
		<g>
			<path class="st4" d="M164.96,80.92c-0.01,0-0.01,0-0.02,0c-0.28-0.01-0.49-0.24-0.48-0.52l0.17-5.08
				c0.01-0.28,0.26-0.49,0.52-0.48c0.28,0.01,0.49,0.24,0.48,0.52l-0.17,5.08C165.45,80.71,165.23,80.92,164.96,80.92z"/>
		</g>
		<g>
			<path class="st4" d="M139.71,80.92c-0.26,0-0.48-0.2-0.5-0.46l-0.42-5.5c-0.02-0.28,0.18-0.52,0.46-0.54
				c0.28-0.02,0.52,0.19,0.54,0.46l0.42,5.5c0.02,0.28-0.19,0.52-0.46,0.54C139.74,80.92,139.72,80.92,139.71,80.92z"/>
		</g>
		<g>
			<path class="st4" d="M154.54,98.26c-0.65,0.61-3.15,1.34-5.86,1.59c-1.3,0.12-2.79,0.07-4-0.02c-0.01-0.43-0.03-0.86-0.04-1.27
				c-0.05-1.88-0.13-3.75-0.32-5.62c-0.02-0.18-0.06-0.43-0.08-0.7c0,0,3.77,3.27,7.34,3.36C155.38,95.7,155.57,97.3,154.54,98.26z"
				/>
		</g>
		<g>
			<path class="st2" d="M163.15,63.17c0.35-0.68,0.15-1.55-0.33-2.14c-0.48-0.61-1.2-0.98-1.92-1.26c-1.83-0.71-3.81-0.93-5.77-1.1
				c-3.11-0.27-6.3-0.43-9.36,0.3c-2.28,0.55-4.42,1.61-5.84,3.54c-0.29,0.4-0.52,1.01-0.14,1.32c-1.19,2.03-1.7,4.45-1.42,6.79
				c0.02,0.18,0.05,0.36,0.02,0.54c-0.02,0.14,0.92,0.29,0.89,0.43c-0.18,0.86,0.59,2.17,1.11,1.46c0.15-0.2,0.4-1.44,0.62-2.08
				c0.5-1.44,0.73-2.47,1.26-3.9c0.85-2.32,2.85-4.19,5.22-4.87c1.72-0.5,3.55-0.4,5.34-0.35c1.42,0.03,2.86,0.03,4.25,0.31
				c1.4,0.28,2.77,0.88,3.73,1.93c0.95,1.05,1.4,2.46,1.82,3.81c0.54,1.75,1.09,3.49,1.63,5.24c0.02,0.05,0.03,0.11,0.07,0.15
				c0.1,0.11,0.29,0.07,0.42,0c0.71-0.37,1.01-1.22,1.14-2.01C166.42,68.35,165.34,65.2,163.15,63.17z"/>
		</g>
		<g>
			<path class="st2" d="M170.35,73.65c0.31-1.7,0.77-3.14-0.24-4.72c-0.56-0.87-1.42-1.4-2.17-2.07c-1.01-0.91-1.76-1.95-2.51-3.07
				c-0.27-0.4-0.59-0.79-0.84-1.2c-0.34-0.55-0.43-1.34-0.76-1.83c-0.35-0.51,0.12-0.32-0.61-0.62c-0.04-0.02-0.06,0.03-0.06,0.06
				c0.19,1.43,0.01,1.87,0.73,3.06c-0.43-0.24-0.88-0.4-1.36-0.43c-0.13-0.01-0.24,0.02-0.34,0.07c-0.53-0.56-1.14-1.05-1.89-1.43
				c-0.24-0.12-0.51-0.23-0.8-0.34c-0.22-0.19-0.45-0.36-0.7-0.51c-0.26-0.15-0.62-0.11-0.88,0.06c-1.07-0.2-2.18-0.19-3.03,0.28
				c-0.14-0.28-0.29-0.57-0.45-0.85c-0.21-0.37-0.66-0.29-0.88,0l-0.16,0.21c-0.22,0.29-0.02,0.57,0.25,0.66
				c0.15,0.05,0.52,1.51,0.62,1.75c0.22,0.57,0.47,1.13,0.78,1.67c0.64,1.1,1.49,2.08,2.56,2.77c1,0.64,1.6,0.97,1.8,2.19
				c0.11,0.65,0.04,1.14,0.24,1.8c0.57,1.82,2.22,2.64,2.33,4.72c0.06,1.11-0.35,2.2-0.44,3.31c-0.11,1.36,0.34,1.84,1.08,2.88
				c0.86,1.22,1,2.57,2.65,3.01c1,0.27,1.76,0.13,2.41-0.75c0.43-0.58,0.52-1.3,0.79-1.94c0.43-1.02,1.24-1.79,1.79-2.76
				C171.61,77.32,169.91,76.07,170.35,73.65z"/>
		</g>
		<g>
			<path class="st2" d="M159.5,46.07c-1.71-1.72-1.26-4.04-4.2-4.42c-0.82-0.11-1.48-0.14-2.17-0.27c-1.15-2.02-3.21-2.97-5.46-1.44
				c-1.98,1.34-2.56,3.83-2.53,6.1c-0.7,0.66-1.23,1.42-1.46,2.59c-0.32,1.66,0.19,3.39,1.73,4.17c0.47,0.66,1.14,1.18,1.89,1.45
				c1.75,0.65,4.24,0.91,5.97,0.1c0.18-0.08,0.35-0.18,0.54-0.21c1-0.17,1.76-0.16,2.78-0.5c1.16-0.38,2.25-0.63,3.14-1.52
				C161.69,50.17,161.34,47.92,159.5,46.07z"/>
		</g>
	</g>
	<g>
		<path class="st1" d="M131.43,111.02c0,0-9.93,21.99-9.8,24.24s3.25,12.88,4.89,21.94c0.86,4.75,2.43,11.76,3.06,18.39
			s-6.07,17.55-6.07,17.55l32.88,16.38l28-15.38c0,0-9.82-14.62-8.38-22.5c1.62-8.88,5.88-39,5.88-39l-8.94-24.04L131.43,111.02z"/>
	</g>
	<g>
		<path class="st6" d="M232.3,217.21c-8-6.62-43.04-23.21-47.17-25.33s-6.25-12.62-8.45-13.51c-1.09-0.44-12.36-0.59-23.76-0.46
			c-11.4-0.14-22.67,0.02-23.76,0.46c-2.2,0.89-4.14,11.51-8.27,13.64s-39.35,18.58-47.35,25.21s-15.25,20.62-4,27.88
			s36.75,5.62,53.62,3.5c9.1-1.15,20.85-2.46,29.76-3.43c8.91,0.97,20.66,2.28,29.76,3.43c16.88,2.12,42.38,3.75,53.62-3.5
			S240.3,223.84,232.3,217.21z"/>
	</g>
	<g>
		<defs>
			<path id="SVGID_1_" d="M181,141.25c-0.01,2.54-1.19,8.78-2.01,12.81v0.01c-0.44,2.14-0.77,3.65-0.77,3.65l-51.36,1.32
				c0,0-0.67-2.21-1.42-5.1c-0.97-3.73-2.08-8.61-2.06-11.31c0.05-7.4,6-14.13,6.24-16.63c0.22-2.09,0.51-12.91,0.6-16.36
				c1.08-0.48,2.17-0.94,3.18-1.35c-0.22,4.81-0.52,17.06,1.98,17.74c3.12,0.84,32.52,0.47,33.16,0c0.13-0.1,0.25-1.05,0.36-2.47
				v-0.01c0.34-4.56,0.53-14.06,0.58-16.84c0.79,0.37,1.78,0.83,2.81,1.31c0.13,4,0.67,17.2,1.83,19.11
				C175.5,129.37,181.01,135.5,181,141.25z"/>
		</defs>
		<clipPath id="SVGID_2_">
			<use xlink:href="#SVGID_1_"  style="overflow:visible;"/>
		</clipPath>
		<g class="st7">
			<path class="st6" d="M181,141.25c-0.01,2.54-1.19,8.78-2.01,12.81v0.01c-0.44,2.14-0.77,3.65-0.77,3.65l-51.36,1.32
				c0,0-0.67-2.21-1.42-5.1c-0.97-3.73-2.08-8.61-2.06-11.31c0.05-7.4,6-14.13,6.24-16.63c0.22-2.09,0.51-12.91,0.6-16.36
				c1.08-0.48,2.17-0.94,3.18-1.35c-0.22,4.81-0.52,17.06,1.98,17.74c3.12,0.84,32.52,0.47,33.16,0c0.13-0.1,0.25-1.05,0.36-2.47
				v-0.01c0.34-4.56,0.53-14.06,0.58-16.84c0.79,0.37,1.78,0.83,2.81,1.31c0.13,4,0.67,17.2,1.83,19.11
				C175.5,129.37,181.01,135.5,181,141.25z"/>
		</g>
		<g class="st7">
			<path class="st8" d="M146.53,155.1c-13.48,0-26.91-0.59-27.07-0.59l0.09-2c0.2,0.01,19.91,0.87,35.5,0.5
				c7.44-0.18,13.76-0.22,18.38-0.25c4.65-0.03,8.32-0.06,8.9-0.2l0.62,1.9c-0.7,0.23-2.84,0.26-9.5,0.3
				c-4.61,0.03-10.93,0.07-18.35,0.25C152.33,155.07,149.43,155.1,146.53,155.1z"/>
		</g>
		<g class="st7">
			<path class="st8" d="M143.78,147.29c-9.86,0-23.28-0.39-23.43-0.39l0.06-2c0.17,0.01,17.1,0.5,26.85,0.38
				c9.77-0.12,35.09-0.74,35.34-0.75l0.05,2c-0.25,0.01-25.58,0.63-35.37,0.75C146.2,147.29,145.02,147.29,143.78,147.29z"/>
		</g>
		<g class="st7">
			<path class="st8" d="M184.38,139.3c-0.77,0-15.07-0.25-27.59-0.5c-12.4-0.24-36.14,0.49-36.38,0.5l-0.06-2
				c0.24-0.01,24.03-0.75,36.48-0.5c12.51,0.25,26.79,0.5,27.55,0.5V139.3z"/>
		</g>
		<g class="st7">
			<path class="st8" d="M149.66,131.38c-11.16,0-31.85-0.5-32.05-0.5l0.05-2c0.21,0,20.87,0.5,32.01,0.5
				c11.14,0,31.12-0.5,31.32-0.5l0.05,2C180.83,130.88,160.82,131.38,149.66,131.38z"/>
		</g>
		<g class="st7">
			<path class="st8" d="M149.66,123.51c-11.16,0-31.85-0.5-32.05-0.5l0.05-2c0.21,0,20.87,0.5,32.01,0.5
				c11.14,0,31.12-0.5,31.32-0.5l0.05,2C180.83,123.02,160.82,123.51,149.66,123.51z"/>
		</g>
		<g class="st7">
			<path class="st8" d="M149.66,115.65c-11.16,0-31.85-0.5-32.05-0.5l0.05-2c0.21,0,20.87,0.5,32.01,0.5
				c11.14,0,31.12-0.5,31.32-0.5l0.05,2C180.83,115.15,160.82,115.65,149.66,115.65z"/>
		</g>
	</g>
	<g>
		<path class="st4" d="M177.84,131.17c-0.04,0-0.08,0-0.11-0.01c-0.27-0.06-0.44-0.33-0.37-0.6l1.61-6.87
			c0.06-0.27,0.33-0.44,0.6-0.37c0.27,0.06,0.44,0.33,0.37,0.6l-1.61,6.87C178.27,131.02,178.07,131.17,177.84,131.17z"/>
	</g>
	<g>
		<path class="st4" d="M126.5,131.17c-0.23,0-0.43-0.15-0.49-0.38l-1.67-6.87c-0.06-0.27,0.1-0.54,0.37-0.6
			c0.27-0.06,0.54,0.1,0.6,0.37l1.67,6.87c0.06,0.27-0.1,0.54-0.37,0.6C126.58,131.17,126.54,131.17,126.5,131.17z"/>
	</g>
	<g>
		<path class="st4" d="M150.79,111.57c-0.03,0-0.05,0-0.08-0.01l-7.54-1.19c-0.27-0.04-0.46-0.3-0.42-0.57
			c0.04-0.27,0.3-0.45,0.57-0.42l7.54,1.19c0.27,0.04,0.46,0.3,0.42,0.57C151.25,111.39,151.03,111.57,150.79,111.57z"/>
	</g>
	<g>
		<path class="st4" d="M154.02,111.57c-0.23,0-0.44-0.16-0.49-0.4c-0.06-0.27,0.12-0.54,0.39-0.59l7.1-1.5
			c0.27-0.05,0.54,0.12,0.59,0.39c0.06,0.27-0.12,0.54-0.39,0.59l-7.1,1.5C154.09,111.56,154.06,111.57,154.02,111.57z"/>
	</g>
	<g>
		<path class="st1" d="M159.68,227.04c0,0,14.01-1.47,15.17-1.81c1.15-0.34,1.22-2.56,2.75-4.49c1.53-1.93,2.24-3.96,8.25-1.97
			c6.01,1.98,15.85,3.09,18.02,4.25c4.27,2.3-1.43,3.73-5,4.86c-3.57,1.13-34.94,10.05-35.64,9.54
			C162.53,236.9,159.68,227.04,159.68,227.04z"/>
	</g>
	<g>
		<path class="st1" d="M148.65,225.81c0,0-14.53-2.03-15.72-2.43c-1.19-0.4-1.18-2.71-2.7-4.78s-2.19-4.2-8.52-2.35
			c-6.32,1.85-16.61,2.64-18.91,3.78c-4.53,2.24,1.36,3.93,5.03,5.24c3.67,1.31,36.01,11.72,36.76,11.21
			C145.33,235.98,148.65,225.81,148.65,225.81z"/>
	</g>
	<g>
		<path class="st6" d="M98.63,223.16c0,0,20.12-0.08,34.38,0c11.5,0.07,27.24,0.48,27.24,0.48l4.39,15.16c0,0-43.56,5.2-43.9,5.21
			C120.4,244.01,98.63,223.16,98.63,223.16z"/>
	</g>
	<g>
		<path class="st9" d="M159.63,223h-16.38c-0.28,0-0.5-0.22-0.5-0.5s0.22-0.5,0.5-0.5h16.38c0.28,0,0.5,0.22,0.5,0.5
			S159.91,223,159.63,223z"/>
	</g>
	<g>
		<path class="st9" d="M154.34,244.43c-0.19,0-0.32-0.03-0.38-0.08c-0.19-0.2-0.19-0.51,0.01-0.71c0.12-0.12,0.29-0.16,0.44-0.13
			c1.05-0.08,9.32-2.39,9.94-2.79c0.17-0.19,0.01-1.3-0.32-2.25c-0.09-0.26,0.04-0.55,0.3-0.64c0.26-0.09,0.55,0.04,0.64,0.3
			c0.28,0.8,0.85,2.74-0.03,3.39C164.86,241.59,156.32,244.43,154.34,244.43z"/>
	</g>
	<g>
		<path class="st9" d="M177.38,184.75h-49.75c-0.28,0-0.5-0.22-0.5-0.5s0.22-0.5,0.5-0.5h49.75c0.28,0,0.5,0.22,0.5,0.5
			S177.66,184.75,177.38,184.75z"/>
	</g>
	<g>
		<path class="st9" d="M149.77,180.66c-0.14-0.51-0.71-1.05-1.28-0.98c-0.02,0-0.04,0.01-0.06,0.01c-0.93,0.12-1.64,0.91-1.24,1.88
			c0.36,0.86,1.52,1.12,2.19,0.44c0.02-0.02,0.03-0.03,0.05-0.05c-0.02,0-0.03,0.01-0.05,0.01
			C149.73,181.63,149.9,181.15,149.77,180.66z"/>
	</g>
	<g>
		<path class="st9" d="M156.5,179.66c-0.77,0-1.43,0.66-1.43,1.43c0,0.78,0.65,1.43,1.43,1.43c0.77,0,1.43-0.66,1.43-1.43
			C157.93,180.31,157.28,179.66,156.5,179.66z"/>
	</g>
	<g>
		<path class="st10" d="M156.25,51.72c-1.04-2.49-4.61-2.13-6.72-1.69c-0.79,0.16-1.7,0.56-1.8,1.48c-0.1,0.99,0.82,1.62,1.71,1.55
			c0.44-0.03,0.86-0.17,1.3-0.26c0.87-0.18,1.78-0.16,2.64,0.05c0.55,0.14,1.1,0.35,1.67,0.33
			C155.77,53.14,156.58,52.5,156.25,51.72z"/>
	</g>
</g>
</svg>
